<?xml version="1.0" encoding="UTF-8" standalone="no"?>
<!-- Created with Inkscape (http://www.inkscape.org/) -->

<svg
   xmlns:dc="http://purl.org/dc/elements/1.1/"
   xmlns:cc="http://creativecommons.org/ns#"
   xmlns:rdf="http://www.w3.org/1999/02/22-rdf-syntax-ns#"
   xmlns:svg="http://www.w3.org/2000/svg"
   xmlns="http://www.w3.org/2000/svg"
   xmlns:sodipodi="http://sodipodi.sourceforge.net/DTD/sodipodi-0.dtd"
   xmlns:inkscape="http://www.inkscape.org/namespaces/inkscape"
   width="377mm"
   height="210mm"
   viewBox="0 0 377 210"
   version="1.1"
   id="svg8"
   inkscape:version="0.92.1 r"
   sodipodi:docname="drawing.svg">
  <defs
     id="defs2">
    <inkscape:path-effect
       effect="spiro"
       id="path-effect5561"
       is_visible="true" />
    <inkscape:path-effect
       effect="spiro"
       id="path-effect5557"
       is_visible="true" />
    <inkscape:path-effect
       effect="spiro"
       id="path-effect5553"
       is_visible="true" />
    <inkscape:path-effect
       effect="spiro"
       id="path-effect5549"
       is_visible="true" />
  </defs>
  <sodipodi:namedview
     id="base"
     pagecolor="#333333"
     bordercolor="#666666"
     borderopacity="1.0"
     inkscape:pageopacity="0"
     inkscape:pageshadow="2"
     inkscape:zoom="0.98994949"
     inkscape:cx="662.52413"
     inkscape:cy="394.65718"
     inkscape:document-units="mm"
     inkscape:current-layer="layer1"
     showgrid="false"
     width="296mm"
     inkscape:window-width="2560"
     inkscape:window-height="1080"
     inkscape:window-x="0"
     inkscape:window-y="0"
     inkscape:window-maximized="0" />
  <metadata
     id="metadata5">
    <rdf:RDF>
      <cc:Work
         rdf:about="">
        <dc:format>image/svg+xml</dc:format>
        <dc:type
           rdf:resource="http://purl.org/dc/dcmitype/StillImage" />
        <dc:title></dc:title>
      </cc:Work>
    </rdf:RDF>
  </metadata>
  <g
     inkscape:label="Layer 1"
     inkscape:groupmode="layer"
     id="layer1"
     transform="translate(0,-87)">
    <path
       style="fill:none;fill-rule:evenodd;stroke:#ffffff;stroke-width:0.63700002;stroke-linecap:butt;stroke-linejoin:miter;stroke-miterlimit:4;stroke-dasharray:0.637, 3.822;stroke-dashoffset:0;stroke-opacity:1"
       d="M 125.65184,81.848035 V 305.8199"
       id="path5571"
       inkscape:connector-curvature="0" />
    <path
       style="fill:none;fill-rule:evenodd;stroke:#ffffff;stroke-width:0.63700002;stroke-linecap:butt;stroke-linejoin:miter;stroke-miterlimit:4;stroke-dasharray:0.63700001, 3.82200004;stroke-dashoffset:0;stroke-opacity:1"
       d="M 250.98518,80.244411 V 304.21628"
       id="path5571-3"
       inkscape:connector-curvature="0" />
    <rect
       style="fill:none;fill-opacity:1;stroke:#ffffff;stroke-width:0.66921324;stroke-linejoin:round;stroke-miterlimit:4;stroke-dasharray:none;stroke-opacity:1"
       id="rect1668"
       width="98.290573"
       height="81.135674"
       x="12.761474"
       y="111.4192"
       rx="5"
       ry="5" />
    <text
       xml:space="preserve"
       style="font-style:normal;font-weight:normal;font-size:10.58333302px;line-height:6.61458302px;font-family:sans-serif;letter-spacing:0px;word-spacing:0px;fill:#000000;fill-opacity:1;stroke:none;stroke-width:0.26458332px;stroke-linecap:butt;stroke-linejoin:miter;stroke-opacity:1"
       x="21.81501"
       y="155.15048"
       id="text16"><tspan
         sodipodi:role="line"
         x="21.81501"
         y="155.15048"
         style="font-size:4.93888903px;line-height:3.54541659px;writing-mode:lr-tb;fill:#ffffff;fill-opacity:1;stroke-width:0.26458332px"
         id="tspan823">Asset Registers</tspan></text>
    <text
       xml:space="preserve"
       style="font-style:normal;font-weight:normal;font-size:10.58333302px;line-height:6.61458349px;font-family:sans-serif;letter-spacing:0px;word-spacing:0px;fill:#000000;fill-opacity:1;stroke:none;stroke-width:0.26458332px;stroke-linecap:butt;stroke-linejoin:miter;stroke-opacity:1"
       x="39.784081"
       y="100.81815"
       id="text16-7"><tspan
         sodipodi:role="line"
         x="39.784081"
         y="100.81815"
         style="line-height:10.58333302px;writing-mode:lr-tb;fill:#ffffff;fill-opacity:1;stroke-width:0.26458332px"
         id="tspan823-7">Observe</tspan></text>
    <text
       xml:space="preserve"
       style="font-style:normal;font-weight:normal;font-size:10.58333302px;line-height:6.61458302px;font-family:sans-serif;letter-spacing:0px;word-spacing:0px;fill:#000000;fill-opacity:1;stroke:none;stroke-width:0.26458332px;stroke-linecap:butt;stroke-linejoin:miter;stroke-opacity:1"
       x="113.85682"
       y="99.755096"
       id="text873"><tspan
         sodipodi:role="line"
         id="tspan871"
         x="113.85682"
         y="105.81158"
         style="stroke-width:0.26458332px"></tspan></text>
    <text
       xml:space="preserve"
       style="font-style:normal;font-weight:normal;font-size:10.58333302px;line-height:6.61458349px;font-family:sans-serif;letter-spacing:0px;word-spacing:0px;fill:#000000;fill-opacity:1;stroke:none;stroke-width:0.26458332px;stroke-linecap:butt;stroke-linejoin:miter;stroke-opacity:1"
       x="168.81049"
       y="100.6321"
       id="text16-4"><tspan
         sodipodi:role="line"
         x="168.81049"
         y="100.6321"
         style="line-height:10.58333302px;writing-mode:lr-tb;fill:#ffffff;fill-opacity:1;stroke-width:0.26458332px"
         id="tspan823-1">Improve</tspan></text>
    <text
       xml:space="preserve"
       style="font-style:normal;font-weight:normal;font-size:10.58333302px;line-height:6.61458302px;font-family:sans-serif;letter-spacing:0px;word-spacing:0px;fill:#000000;fill-opacity:1;stroke:none;stroke-width:0.26458332px;stroke-linecap:butt;stroke-linejoin:miter;stroke-opacity:1"
       x="143.52373"
       y="139.84552"
       id="text889"><tspan
         sodipodi:role="line"
         id="tspan887"
         x="143.52373"
         y="145.90199"
         style="stroke-width:0.26458332px"></tspan></text>
    <text
       xml:space="preserve"
       style="font-style:normal;font-weight:normal;font-size:10.58333302px;line-height:6.61458349px;font-family:sans-serif;letter-spacing:0px;word-spacing:0px;fill:#000000;fill-opacity:1;stroke:none;stroke-width:0.26458332px;stroke-linecap:butt;stroke-linejoin:miter;stroke-opacity:1"
       x="301.67502"
       y="100.81815"
       id="text16-7-7"><tspan
         sodipodi:role="line"
         x="301.67502"
         y="100.81815"
         style="line-height:10.58333302px;writing-mode:lr-tb;fill:#ffffff;fill-opacity:1;stroke-width:0.26458332px"
         id="tspan823-7-0">Apply</tspan></text>
    <text
       xml:space="preserve"
       style="font-style:normal;font-weight:normal;font-size:10.58333302px;line-height:6.61458302px;font-family:sans-serif;letter-spacing:0px;word-spacing:0px;fill:#000000;fill-opacity:1;stroke:none;stroke-width:0.26458332px;stroke-linecap:butt;stroke-linejoin:miter;stroke-opacity:1"
       x="150.05655"
       y="145.43155"
       id="text1015"><tspan
         sodipodi:role="line"
         id="tspan1013"
         x="150.05655"
         y="151.48802"
         style="stroke-width:0.26458332px"></tspan></text>
    <path
       id="path1065"
       d="m 45.943963,133.9019 q 0.215854,0 0.373594,0.15775 0.15774,0.15773 0.15774,0.37359 v 13.81468 q 0,0.21585 -0.15774,0.37359 -0.15774,0.15774 -0.373594,0.15774 H 35.317286 q -0.215856,0 -0.373595,-0.15774 -0.15774,-0.15774 -0.15774,-0.37359 v -13.81468 q 0,-0.21586 0.15774,-0.37359 0.157739,-0.15775 0.373595,-0.15775 z m -6.907341,2.391 v 0.53134 q 0,0.11623 0.07472,0.19095 0.07472,0.0747 0.190948,0.0747 h 0.531334 q 0.116229,0 0.190948,-0.0747 0.07472,-0.0747 0.07472,-0.19095 v -0.53134 q 0,-0.11623 -0.07472,-0.19095 -0.07472,-0.0747 -0.190948,-0.0747 H 39.30229 q -0.116229,0 -0.190948,0.0747 -0.07472,0.0747 -0.07472,0.19095 z m 0,2.12534 v 0.53134 q 0,0.11622 0.07472,0.19094 0.07472,0.0747 0.190948,0.0747 h 0.531334 q 0.116229,0 0.190948,-0.0747 0.07472,-0.0747 0.07472,-0.19094 v -0.53134 q 0,-0.11623 -0.07472,-0.19094 -0.07472,-0.0747 -0.190948,-0.0747 H 39.30229 q -0.116229,0 -0.190948,0.0747 -0.07472,0.0747 -0.07472,0.19094 z m 0,2.12534 v 0.53133 q 0,0.11623 0.07472,0.19095 0.07472,0.0747 0.190948,0.0747 h 0.531334 q 0.116229,0 0.190948,-0.0747 0.07472,-0.0747 0.07472,-0.19095 v -0.53133 q 0,-0.11623 -0.07472,-0.19095 -0.07472,-0.0747 -0.190948,-0.0747 H 39.30229 q -0.116229,0 -0.190948,0.0747 -0.07472,0.0747 -0.07472,0.19095 z m 0,2.12533 v 0.53134 q 0,0.11623 0.07472,0.19094 0.07472,0.0747 0.190948,0.0747 h 0.531334 q 0.116229,0 0.190948,-0.0747 0.07472,-0.0747 0.07472,-0.19094 v -0.53134 q 0,-0.11623 -0.07472,-0.19095 -0.07472,-0.0747 -0.190948,-0.0747 H 39.30229 q -0.116229,0 -0.190948,0.0747 -0.07472,0.0747 -0.07472,0.19095 z m -1.062667,2.65667 v -0.53133 q 0,-0.11623 -0.07472,-0.19095 -0.07472,-0.0747 -0.190948,-0.0747 h -0.531334 q -0.116229,0 -0.190949,0.0747 -0.07472,0.0747 -0.07472,0.19095 v 0.53133 q 0,0.11623 0.07472,0.19095 0.07472,0.0747 0.190949,0.0747 h 0.531334 q 0.116229,0 0.190948,-0.0747 0.07472,-0.0747 0.07472,-0.19095 z m 0,-2.12533 v -0.53134 q 0,-0.11623 -0.07472,-0.19095 -0.07472,-0.0747 -0.190948,-0.0747 h -0.531334 q -0.116229,0 -0.190949,0.0747 -0.07472,0.0747 -0.07472,0.19095 v 0.53134 q 0,0.11623 0.07472,0.19094 0.07472,0.0747 0.190949,0.0747 h 0.531334 q 0.116229,0 0.190948,-0.0747 0.07472,-0.0747 0.07472,-0.19094 z m 0,-2.12534 v -0.53133 q 0,-0.11623 -0.07472,-0.19095 -0.07472,-0.0747 -0.190948,-0.0747 h -0.531334 q -0.116229,0 -0.190949,0.0747 -0.07472,0.0747 -0.07472,0.19095 v 0.53133 q 0,0.11623 0.07472,0.19095 0.07472,0.0747 0.190949,0.0747 h 0.531334 q 0.116229,0 0.190948,-0.0747 0.07472,-0.0747 0.07472,-0.19095 z m 0,-2.12533 v -0.53134 q 0,-0.11623 -0.07472,-0.19094 -0.07472,-0.0747 -0.190948,-0.0747 h -0.531334 q -0.116229,0 -0.190949,0.0747 -0.07472,0.0747 -0.07472,0.19094 v 0.53134 q 0,0.11622 0.07472,0.19094 0.07472,0.0747 0.190949,0.0747 h 0.531334 q 0.116229,0 0.190948,-0.0747 0.07472,-0.0747 0.07472,-0.19094 z m 0,-2.12534 v -0.53134 q 0,-0.11623 -0.07472,-0.19095 -0.07472,-0.0747 -0.190948,-0.0747 h -0.531334 q -0.116229,0 -0.190949,0.0747 -0.07472,0.0747 -0.07472,0.19095 v 0.53134 q 0,0.11623 0.07472,0.19095 0.07472,0.0747 0.190949,0.0747 h 0.531334 q 0.116229,0 0.190948,-0.0747 0.07472,-0.0747 0.07472,-0.19095 z m 4.250671,10.62668 v -1.594 q 0,-0.11624 -0.07472,-0.19095 -0.07472,-0.0747 -0.190948,-0.0747 h -2.65667 q -0.116229,0 -0.190948,0.0747 -0.07472,0.0747 -0.07472,0.19095 v 1.594 q 0,0.11623 0.07472,0.19095 0.07472,0.0747 0.190948,0.0747 h 2.65667 q 0.116228,0 0.190948,-0.0747 0.07472,-0.0747 0.07472,-0.19095 z m 0,-4.25067 v -0.53134 q 0,-0.11623 -0.07472,-0.19095 -0.07472,-0.0747 -0.190948,-0.0747 h -0.531335 q -0.116229,0 -0.190947,0.0747 -0.07472,0.0747 -0.07472,0.19095 v 0.53134 q 0,0.11623 0.07472,0.19094 0.07472,0.0747 0.190947,0.0747 h 0.531335 q 0.116228,0 0.190948,-0.0747 0.07472,-0.0747 0.07472,-0.19094 z m 0,-2.12534 v -0.53133 q 0,-0.11623 -0.07472,-0.19095 -0.07472,-0.0747 -0.190948,-0.0747 h -0.531335 q -0.116229,0 -0.190947,0.0747 -0.07472,0.0747 -0.07472,0.19095 v 0.53133 q 0,0.11623 0.07472,0.19095 0.07472,0.0747 0.190947,0.0747 h 0.531335 q 0.116228,0 0.190948,-0.0747 0.07472,-0.0747 0.07472,-0.19095 z m 0,-2.12533 v -0.53134 q 0,-0.11623 -0.07472,-0.19094 -0.07472,-0.0747 -0.190948,-0.0747 h -0.531335 q -0.116229,0 -0.190947,0.0747 -0.07472,0.0747 -0.07472,0.19094 v 0.53134 q 0,0.11622 0.07472,0.19094 0.07472,0.0747 0.190947,0.0747 h 0.531335 q 0.116228,0 0.190948,-0.0747 0.07472,-0.0747 0.07472,-0.19094 z m 0,-2.12534 v -0.53134 q 0,-0.11623 -0.07472,-0.19095 -0.07472,-0.0747 -0.190948,-0.0747 h -0.531335 q -0.116229,0 -0.190947,0.0747 -0.07472,0.0747 -0.07472,0.19095 v 0.53134 q 0,0.11623 0.07472,0.19095 0.07472,0.0747 0.190947,0.0747 h 0.531335 q 0.116228,0 0.190948,-0.0747 0.07472,-0.0747 0.07472,-0.19095 z m 2.125336,8.50134 v -0.53133 q 0,-0.11623 -0.07472,-0.19095 -0.07472,-0.0747 -0.190949,-0.0747 H 43.55296 q -0.11623,0 -0.190949,0.0747 -0.07472,0.0747 -0.07472,0.19095 v 0.53133 q 0,0.11623 0.07472,0.19095 0.07472,0.0747 0.190949,0.0747 h 0.531333 q 0.116229,0 0.190949,-0.0747 0.07472,-0.0747 0.07472,-0.19095 z m 0,-2.12533 v -0.53134 q 0,-0.11623 -0.07472,-0.19095 -0.07472,-0.0747 -0.190949,-0.0747 H 43.55296 q -0.11623,0 -0.190949,0.0747 -0.07472,0.0747 -0.07472,0.19095 v 0.53134 q 0,0.11623 0.07472,0.19094 0.07472,0.0747 0.190949,0.0747 h 0.531333 q 0.116229,0 0.190949,-0.0747 0.07472,-0.0747 0.07472,-0.19094 z m 0,-2.12534 v -0.53133 q 0,-0.11623 -0.07472,-0.19095 -0.07472,-0.0747 -0.190949,-0.0747 H 43.55296 q -0.11623,0 -0.190949,0.0747 -0.07472,0.0747 -0.07472,0.19095 v 0.53133 q 0,0.11623 0.07472,0.19095 0.07472,0.0747 0.190949,0.0747 h 0.531333 q 0.116229,0 0.190949,-0.0747 0.07472,-0.0747 0.07472,-0.19095 z m 0,-2.12533 v -0.53134 q 0,-0.11623 -0.07472,-0.19094 -0.07472,-0.0747 -0.190949,-0.0747 H 43.55296 q -0.11623,0 -0.190949,0.0747 -0.07472,0.0747 -0.07472,0.19094 v 0.53134 q 0,0.11622 0.07472,0.19094 0.07472,0.0747 0.190949,0.0747 h 0.531333 q 0.116229,0 0.190949,-0.0747 0.07472,-0.0747 0.07472,-0.19094 z m 0,-2.12534 v -0.53134 q 0,-0.11623 -0.07472,-0.19095 -0.07472,-0.0747 -0.190949,-0.0747 H 43.55296 q -0.11623,0 -0.190949,0.0747 -0.07472,0.0747 -0.07472,0.19095 v 0.53134 q 0,0.11623 0.07472,0.19095 0.07472,0.0747 0.190949,0.0747 h 0.531333 q 0.116229,0 0.190949,-0.0747 0.07472,-0.0747 0.07472,-0.19095 z"
       inkscape:connector-curvature="0"
       style="fill:#db1e7b;fill-opacity:1;stroke-width:0.00830209" />
    <path
       id="path1124"
       d="m 77.482254,140.4154 q -1.384628,0.0427 -2.264978,1.09402 h -1.14531 q -0.700861,0 -1.1795,-0.34615 -0.478637,-0.34616 -0.478637,-1.01283 0,-3.01713 1.059839,-3.01713 0.05129,0 0.371798,0.17949 0.320517,0.1795 0.833343,0.36326 0.512824,0.18376 1.017104,0.18376 0.572654,0 1.136762,-0.19658 -0.04273,0.31624 -0.04273,0.56411 0,1.18804 0.692311,2.18805 z m 9.153936,5.4445 q 0,1.02565 -0.623935,1.61967 -0.623939,0.59402 -1.658137,0.59402 h -7.470159 q -1.034198,0 -1.658136,-0.59402 -0.623938,-0.59402 -0.623938,-1.61967 0,-0.453 0.02992,-0.88463 0.02992,-0.43163 0.119658,-0.93162 0.08975,-0.50001 0.226499,-0.92737 0.136753,-0.42735 0.367524,-0.83334 0.230774,-0.40599 0.529922,-0.69231 0.299147,-0.28633 0.730775,-0.45727 0.431629,-0.17094 0.953002,-0.17094 0.08547,0 0.367524,0.18376 0.282055,0.18376 0.623938,0.41026 0.341884,0.22649 0.91454,0.41026 0.572654,0.18376 1.153857,0.18376 0.581203,0 1.153857,-0.18376 0.572656,-0.18377 0.914539,-0.41026 0.341884,-0.2265 0.623938,-0.41026 0.282053,-0.18376 0.367525,-0.18376 0.521373,0 0.953002,0.17094 0.431626,0.17094 0.730775,0.45727 0.299148,0.28632 0.529919,0.69231 0.230773,0.40599 0.367526,0.83334 0.136754,0.42736 0.226497,0.92737 0.08975,0.49999 0.119661,0.93162 0.02991,0.43163 0.02991,0.88463 z m -8.752223,-10.91464 q 0,0.90599 -0.64103,1.54702 -0.641033,0.64103 -1.547024,0.64103 -0.905992,0 -1.547025,-0.64103 -0.64103,-0.64103 -0.64103,-1.54702 0,-0.90599 0.64103,-1.54703 0.641033,-0.64103 1.547025,-0.64103 0.905991,0 1.547024,0.64103 0.64103,0.64104 0.64103,1.54703 z m 6.017155,3.28209 q 0,1.35898 -0.96155,2.32053 -0.961547,0.96154 -2.320533,0.96154 -1.358989,0 -2.320537,-0.96154 -0.961547,-0.96155 -0.961547,-2.32053 0,-1.359 0.961547,-2.32054 0.961548,-0.96155 2.320537,-0.96155 1.358986,0 2.320533,0.96155 0.96155,0.96154 0.96155,2.32054 z m 4.923125,1.92309 q 0,0.66667 -0.478638,1.01283 -0.478636,0.34615 -1.179498,0.34615 H 86.0208 q -0.88035,-1.05129 -2.26498,-1.09402 0.692316,-1.00001 0.692316,-2.18805 0,-0.24787 -0.04274,-0.56411 0.564108,0.19658 1.136765,0.19658 0.504277,0 1.017104,-0.18376 0.512826,-0.18376 0.833343,-0.36326 0.320513,-0.17949 0.371795,-0.17949 1.059842,0 1.059842,3.01713 z m -1.094028,-5.20518 q 0,0.90599 -0.641031,1.54702 -0.641033,0.64103 -1.547024,0.64103 -0.905993,0 -1.547025,-0.64103 -0.641032,-0.64103 -0.641032,-1.54702 0,-0.90599 0.641032,-1.54703 0.641032,-0.64103 1.547025,-0.64103 0.905991,0 1.547024,0.64103 0.641031,0.64104 0.641031,1.54703 z"
       inkscape:connector-curvature="0"
       style="fill:#db1e7b;fill-opacity:1;stroke-width:0.00854709" />
    <text
       xml:space="preserve"
       style="font-style:normal;font-weight:normal;font-size:10.58333302px;line-height:6.61458349px;font-family:sans-serif;text-align:center;letter-spacing:0px;word-spacing:0px;text-anchor:middle;fill:#000000;fill-opacity:1;stroke:none;stroke-width:0.26458332px;stroke-linecap:butt;stroke-linejoin:miter;stroke-opacity:1"
       x="81.599876"
       y="155.58429"
       id="text16-6"><tspan
         sodipodi:role="line"
         x="82.386047"
         y="155.58429"
         style="font-size:4.93888903px;line-height:3.54541659px;text-align:center;writing-mode:lr-tb;text-anchor:middle;fill:#ffffff;fill-opacity:1;stroke-width:0.26458332px"
         id="tspan1158">Workforce </tspan><tspan
         sodipodi:role="line"
         x="81.599876"
         y="162.19887"
         style="font-size:4.93888903px;line-height:3.54541659px;text-align:center;writing-mode:lr-tb;text-anchor:middle;fill:#ffffff;fill-opacity:1;stroke-width:0.26458332px"
         id="tspan1584">Management</tspan></text>
    <path
       id="path1208"
       d="m 36.480256,171.49625 q 0,-0.52785 -0.373478,-0.90132 -0.373481,-0.37349 -0.901332,-0.37349 -0.52785,0 -0.90133,0.37349 -0.373478,0.37347 -0.373478,0.90132 0,0.52786 0.373478,0.90134 0.37348,0.37347 0.90133,0.37347 0.527851,0 0.901332,-0.37347 0.373478,-0.37348 0.373478,-0.90134 z m 1.912218,-4.46183 q 0,-0.52785 -0.373481,-0.90133 -0.37348,-0.37348 -0.901331,-0.37348 -0.527851,0 -0.901331,0.37348 -0.373478,0.37348 -0.373478,0.90133 0,0.52785 0.373478,0.90133 0.37348,0.37348 0.901331,0.37348 0.527851,0 0.901331,-0.37348 0.373481,-0.37348 0.373481,-0.90133 z m 4.262645,4.7905 1.005905,-3.80451 q 0.05976,-0.25894 -0.07469,-0.48304 -0.134453,-0.22409 -0.383439,-0.2938 -0.248986,-0.0697 -0.478052,0.0647 -0.22907,0.13445 -0.298785,0.3934 l -1.005906,3.80452 q -0.597566,0.0498 -1.06566,0.43323 -0.468096,0.38344 -0.627447,0.98101 -0.199188,0.76688 0.199188,1.45408 0.398381,0.6872 1.165257,0.88639 0.766878,0.19919 1.454082,-0.19919 0.687201,-0.39838 0.886392,-1.16525 0.15935,-0.59757 -0.05976,-1.16526 -0.21911,-0.56769 -0.717081,-0.90631 z m 6.573241,-0.32867 q 0,-0.52785 -0.373478,-0.90132 -0.373481,-0.37349 -0.901332,-0.37349 -0.527853,0 -0.901331,0.37349 -0.373479,0.37347 -0.373479,0.90132 0,0.52786 0.373479,0.90134 0.373478,0.37347 0.901331,0.37347 0.527851,0 0.901332,-0.37347 0.373478,-0.37348 0.373478,-0.90134 z m -6.37405,-6.37405 q 0,-0.52785 -0.373482,-0.90133 -0.37348,-0.37347 -0.90133,-0.37347 -0.527851,0 -0.901331,0.37347 -0.373479,0.37348 -0.373479,0.90133 0,0.52786 0.373479,0.90134 0.37348,0.37347 0.901331,0.37347 0.52785,0 0.90133,-0.37347 0.373482,-0.37348 0.373482,-0.90134 z m 4.461835,1.91222 q 0,-0.52785 -0.37348,-0.90133 -0.373478,-0.37348 -0.901329,-0.37348 -0.527853,0 -0.901332,0.37348 -0.37348,0.37348 -0.37348,0.90133 0,0.52785 0.37348,0.90133 0.373479,0.37348 0.901332,0.37348 0.527851,0 0.901329,-0.37348 0.37348,-0.37348 0.37348,-0.90133 z m 3.187026,4.46183 q 0,2.59942 -1.404284,4.81042 -0.189229,0.28883 -0.537811,0.28883 H 34.59792 q -0.348581,0 -0.53781,-0.28883 -1.404284,-2.20103 -1.404284,-4.81042 0,-1.81262 0.707122,-3.46589 0.707121,-1.65327 1.902256,-2.84839 1.195134,-1.19514 2.848404,-1.90226 1.653268,-0.70713 3.46589,-0.70713 1.812621,0 3.465891,0.70713 1.65327,0.70712 2.848404,1.90226 1.195136,1.19512 1.902257,2.84839 0.707121,1.65327 0.707121,3.46589 z"
       inkscape:connector-curvature="0"
       style="fill:#db1e7b;fill-opacity:1;stroke-width:0.00995946" />
    <text
       xml:space="preserve"
       style="font-style:normal;font-weight:normal;font-size:10.58333302px;line-height:6.61458349px;font-family:sans-serif;letter-spacing:0px;word-spacing:0px;fill:#000000;fill-opacity:1;stroke:none;stroke-width:0.26458332px;stroke-linecap:butt;stroke-linejoin:miter;stroke-opacity:1"
       x="22.854397"
       y="184.02905"
       id="text16-6-5"><tspan
         sodipodi:role="line"
         x="22.854397"
         y="184.02905"
         style="font-size:4.93888903px;line-height:3.54541659px;writing-mode:lr-tb;fill:#ffffff;fill-opacity:1;stroke-width:0.26458332px"
         id="tspan1158-9">Telemetry/IoT</tspan></text>
    <g
       style="fill:#ffffff"
       id="g10"
       transform="matrix(0.01811995,0,0,-0.01811995,183.6388,150.06367)">
      <g
         id="g12"
         transform="scale(0.1)"
         style="fill:#ffffff">
        <path
           d="m 6409.46,919.234 2.25,-1.3 v 169.906 l -983.16,567.63 -542.14,313 -733.94,-423.84 c -141.19,-81.49 -240.08,-83.61 -387.6,1.69 l -61.44,35.5 -264.03,152.41 V 541.328 l 122.49,-70.703 59.88,-34.594 c 255.76,-147.734 427.13,-144.008 671.81,-2.683 L 5566.8,1168.41 6406.69,714.004 Z m -3288.17,998.626 -217.87,125.73 -46.77,27.02 -46.76,26.98 c -205.14,118.46 -264.24,195.7 -264.24,426.7 v 435.09 646.78 c 0,190.91 50.87,306.38 224.84,407.09 l 75.04,43.61 3.29,1.85 6.02,3.51 6.1,3.47 3.03,1.77 8.97,5.2 6.01,3.5 242.34,140.03 V 5421.9 c -140.07,-80.44 -279.83,-161.37 -419.56,-242.42 l -0.99,-0.56 -1.64,-0.96 -368.9,-214.49 -8.7,-5.02 C 2180.34,4876.35 2039.28,4794.21 1898,4712.38 1596.38,4537.63 1508.36,4337.6 1508.36,4006.71 l -0.09,-1121.1 v -754.16 c 0,-400.38 102.32,-534.34 457.96,-739.66 l 546.95,-315.82 88.41,-51 88.41,-51.009 v -0.043 0 L 3004.17,792.586 3121.29,725 Z m 318.11,2482.26 218.96,126.56 4.93,2.86 2.08,1.17 71.14,40.22 c 173.71,97.94 311.01,81.23 466.97,-11.61 314.21,-186.87 632.88,-366.25 949.86,-548.49 163.5,-93.96 221.04,-184.75 221.04,-382.41 v -646.7 -173.62 l 1037.33,-598.89 v 357.55 357.51 1121.11 c 0,342.57 -99.72,500.05 -383.06,662.89 -549.45,315.94 -1101.88,626.73 -1646.52,950.69 -270.53,160.98 -508.41,189.86 -809.55,20.09 l -73.95,-41.78 -3.11,-1.82 -1.48,-0.78 -54.64,-30.96 V 4400.12"
           style="fill:#ffffff;fill-opacity:1;fill-rule:evenodd;stroke:none"
           id="path14"
           inkscape:connector-curvature="0" />
        <path
           d="m 3121.31,3000.37 v -258.04 c -0.02,-136.97 34.98,-182.79 156.66,-253.04 l 187.11,-107.99 379.25,-218.95 c 87.47,-50.53 146.08,-49.27 229.79,-0.91 l 568.89,328.45 1768.72,-1021.18 v 359.63 l -1612.99,931.26 -0.02,253.95 v 383.54 c 0,117.2 -34.07,171.03 -131.03,226.79 -187.95,108.09 -376.95,214.43 -563.28,325.26 -92.53,55.03 -173.96,64.94 -276.92,6.84 -192.04,-108.31 -382.11,-220.13 -572.92,-330.68 -103.16,-59.78 -133.26,-128.25 -133.28,-241.44 l 0.02,-383.49"
           style="fill:#ffffff;fill-opacity:1;fill-rule:evenodd;stroke:none"
           id="path16"
           inkscape:connector-curvature="0" />
      </g>
    </g>
    <path
       id="path1467"
       d="m 315.8852,138.4727 q 0,-1.00704 -0.71254,-1.71957 -0.71252,-0.71253 -1.71957,-0.71253 -1.00704,0 -1.71957,0.71253 -0.71253,0.71253 -0.71253,1.71957 0,1.00704 0.71253,1.71958 0.71253,0.71252 1.71957,0.71252 1.00705,0 1.71957,-0.71252 0.71254,-0.71254 0.71254,-1.71958 z m 7.29631,4.86421 q 0,-0.49402 -0.36102,-0.85504 -0.36101,-0.36101 -0.85504,-0.36101 -0.49401,0 -0.85503,0.36101 -0.36102,0.36102 -0.36102,0.85504 0,0.50352 0.35627,0.85979 0.35627,0.35626 0.85978,0.35626 0.50353,0 0.8598,-0.35626 0.35626,-0.35627 0.35626,-0.85979 z m 0,-9.72842 q 0,-0.49402 -0.36102,-0.85503 -0.36101,-0.36102 -0.85504,-0.36102 -0.49401,0 -0.85503,0.36102 -0.36102,0.36101 -0.36102,0.85503 0,0.50352 0.35627,0.85979 0.35627,0.35627 0.85978,0.35627 0.50353,0 0.8598,-0.35627 0.35626,-0.35627 0.35626,-0.85979 z m -3.64816,3.99967 v 1.75758 q 0,0.095 -0.0665,0.18525 -0.0665,0.0903 -0.15201,0.0998 l -1.47256,0.22801 q -0.1045,0.33252 -0.30401,0.72203 0.32301,0.45602 0.85503,1.09255 0.0665,0.095 0.0665,0.19001 0,0.114 -0.0665,0.18051 -0.21851,0.28501 -0.78378,0.85028 -0.56527,0.56528 -0.74578,0.56528 -0.10451,0 -0.19951,-0.0665 l -1.09255,-0.85504 q -0.35151,0.18052 -0.73153,0.29452 -0.1045,1.02604 -0.21851,1.47256 -0.0665,0.22801 -0.28501,0.22801 h -1.76708 q -0.1045,0 -0.19,-0.0712 -0.0855,-0.0713 -0.095,-0.16626 l -0.21851,-1.45356 q -0.32301,-0.095 -0.71253,-0.29451 l -1.12105,0.84553 q -0.0665,0.0665 -0.19,0.0665 -0.10451,0 -0.19951,-0.076 -1.36806,-1.26355 -1.36806,-1.52006 0,-0.0855 0.0665,-0.18051 0.095,-0.133 0.38952,-0.50352 0.29451,-0.37052 0.44651,-0.57953 -0.2185,-0.41801 -0.33251,-0.77903 l -1.44406,-0.22801 q -0.095,-0.009 -0.16151,-0.0902 -0.0665,-0.0807 -0.0665,-0.18526 v -1.75758 q 0,-0.095 0.0665,-0.18525 0.0665,-0.0903 0.15201,-0.0998 l 1.47256,-0.22801 q 0.10451,-0.33251 0.30402,-0.72203 -0.32302,-0.45602 -0.85504,-1.09254 -0.0665,-0.10451 -0.0665,-0.19002 0,-0.114 0.0665,-0.19 0.20901,-0.28502 0.77903,-0.84554 0.57002,-0.56052 0.75054,-0.56052 0.1045,0 0.1995,0.0665 l 1.09255,0.85504 q 0.32301,-0.17101 0.73153,-0.30401 0.10451,-1.02605 0.21851,-1.46307 0.0665,-0.22801 0.28501,-0.22801 h 1.76708 q 0.10451,0 0.19001,0.0712 0.0855,0.0713 0.095,0.16626 l 0.21851,1.45357 q 0.32301,0.095 0.71253,0.2945 l 1.12105,-0.84553 q 0.076,-0.0665 0.19001,-0.0665 0.1045,0 0.19951,0.076 1.36806,1.26355 1.36806,1.52006 0,0.0855 -0.0665,0.18051 -0.114,0.15201 -0.39901,0.51302 -0.28501,0.36102 -0.42752,0.57003 0.21851,0.45602 0.32301,0.77904 l 1.44406,0.2185 q 0.095,0.019 0.16151,0.0998 0.0665,0.0808 0.0665,0.18525 z m 6.08026,5.06372 v 1.33006 q 0,0.152 -1.41556,0.29451 -0.114,0.25651 -0.28501,0.49402 0.48452,1.07355 0.48452,1.31106 0,0.038 -0.038,0.0665 -1.15905,0.67453 -1.17805,0.67453 -0.076,0 -0.43702,-0.44652 -0.36102,-0.44652 -0.49402,-0.64603 -0.19001,0.019 -0.28502,0.019 -0.095,0 -0.28501,-0.019 -0.133,0.19951 -0.49402,0.64603 -0.36102,0.44652 -0.43702,0.44652 -0.019,0 -1.17805,-0.67453 -0.038,-0.0285 -0.038,-0.0665 0,-0.23751 0.48452,-1.31106 -0.17101,-0.23751 -0.28502,-0.49402 -1.41556,-0.14251 -1.41556,-0.29451 v -1.33006 q 0,-0.152 1.41556,-0.29451 0.12351,-0.27551 0.28502,-0.49402 -0.48452,-1.07355 -0.48452,-1.31106 0,-0.038 0.038,-0.0665 0.038,-0.019 0.33252,-0.19001 0.29451,-0.17101 0.56052,-0.32301 0.26601,-0.15201 0.28501,-0.15201 0.076,0 0.43702,0.44177 0.36102,0.44177 0.49402,0.64128 0.19001,-0.019 0.28501,-0.019 0.095,0 0.28502,0.019 0.48452,-0.67453 0.87404,-1.06405 l 0.057,-0.019 q 0.038,0 1.17805,0.66502 0.038,0.0285 0.038,0.0665 0,0.2375 -0.48452,1.31105 0.16151,0.21851 0.28501,0.49402 1.41556,0.14251 1.41556,0.29451 z m 0,-9.72842 v 1.33006 q 0,0.15201 -1.41556,0.29452 -0.114,0.25651 -0.28501,0.49401 0.48452,1.07355 0.48452,1.31106 0,0.038 -0.038,0.0665 -1.15905,0.67453 -1.17805,0.67453 -0.076,0 -0.43702,-0.44652 -0.36102,-0.44651 -0.49402,-0.64602 -0.19001,0.019 -0.28502,0.019 -0.095,0 -0.28501,-0.019 -0.133,0.19951 -0.49402,0.64602 -0.36102,0.44652 -0.43702,0.44652 -0.019,0 -1.17805,-0.67453 -0.038,-0.0285 -0.038,-0.0665 0,-0.23751 0.48452,-1.31106 -0.17101,-0.2375 -0.28502,-0.49401 -1.41556,-0.14251 -1.41556,-0.29452 v -1.33006 q 0,-0.152 1.41556,-0.29451 0.12351,-0.27551 0.28502,-0.49402 -0.48452,-1.07355 -0.48452,-1.31106 0,-0.038 0.038,-0.0665 0.038,-0.019 0.33252,-0.19001 0.29451,-0.171 0.56052,-0.32301 0.26601,-0.15201 0.28501,-0.15201 0.076,0 0.43702,0.44177 0.36102,0.44177 0.49402,0.64128 0.19001,-0.019 0.28501,-0.019 0.095,0 0.28502,0.019 0.48452,-0.67453 0.87404,-1.06405 l 0.057,-0.019 q 0.038,0 1.17805,0.66503 0.038,0.0285 0.038,0.0665 0,0.2375 -0.48452,1.31105 0.16151,0.21851 0.28501,0.49402 1.41556,0.1425 1.41556,0.29451 z"
       inkscape:connector-curvature="0"
       style="fill:#db1e7b;fill-opacity:1;stroke-width:0.00950041" />
    <text
       xml:space="preserve"
       style="font-style:normal;font-weight:normal;font-size:10.58333302px;line-height:6.61458349px;font-family:sans-serif;text-align:center;letter-spacing:0px;word-spacing:0px;text-anchor:middle;fill:#000000;fill-opacity:1;stroke:none;stroke-width:0.26458332px;stroke-linecap:butt;stroke-linejoin:miter;stroke-opacity:1"
       x="316.35062"
       y="217.32204"
       id="text16-41"><tspan
         sodipodi:role="line"
         x="316.35062"
         y="217.32204"
         style="font-size:6.3499999px;line-height:3.54541659px;text-align:center;writing-mode:lr-tb;text-anchor:middle;fill:#ffffff;fill-opacity:1;stroke-width:0.26458332px"
         id="tspan823-4">Schedule</tspan><tspan
         sodipodi:role="line"
         x="316.35062"
         y="223.93661"
         style="font-size:6.3499999px;line-height:3.54541659px;text-align:center;writing-mode:lr-tb;text-anchor:middle;fill:#ffffff;fill-opacity:1;stroke-width:0.26458332px"
         id="tspan1582">Maintenance</tspan></text>
    <path
       id="path1553"
       d="m 308.6773,207.06984 h 3.19743 v -3.19742 h -3.19743 z m 3.90797,0 h 3.5527 v -3.19742 h -3.5527 z m -3.90797,-3.90796 h 3.19743 v -3.55269 h -3.19743 z m 3.90797,0 h 3.5527 v -3.55269 h -3.5527 z m -3.90797,-4.26323 h 3.19743 v -3.19742 h -3.19743 z m 8.17119,8.17119 h 3.5527 v -3.19742 h -3.5527 z m -4.26322,-8.17119 h 3.5527 v -3.19742 h -3.5527 z m 8.52646,8.17119 h 3.19743 v -3.19742 h -3.19743 z m -4.26324,-3.90796 h 3.5527 v -3.55269 h -3.5527 z m -3.90795,-9.59227 v -3.19742 q 0,-0.14433 -0.10548,-0.2498 -0.10546,-0.10548 -0.24979,-0.10548 h -0.71054 q -0.14433,0 -0.2498,0.10548 -0.10547,0.10547 -0.10547,0.2498 v 3.19742 q 0,0.14433 0.10547,0.2498 0.10547,0.10547 0.2498,0.10547 h 0.71054 q 0.14433,0 0.24979,-0.10547 0.10548,-0.10547 0.10548,-0.2498 z m 8.17119,9.59227 h 3.19743 v -3.55269 h -3.19743 z m -4.26324,-4.26323 h 3.5527 v -3.19742 h -3.5527 z m 4.26324,0 h 3.19743 v -3.19742 h -3.19743 z m 0.35527,-5.32904 v -3.19742 q 0,-0.14433 -0.10547,-0.2498 -0.10547,-0.10548 -0.2498,-0.10548 h -0.71054 q -0.14433,0 -0.2498,0.10548 -0.10547,0.10547 -0.10547,0.2498 v 3.19742 q 0,0.14433 0.10547,0.2498 0.10547,0.10547 0.2498,0.10547 h 0.71054 q 0.14433,0 0.2498,-0.10547 0.10547,-0.10547 0.10547,-0.2498 z m 4.26323,-0.71054 v 14.21077 q 0,0.57731 -0.42188,0.9992 -0.42188,0.42187 -0.99919,0.42187 H 308.6773 q -0.57731,0 -0.99919,-0.42187 -0.42188,-0.42189 -0.42188,-0.9992 v -14.21077 q 0,-0.57731 0.42188,-0.99919 0.42188,-0.42188 0.99919,-0.42188 h 1.42108 v -1.06581 q 0,-0.73275 0.52181,-1.25455 0.5218,-0.5218 1.25454,-0.5218 h 0.71054 q 0.73275,0 1.25454,0.5218 0.52181,0.5218 0.52181,1.25455 v 1.06581 h 4.26322 v -1.06581 q 0,-0.73275 0.52181,-1.25455 0.52179,-0.5218 1.25454,-0.5218 h 0.71054 q 0.73274,0 1.25454,0.5218 0.52181,0.5218 0.52181,1.25455 v 1.06581 h 1.42108 q 0.57731,0 0.99919,0.42188 0.42188,0.42188 0.42188,0.99919 z"
       inkscape:connector-curvature="0"
       style="fill:#db1e7b;fill-opacity:1;stroke-width:0.01110217" />
    <text
       xml:space="preserve"
       style="font-style:normal;font-weight:normal;font-size:10.58333302px;line-height:6.61458349px;font-family:sans-serif;letter-spacing:0px;word-spacing:0px;fill:#000000;fill-opacity:1;stroke:none;stroke-width:0.26458332px;stroke-linecap:butt;stroke-linejoin:miter;stroke-opacity:1"
       x="292.27145"
       y="155.6956"
       id="text16-41-1"><tspan
         sodipodi:role="line"
         x="292.27145"
         y="155.6956"
         style="font-size:6.3499999px;line-height:3.54541659px;writing-mode:lr-tb;fill:#ffffff;fill-opacity:1;stroke-width:0.26458332px"
         id="tspan823-4-5">Predict Failures</tspan></text>
    <text
       xml:space="preserve"
       style="font-style:normal;font-weight:normal;font-size:10.58333302px;line-height:6.61458302px;font-family:sans-serif;letter-spacing:0px;word-spacing:0px;fill:#000000;fill-opacity:1;stroke:none;stroke-width:0.26458332px;stroke-linecap:butt;stroke-linejoin:miter;stroke-opacity:1"
       x="78.844505"
       y="119.26577"
       id="text1588"><tspan
         sodipodi:role="line"
         id="tspan1586"
         x="78.844505"
         y="125.32225"
         style="stroke-width:0.26458332px"></tspan></text>
    <text
       xml:space="preserve"
       style="font-style:normal;font-weight:normal;font-size:10.58333302px;line-height:6.61458349px;font-family:sans-serif;letter-spacing:0px;word-spacing:0px;fill:#000000;fill-opacity:1;stroke:none;stroke-width:0.26458332px;stroke-linecap:butt;stroke-linejoin:miter;stroke-opacity:1"
       x="61.985134"
       y="210.56624"
       id="text16-7-5"><tspan
         sodipodi:role="line"
         x="61.985134"
         y="210.56624"
         style="font-size:4.93888903px;line-height:0px;text-align:center;writing-mode:lr-tb;text-anchor:middle;fill:#ffffff;fill-opacity:1;stroke-width:0.26458332px"
         id="tspan5471">And captures data</tspan><tspan
         sodipodi:role="line"
         x="61.985134"
         y="217.18082"
         style="font-size:4.93888903px;line-height:0px;text-align:center;writing-mode:lr-tb;text-anchor:middle;fill:#ffffff;fill-opacity:1;stroke-width:0.26458332px"
         id="tspan5422">from our mobile app</tspan></text>
    <text
       xml:space="preserve"
       style="font-style:normal;font-weight:normal;font-size:10.58333302px;line-height:6.61458349px;font-family:sans-serif;letter-spacing:0px;word-spacing:0px;fill:#000000;fill-opacity:1;stroke:none;stroke-width:0.26458332px;stroke-linecap:butt;stroke-linejoin:miter;stroke-opacity:1"
       x="190.89027"
       y="158.89442"
       id="text16-7-5-9"><tspan
         sodipodi:role="line"
         x="190.89027"
         y="158.89442"
         style="font-size:4.93888903px;line-height:0px;text-align:center;writing-mode:lr-tb;text-anchor:middle;fill:#ffffff;fill-opacity:1;stroke-width:0.26458332px"
         id="tspan5477">Knowledge base</tspan><tspan
         sodipodi:role="line"
         x="190.89027"
         y="165.509"
         style="font-size:4.93888903px;line-height:0px;text-align:center;writing-mode:lr-tb;text-anchor:middle;fill:#ffffff;fill-opacity:1;stroke-width:0.26458332px"
         id="tspan5481">catalogues information</tspan><tspan
         sodipodi:role="line"
         x="190.89027"
         y="172.1236"
         style="font-size:4.93888903px;line-height:0px;text-align:center;writing-mode:lr-tb;text-anchor:middle;fill:#ffffff;fill-opacity:1;stroke-width:0.26458332px"
         id="tspan5483">as it's collected</tspan></text>
    <path
       id="path5388"
       d="m 63.791046,247.43775 q 0,-0.77727 -0.553511,-1.33078 -0.553511,-0.5535 -1.330776,-0.5535 -0.777265,0 -1.330776,0.5535 -0.55351,0.55351 -0.55351,1.33078 0,0.77727 0.55351,1.33077 0.553511,0.55351 1.330776,0.55351 0.777265,0 1.330776,-0.55351 0.553511,-0.5535 0.553511,-1.33077 z m 4.899136,-3.76857 v -16.58171 q 0,-0.30619 -0.223754,-0.52994 -0.223755,-0.22377 -0.529955,-0.22377 H 55.877045 q -0.306187,0 -0.529954,0.22377 -0.223755,0.22375 -0.223755,0.52994 v 16.58171 q 0,0.30619 0.223755,0.52996 0.223767,0.22375 0.529954,0.22375 h 12.059428 q 0.3062,0 0.529955,-0.22375 0.223754,-0.22377 0.223754,-0.52996 z M 64.1679,223.69577 q 0,-0.37686 -0.376854,-0.37686 h -3.768573 q -0.376855,0 -0.376855,0.37686 0,0.37685 0.376855,0.37685 h 3.768573 q 0.376854,0 0.376854,-0.37685 z m 6.783423,-0.37686 v 24.11884 q 0,1.22478 -0.895031,2.11981 -0.895045,0.89504 -2.119819,0.89504 H 55.877045 q -1.224787,0 -2.119819,-0.89504 -0.895031,-0.89503 -0.895031,-2.11981 v -24.11884 q 0,-1.22479 0.895031,-2.11982 0.895032,-0.89504 2.119819,-0.89504 h 12.059428 q 1.224774,0 2.119819,0.89504 0.895031,0.89503 0.895031,2.11982 z"
       inkscape:connector-curvature="0"
       style="fill:#db1e7b;fill-opacity:1;stroke-width:0.02355355" />
    <text
       xml:space="preserve"
       style="font-style:normal;font-weight:normal;font-size:10.58333302px;line-height:6.61458349px;font-family:sans-serif;letter-spacing:0px;word-spacing:0px;fill:#000000;fill-opacity:1;stroke:none;stroke-width:0.26458332px;stroke-linecap:butt;stroke-linejoin:miter;stroke-opacity:1"
       x="43.128605"
       y="119.76405"
       id="text16-7-5-2"><tspan
         sodipodi:role="line"
         x="43.914776"
         y="119.76405"
         style="font-size:4.93888903px;line-height:0px;text-align:center;writing-mode:lr-tb;text-anchor:middle;fill:#ffffff;fill-opacity:1;stroke-width:0.26458332px"
         id="tspan1608-2">Quartic monitors </tspan><tspan
         sodipodi:role="line"
         x="43.128605"
         y="126.37864"
         style="font-size:4.93888903px;line-height:0px;text-align:center;writing-mode:lr-tb;text-anchor:middle;fill:#ffffff;fill-opacity:1;stroke-width:0.26458332px"
         id="tspan1612-7">your existing data</tspan></text>
    <rect
       style="fill:none;fill-opacity:1;stroke:#ffffff;stroke-width:0.65674269;stroke-linejoin:round;stroke-miterlimit:4;stroke-dasharray:none;stroke-opacity:1"
       id="rect1668-3"
       width="61.261391"
       height="125.37136"
       x="160.18361"
       y="137.17502"
       rx="3.2435668"
       ry="2.7062435" />
    <rect
       style="fill:none;fill-opacity:0;stroke:#ffffff;stroke-width:0.66499996;stroke-linejoin:round;stroke-miterlimit:4;stroke-dasharray:none;stroke-opacity:1"
       id="rect5469"
       width="60.690155"
       height="51.155392"
       x="31.561682"
       y="204.05153"
       rx="3.2435534"
       ry="2.7062378" />
    <text
       xml:space="preserve"
       style="font-style:normal;font-weight:normal;font-size:10.58333302px;line-height:6.61458349px;font-family:sans-serif;letter-spacing:0px;word-spacing:0px;fill:#000000;fill-opacity:1;stroke:none;stroke-width:0.26458332px;stroke-linecap:butt;stroke-linejoin:miter;stroke-opacity:1"
       x="190.71181"
       y="206.04524"
       id="text16-7-5-9-6"><tspan
         sodipodi:role="line"
         x="190.71181"
         y="206.04524"
         style="font-size:4.93888903px;line-height:0px;text-align:center;writing-mode:lr-tb;text-anchor:middle;fill:#ffffff;fill-opacity:1;stroke-width:0.26458332px"
         id="tspan5483-3">Machine learning</tspan><tspan
         sodipodi:role="line"
         x="190.71181"
         y="212.65982"
         style="font-size:4.93888903px;line-height:0px;text-align:center;writing-mode:lr-tb;text-anchor:middle;fill:#ffffff;fill-opacity:1;stroke-width:0.26458332px"
         id="tspan5514">algorithms identify</tspan><tspan
         sodipodi:role="line"
         x="190.71181"
         y="219.27441"
         style="font-size:4.93888903px;line-height:0px;text-align:center;writing-mode:lr-tb;text-anchor:middle;fill:#ffffff;fill-opacity:1;stroke-width:0.26458332px"
         id="tspan5516">patterns and insights</tspan></text>
    <rect
       style="fill:none;fill-opacity:0;stroke:#ffffff;stroke-width:0.66499996;stroke-linejoin:round;stroke-miterlimit:4;stroke-dasharray:none;stroke-opacity:1"
       id="rect5518"
       width="56.393867"
       height="39.555889"
       x="288.2963"
       y="123.67755"
       rx="3.2435534"
       ry="2.7062378" />
    <rect
       style="fill:none;fill-opacity:0;stroke:#ffffff;stroke-width:0.66499996;stroke-linejoin:round;stroke-miterlimit:4;stroke-dasharray:none;stroke-opacity:1"
       id="rect5522"
       width="55.057522"
       height="41.159508"
       x="288.96448"
       y="186.55148"
       rx="3.2435534"
       ry="2.7062378" />
    <path
       style="fill:none;fill-rule:evenodd;stroke:#ffffff;stroke-width:0.63700002;stroke-linecap:butt;stroke-linejoin:miter;stroke-miterlimit:4;stroke-dasharray:none;stroke-opacity:1"
       d="m 111.5567,145.2134 c 5.32341,-3.76627 12.44993,-4.84888 18.65166,-2.83344 6.20172,2.01544 11.3303,7.08073 13.42259,13.25695 1.95426,5.76877 1.32239,12.04232 1.71037,18.12075 0.19399,3.03921 0.65784,6.09424 1.80603,8.9149 1.14818,2.82065 3.02668,5.40808 5.6093,7.02194 2.1998,1.37463 4.86355,1.99147 7.44367,1.72371"
       id="path5547"
       inkscape:connector-curvature="0"
       inkscape:path-effect="#path-effect5549"
       inkscape:original-d="m 111.5567,145.2134 c 12.59947,-2.7e-4 19.6013,10.42324 32.07425,10.42351 12.47295,2.6e-4 6.08407,22.70479 9.1257,34.05759 3.04164,11.35279 0.53246,-2.67303 7.44367,1.72371"
       sodipodi:nodetypes="cscc" />
    <path
       style="fill:none;fill-rule:evenodd;stroke:#ffffff;stroke-width:0.63700002;stroke-linecap:butt;stroke-linejoin:miter;stroke-miterlimit:4;stroke-dasharray:none;stroke-opacity:1"
       d="m 92.253051,222.25569 c 3.529603,-3.9677 8.247809,-6.86427 13.383289,-8.21617 5.13548,-1.35189 10.66832,-1.15388 15.69402,0.56167 3.84251,1.31166 7.33185,3.46102 10.90523,5.3888 3.57337,1.92779 7.35363,3.67363 11.39536,4.06061 3.16363,0.3029 6.40574,-0.25826 9.28352,-1.60684 2.87779,-1.34858 5.38358,-3.48099 7.17514,-6.10599"
       id="path5551"
       inkscape:connector-curvature="0"
       inkscape:path-effect="#path-effect5553"
       inkscape:original-d="m 92.253051,222.25569 c 14.489349,-4.53598 28.573609,4.81845 29.077309,-7.6545 0.6126,-15.16973 19.52903,6.17335 22.30059,9.44941 2.77157,3.27606 5.6236,-7.7131 16.45866,-7.71283"
       sodipodi:nodetypes="cscc" />
    <path
       style="fill:none;fill-rule:evenodd;stroke:#ffffff;stroke-width:0.63700002;stroke-linecap:butt;stroke-linejoin:miter;stroke-miterlimit:4;stroke-dasharray:none;stroke-opacity:1"
       d="m 221.83371,182.0741 c 5.48455,4.44511 12.66638,6.74042 19.71233,6.30005 7.04594,-0.44037 13.88609,-3.61205 18.77448,-8.70547 6.43228,-6.70206 9.25292,-16.14512 15.23437,-23.25245 3.31169,-3.93505 7.56087,-7.07575 12.29438,-9.08716"
       id="path5555"
       inkscape:connector-curvature="0"
       inkscape:path-effect="#path-effect5557"
       inkscape:original-d="m 221.83371,182.0741 c 9.71106,-2.94023 28.77628,0.53428 38.48681,-2.40542 9.71053,-2.9397 10.15651,-15.5019 15.23437,-23.25245 5.07785,-7.75055 7.66198,-7.66199 12.29438,-9.08716"
       sodipodi:nodetypes="cssc" />
    <path
       style="fill:none;fill-rule:evenodd;stroke:#ffffff;stroke-width:0.63700002;stroke-linecap:butt;stroke-linejoin:miter;stroke-miterlimit:4;stroke-dasharray:none;stroke-opacity:1"
       d="m 221.56644,220.02638 c 9.79941,1.28605 20.07607,-1.57956 27.79603,-7.75082 3.20203,-2.55967 5.95139,-5.63205 8.95787,-8.4188 3.00648,-2.78675 6.36825,-5.34005 10.28553,-6.54828 3.69139,-1.13856 7.76465,-0.99638 11.36767,0.39678 3.60302,1.39317 6.71236,4.02827 8.67754,7.35403"
       id="path5559"
       inkscape:connector-curvature="0"
       inkscape:path-effect="#path-effect5561"
       inkscape:original-d="m 221.56644,220.02638 c 7.84017,13.00686 19.95639,-20.7582 27.79603,-7.75082 7.83964,13.00739 18.35277,-18.08549 19.2434,-14.96708 0.89064,3.11841 40.62523,18.88677 20.04521,7.75081"
       sodipodi:nodetypes="cscc" />
  </g>
</svg>
