<?xml version="1.0" encoding="UTF-8" standalone="no"?>
<!-- Created with Inkscape (http://www.inkscape.org/) -->

<svg
   xmlns:dc="http://purl.org/dc/elements/1.1/"
   xmlns:cc="http://creativecommons.org/ns#"
   xmlns:rdf="http://www.w3.org/1999/02/22-rdf-syntax-ns#"
   xmlns:svg="http://www.w3.org/2000/svg"
   xmlns="http://www.w3.org/2000/svg"
   xmlns:sodipodi="http://sodipodi.sourceforge.net/DTD/sodipodi-0.dtd"
   xmlns:inkscape="http://www.inkscape.org/namespaces/inkscape"
   width="377mm"
   height="170mm"
   viewBox="0 0 377 170"
   version="1.1"
   id="svg8"
   inkscape:version="0.92.1 r"
   sodipodi:docname="drawing.svg">
  <defs
     id="defs2">
    <inkscape:path-effect
       effect="spiro"
       id="path-effect5561"
       is_visible="true" />
    <inkscape:path-effect
       effect="spiro"
       id="path-effect5557"
       is_visible="true" />
    <inkscape:path-effect
       effect="spiro"
       id="path-effect5553"
       is_visible="true" />
    <inkscape:path-effect
       effect="spiro"
       id="path-effect5549"
       is_visible="true" />
    <inkscape:path-effect
       effect="spiro"
       id="path-effect5561-9"
       is_visible="true" />
  </defs>
  <sodipodi:namedview
     id="base"
     pagecolor="#333333"
     bordercolor="#666666"
     borderopacity="1.0"
     inkscape:pageopacity="0"
     inkscape:pageshadow="2"
     inkscape:zoom="0.7"
     inkscape:cx="661.957"
     inkscape:cy="272.91131"
     inkscape:document-units="mm"
     inkscape:current-layer="layer1"
     showgrid="false"
     width="296mm"
     inkscape:window-width="2552"
     inkscape:window-height="1003"
     inkscape:window-x="0"
     inkscape:window-y="36"
     inkscape:window-maximized="0"
     inkscape:lockguides="false"
     showguides="false" />
  <metadata
     id="metadata5">
    <rdf:RDF>
      <cc:Work
         rdf:about="">
        <dc:format>image/svg+xml</dc:format>
        <dc:type
           rdf:resource="http://purl.org/dc/dcmitype/StillImage" />
        <dc:title></dc:title>
      </cc:Work>
    </rdf:RDF>
  </metadata>
  <g
     inkscape:label="Layer 1"
     inkscape:groupmode="layer"
     id="layer1"
     transform="translate(0,-127)">
    <path
       style="fill:none;fill-rule:evenodd;stroke:#ffffff;stroke-width:0.63700002;stroke-linecap:butt;stroke-linejoin:miter;stroke-miterlimit:4;stroke-dasharray:0.637, 3.822;stroke-dashoffset:0;stroke-opacity:1"
       d="M 125.65184,94.086374 V 318.05834"
       id="path5571"
       inkscape:connector-curvature="0" />
    <path
       style="fill:none;fill-rule:evenodd;stroke:#ffffff;stroke-width:0.63700002;stroke-linecap:butt;stroke-linejoin:miter;stroke-miterlimit:4;stroke-dasharray:0.63700001, 3.82200004;stroke-dashoffset:0;stroke-opacity:1"
       d="M 250.98518,94.086364 V 318.05834"
       id="path5571-3"
       inkscape:connector-curvature="0" />
    <rect
       style="fill:none;fill-opacity:1;stroke:#ffffff;stroke-width:0.52205431;stroke-linejoin:round;stroke-miterlimit:4;stroke-dasharray:none;stroke-opacity:1"
       id="rect1668"
       width="78.70694"
       height="61.661354"
       x="25.6779"
       y="163.36765"
       rx="4.5043235"
       ry="4.9100833" />
    <text
       xml:space="preserve"
       style="font-style:normal;font-variant:normal;font-weight:300;font-stretch:normal;font-size:10.58333302px;line-height:6.61458302px;font-family:Roboto;-inkscape-font-specification:'Roboto Light';letter-spacing:0px;word-spacing:0px;fill:#000000;fill-opacity:1;stroke:none;stroke-width:0.26458332px;stroke-linecap:butt;stroke-linejoin:miter;stroke-opacity:1"
       x="31.340019"
       y="189.54585"
       id="text16"><tspan
         sodipodi:role="line"
         x="31.340019"
         y="189.54585"
         style="font-style:normal;font-variant:normal;font-weight:300;font-stretch:normal;font-size:4.93888903px;line-height:3.54541659px;font-family:Roboto;-inkscape-font-specification:'Roboto Light';writing-mode:lr-tb;fill:#ffffff;fill-opacity:1;stroke-width:0.26458332px"
         id="tspan823">Asset Registers</tspan></text>
    <text
       xml:space="preserve"
       style="font-style:normal;font-variant:normal;font-weight:300;font-stretch:normal;font-size:10.58333302px;line-height:6.61458349px;font-family:Roboto;-inkscape-font-specification:'Roboto Light';letter-spacing:0px;word-spacing:0px;fill:#ffffff;fill-opacity:1;stroke:none;stroke-width:0.26458332px;stroke-linecap:butt;stroke-linejoin:miter;stroke-opacity:1"
       x="43.849388"
       y="141.56378"
       id="text16-7"><tspan
         sodipodi:role="line"
         x="43.849388"
         y="141.56378"
         style="font-style:normal;font-variant:normal;font-weight:300;font-stretch:normal;line-height:10.58333302px;font-family:Roboto;-inkscape-font-specification:'Roboto Light';writing-mode:lr-tb;fill:#ffffff;fill-opacity:1;stroke-width:0.26458332px"
         id="tspan823-7">Observe</tspan></text>
    <text
       xml:space="preserve"
       style="font-style:normal;font-weight:normal;font-size:10.58333302px;line-height:6.61458302px;font-family:sans-serif;letter-spacing:0px;word-spacing:0px;fill:#000000;fill-opacity:1;stroke:none;stroke-width:0.26458332px;stroke-linecap:butt;stroke-linejoin:miter;stroke-opacity:1"
       x="113.85682"
       y="139.44243"
       id="text873"><tspan
         sodipodi:role="line"
         id="tspan871"
         x="113.85682"
         y="145.4989"
         style="stroke-width:0.26458332px"></tspan></text>
    <text
       xml:space="preserve"
       style="font-style:normal;font-variant:normal;font-weight:300;font-stretch:normal;font-size:10.58333302px;line-height:6.61458349px;font-family:Roboto;-inkscape-font-specification:'Roboto Light';letter-spacing:0px;word-spacing:0px;fill:#000000;fill-opacity:1;stroke:none;stroke-width:0.26458332px;stroke-linecap:butt;stroke-linejoin:miter;stroke-opacity:1"
       x="175.1927"
       y="141.37775"
       id="text16-4"><tspan
         sodipodi:role="line"
         x="175.1927"
         y="141.37775"
         style="font-style:normal;font-variant:normal;font-weight:300;font-stretch:normal;line-height:10.58333302px;font-family:Roboto;-inkscape-font-specification:'Roboto Light';writing-mode:lr-tb;fill:#ffffff;fill-opacity:1;stroke-width:0.26458332px"
         id="tspan823-1">Learn</tspan></text>
    <text
       xml:space="preserve"
       style="font-style:normal;font-weight:normal;font-size:10.58333302px;line-height:6.61458302px;font-family:sans-serif;letter-spacing:0px;word-spacing:0px;fill:#000000;fill-opacity:1;stroke:none;stroke-width:0.26458332px;stroke-linecap:butt;stroke-linejoin:miter;stroke-opacity:1"
       x="143.52373"
       y="179.53249"
       id="text889"><tspan
         sodipodi:role="line"
         id="tspan887"
         x="143.52373"
         y="185.58896"
         style="stroke-width:0.26458332px"></tspan></text>
    <text
       xml:space="preserve"
       style="font-style:normal;font-variant:normal;font-weight:300;font-stretch:normal;font-size:10.58333302px;line-height:6.61458349px;font-family:Roboto;-inkscape-font-specification:'Roboto Light';letter-spacing:0px;word-spacing:0px;fill:#000000;fill-opacity:1;stroke:none;stroke-width:0.26458332px;stroke-linecap:butt;stroke-linejoin:miter;stroke-opacity:1"
       x="301.03076"
       y="141.56378"
       id="text16-7-7"><tspan
         sodipodi:role="line"
         x="301.03076"
         y="141.56378"
         style="font-style:normal;font-variant:normal;font-weight:300;font-stretch:normal;line-height:10.58333302px;font-family:Roboto;-inkscape-font-specification:'Roboto Light';writing-mode:lr-tb;fill:#ffffff;fill-opacity:1;stroke-width:0.26458332px"
         id="tspan823-7-0">Apply</tspan></text>
    <text
       xml:space="preserve"
       style="font-style:normal;font-weight:normal;font-size:10.58333302px;line-height:6.61458302px;font-family:sans-serif;letter-spacing:0px;word-spacing:0px;fill:#000000;fill-opacity:1;stroke:none;stroke-width:0.26458332px;stroke-linecap:butt;stroke-linejoin:miter;stroke-opacity:1"
       x="150.05655"
       y="185.11852"
       id="text1015"><tspan
         sodipodi:role="line"
         id="tspan1013"
         x="150.05655"
         y="191.17499"
         style="stroke-width:0.26458332px"></tspan></text>
    <path
       id="path1065"
       d="m 53.445095,168.29795 q 0.215854,0 0.373594,0.15775 0.15774,0.15773 0.15774,0.37359 v 13.81468 q 0,0.21585 -0.15774,0.37359 -0.15774,0.15774 -0.373594,0.15774 H 42.818418 q -0.215856,0 -0.373595,-0.15774 -0.15774,-0.15774 -0.15774,-0.37359 v -13.81468 q 0,-0.21586 0.15774,-0.37359 0.157739,-0.15775 0.373595,-0.15775 z m -6.907341,2.391 v 0.53134 q 0,0.11623 0.07472,0.19095 0.07472,0.0747 0.190948,0.0747 h 0.531334 q 0.116229,0 0.190948,-0.0747 0.07472,-0.0747 0.07472,-0.19095 v -0.53134 q 0,-0.11623 -0.07472,-0.19095 -0.07472,-0.0747 -0.190948,-0.0747 h -0.531334 q -0.116229,0 -0.190948,0.0747 -0.07472,0.0747 -0.07472,0.19095 z m 0,2.12534 v 0.53134 q 0,0.11622 0.07472,0.19094 0.07472,0.0747 0.190948,0.0747 h 0.531334 q 0.116229,0 0.190948,-0.0747 0.07472,-0.0747 0.07472,-0.19094 v -0.53134 q 0,-0.11623 -0.07472,-0.19094 -0.07472,-0.0747 -0.190948,-0.0747 h -0.531334 q -0.116229,0 -0.190948,0.0747 -0.07472,0.0747 -0.07472,0.19094 z m 0,2.12534 v 0.53133 q 0,0.11623 0.07472,0.19095 0.07472,0.0747 0.190948,0.0747 h 0.531334 q 0.116229,0 0.190948,-0.0747 0.07472,-0.0747 0.07472,-0.19095 v -0.53133 q 0,-0.11623 -0.07472,-0.19095 -0.07472,-0.0747 -0.190948,-0.0747 h -0.531334 q -0.116229,0 -0.190948,0.0747 -0.07472,0.0747 -0.07472,0.19095 z m 0,2.12533 v 0.53134 q 0,0.11623 0.07472,0.19094 0.07472,0.0747 0.190948,0.0747 h 0.531334 q 0.116229,0 0.190948,-0.0747 0.07472,-0.0747 0.07472,-0.19094 v -0.53134 q 0,-0.11623 -0.07472,-0.19095 -0.07472,-0.0747 -0.190948,-0.0747 h -0.531334 q -0.116229,0 -0.190948,0.0747 -0.07472,0.0747 -0.07472,0.19095 z m -1.062667,2.65667 v -0.53133 q 0,-0.11623 -0.07472,-0.19095 -0.07472,-0.0747 -0.190948,-0.0747 h -0.531334 q -0.116229,0 -0.190949,0.0747 -0.07472,0.0747 -0.07472,0.19095 v 0.53133 q 0,0.11623 0.07472,0.19095 0.07472,0.0747 0.190949,0.0747 h 0.531334 q 0.116229,0 0.190948,-0.0747 0.07472,-0.0747 0.07472,-0.19095 z m 0,-2.12533 v -0.53134 q 0,-0.11623 -0.07472,-0.19095 -0.07472,-0.0747 -0.190948,-0.0747 h -0.531334 q -0.116229,0 -0.190949,0.0747 -0.07472,0.0747 -0.07472,0.19095 v 0.53134 q 0,0.11623 0.07472,0.19094 0.07472,0.0747 0.190949,0.0747 h 0.531334 q 0.116229,0 0.190948,-0.0747 0.07472,-0.0747 0.07472,-0.19094 z m 0,-2.12534 v -0.53133 q 0,-0.11623 -0.07472,-0.19095 -0.07472,-0.0747 -0.190948,-0.0747 h -0.531334 q -0.116229,0 -0.190949,0.0747 -0.07472,0.0747 -0.07472,0.19095 v 0.53133 q 0,0.11623 0.07472,0.19095 0.07472,0.0747 0.190949,0.0747 h 0.531334 q 0.116229,0 0.190948,-0.0747 0.07472,-0.0747 0.07472,-0.19095 z m 0,-2.12533 v -0.53134 q 0,-0.11623 -0.07472,-0.19094 -0.07472,-0.0747 -0.190948,-0.0747 h -0.531334 q -0.116229,0 -0.190949,0.0747 -0.07472,0.0747 -0.07472,0.19094 v 0.53134 q 0,0.11622 0.07472,0.19094 0.07472,0.0747 0.190949,0.0747 h 0.531334 q 0.116229,0 0.190948,-0.0747 0.07472,-0.0747 0.07472,-0.19094 z m 0,-2.12534 v -0.53134 q 0,-0.11623 -0.07472,-0.19095 -0.07472,-0.0747 -0.190948,-0.0747 h -0.531334 q -0.116229,0 -0.190949,0.0747 -0.07472,0.0747 -0.07472,0.19095 v 0.53134 q 0,0.11623 0.07472,0.19095 0.07472,0.0747 0.190949,0.0747 h 0.531334 q 0.116229,0 0.190948,-0.0747 0.07472,-0.0747 0.07472,-0.19095 z m 4.250671,10.62668 v -1.594 q 0,-0.11624 -0.07472,-0.19095 -0.07472,-0.0747 -0.190948,-0.0747 h -2.65667 q -0.116229,0 -0.190948,0.0747 -0.07472,0.0747 -0.07472,0.19095 v 1.594 q 0,0.11623 0.07472,0.19095 0.07472,0.0747 0.190948,0.0747 h 2.65667 q 0.116228,0 0.190948,-0.0747 0.07472,-0.0747 0.07472,-0.19095 z m 0,-4.25067 v -0.53134 q 0,-0.11623 -0.07472,-0.19095 -0.07472,-0.0747 -0.190948,-0.0747 h -0.531335 q -0.116229,0 -0.190947,0.0747 -0.07472,0.0747 -0.07472,0.19095 v 0.53134 q 0,0.11623 0.07472,0.19094 0.07472,0.0747 0.190947,0.0747 h 0.531335 q 0.116228,0 0.190948,-0.0747 0.07472,-0.0747 0.07472,-0.19094 z m 0,-2.12534 v -0.53133 q 0,-0.11623 -0.07472,-0.19095 -0.07472,-0.0747 -0.190948,-0.0747 h -0.531335 q -0.116229,0 -0.190947,0.0747 -0.07472,0.0747 -0.07472,0.19095 v 0.53133 q 0,0.11623 0.07472,0.19095 0.07472,0.0747 0.190947,0.0747 h 0.531335 q 0.116228,0 0.190948,-0.0747 0.07472,-0.0747 0.07472,-0.19095 z m 0,-2.12533 v -0.53134 q 0,-0.11623 -0.07472,-0.19094 -0.07472,-0.0747 -0.190948,-0.0747 h -0.531335 q -0.116229,0 -0.190947,0.0747 -0.07472,0.0747 -0.07472,0.19094 v 0.53134 q 0,0.11622 0.07472,0.19094 0.07472,0.0747 0.190947,0.0747 h 0.531335 q 0.116228,0 0.190948,-0.0747 0.07472,-0.0747 0.07472,-0.19094 z m 0,-2.12534 v -0.53134 q 0,-0.11623 -0.07472,-0.19095 -0.07472,-0.0747 -0.190948,-0.0747 h -0.531335 q -0.116229,0 -0.190947,0.0747 -0.07472,0.0747 -0.07472,0.19095 v 0.53134 q 0,0.11623 0.07472,0.19095 0.07472,0.0747 0.190947,0.0747 h 0.531335 q 0.116228,0 0.190948,-0.0747 0.07472,-0.0747 0.07472,-0.19095 z m 2.125336,8.50134 v -0.53133 q 0,-0.11623 -0.07472,-0.19095 -0.07472,-0.0747 -0.190949,-0.0747 h -0.531333 q -0.11623,0 -0.190949,0.0747 -0.07472,0.0747 -0.07472,0.19095 v 0.53133 q 0,0.11623 0.07472,0.19095 0.07472,0.0747 0.190949,0.0747 h 0.531333 q 0.116229,0 0.190949,-0.0747 0.07472,-0.0747 0.07472,-0.19095 z m 0,-2.12533 v -0.53134 q 0,-0.11623 -0.07472,-0.19095 -0.07472,-0.0747 -0.190949,-0.0747 h -0.531333 q -0.11623,0 -0.190949,0.0747 -0.07472,0.0747 -0.07472,0.19095 v 0.53134 q 0,0.11623 0.07472,0.19094 0.07472,0.0747 0.190949,0.0747 h 0.531333 q 0.116229,0 0.190949,-0.0747 0.07472,-0.0747 0.07472,-0.19094 z m 0,-2.12534 v -0.53133 q 0,-0.11623 -0.07472,-0.19095 -0.07472,-0.0747 -0.190949,-0.0747 h -0.531333 q -0.11623,0 -0.190949,0.0747 -0.07472,0.0747 -0.07472,0.19095 v 0.53133 q 0,0.11623 0.07472,0.19095 0.07472,0.0747 0.190949,0.0747 h 0.531333 q 0.116229,0 0.190949,-0.0747 0.07472,-0.0747 0.07472,-0.19095 z m 0,-2.12533 v -0.53134 q 0,-0.11623 -0.07472,-0.19094 -0.07472,-0.0747 -0.190949,-0.0747 h -0.531333 q -0.11623,0 -0.190949,0.0747 -0.07472,0.0747 -0.07472,0.19094 v 0.53134 q 0,0.11622 0.07472,0.19094 0.07472,0.0747 0.190949,0.0747 h 0.531333 q 0.116229,0 0.190949,-0.0747 0.07472,-0.0747 0.07472,-0.19094 z m 0,-2.12534 v -0.53134 q 0,-0.11623 -0.07472,-0.19095 -0.07472,-0.0747 -0.190949,-0.0747 h -0.531333 q -0.11623,0 -0.190949,0.0747 -0.07472,0.0747 -0.07472,0.19095 v 0.53134 q 0,0.11623 0.07472,0.19095 0.07472,0.0747 0.190949,0.0747 h 0.531333 q 0.116229,0 0.190949,-0.0747 0.07472,-0.0747 0.07472,-0.19095 z"
       inkscape:connector-curvature="0"
       style="fill:#db1e7b;fill-opacity:1;stroke-width:0.00830209" />
    <path
       id="path1124"
       d="m 80.71119,174.81145 q -1.384628,0.0427 -2.264978,1.09402 h -1.14531 q -0.700861,0 -1.1795,-0.34615 -0.478637,-0.34616 -0.478637,-1.01283 0,-3.01713 1.059839,-3.01713 0.05129,0 0.371798,0.17949 0.320517,0.1795 0.833343,0.36326 0.512824,0.18376 1.017104,0.18376 0.572654,0 1.136762,-0.19658 -0.04273,0.31624 -0.04273,0.56411 0,1.18804 0.692311,2.18805 z m 9.153936,5.4445 q 0,1.02565 -0.623935,1.61967 -0.623939,0.59402 -1.658137,0.59402 h -7.470159 q -1.034198,0 -1.658136,-0.59402 -0.623938,-0.59402 -0.623938,-1.61967 0,-0.453 0.02992,-0.88463 0.02992,-0.43163 0.119658,-0.93162 0.08975,-0.50001 0.226499,-0.92737 0.136753,-0.42735 0.367524,-0.83334 0.230774,-0.40599 0.529922,-0.69231 0.299147,-0.28633 0.730775,-0.45727 0.431629,-0.17094 0.953002,-0.17094 0.08547,0 0.367524,0.18376 0.282055,0.18376 0.623938,0.41026 0.341884,0.22649 0.91454,0.41026 0.572654,0.18376 1.153857,0.18376 0.581203,0 1.153857,-0.18376 0.572656,-0.18377 0.914539,-0.41026 0.341884,-0.2265 0.623938,-0.41026 0.282053,-0.18376 0.367525,-0.18376 0.521373,0 0.953002,0.17094 0.431626,0.17094 0.730775,0.45727 0.299148,0.28632 0.529919,0.69231 0.230773,0.40599 0.367526,0.83334 0.136754,0.42736 0.226497,0.92737 0.08975,0.49999 0.119661,0.93162 0.02991,0.43163 0.02991,0.88463 z m -8.752223,-10.91464 q 0,0.90599 -0.64103,1.54702 -0.641033,0.64103 -1.547024,0.64103 -0.905992,0 -1.547025,-0.64103 -0.64103,-0.64103 -0.64103,-1.54702 0,-0.90599 0.64103,-1.54703 0.641033,-0.64103 1.547025,-0.64103 0.905991,0 1.547024,0.64103 0.64103,0.64104 0.64103,1.54703 z m 6.017155,3.28209 q 0,1.35898 -0.96155,2.32053 -0.961547,0.96154 -2.320533,0.96154 -1.358989,0 -2.320537,-0.96154 -0.961547,-0.96155 -0.961547,-2.32053 0,-1.359 0.961547,-2.32054 0.961548,-0.96155 2.320537,-0.96155 1.358986,0 2.320533,0.96155 0.96155,0.96154 0.96155,2.32054 z m 4.923125,1.92309 q 0,0.66667 -0.478638,1.01283 -0.478636,0.34615 -1.179498,0.34615 h -1.145311 q -0.88035,-1.05129 -2.26498,-1.09402 0.692316,-1.00001 0.692316,-2.18805 0,-0.24787 -0.04274,-0.56411 0.564108,0.19658 1.136765,0.19658 0.504277,0 1.017104,-0.18376 0.512826,-0.18376 0.833343,-0.36326 0.320513,-0.17949 0.371795,-0.17949 1.059842,0 1.059842,3.01713 z m -1.094028,-5.20518 q 0,0.90599 -0.641031,1.54702 -0.641033,0.64103 -1.547024,0.64103 -0.905993,0 -1.547025,-0.64103 -0.641032,-0.64103 -0.641032,-1.54702 0,-0.90599 0.641032,-1.54703 0.641032,-0.64103 1.547025,-0.64103 0.905991,0 1.547024,0.64103 0.641031,0.64104 0.641031,1.54703 z"
       inkscape:connector-curvature="0"
       style="fill:#db1e7b;fill-opacity:1;stroke-width:0.00854709" />
    <text
       xml:space="preserve"
       style="font-style:normal;font-variant:normal;font-weight:300;font-stretch:normal;font-size:10.58333302px;line-height:6.61458349px;font-family:Roboto;-inkscape-font-specification:'Roboto Light';text-align:center;letter-spacing:0px;word-spacing:0px;text-anchor:middle;fill:#000000;fill-opacity:1;stroke:none;stroke-width:0.26458332px;stroke-linecap:butt;stroke-linejoin:miter;stroke-opacity:1"
       x="83.716545"
       y="189.7412"
       id="text16-6"><tspan
         sodipodi:role="line"
         x="84.319435"
         y="189.7412"
         style="font-style:normal;font-variant:normal;font-weight:300;font-stretch:normal;font-size:4.93888903px;line-height:3.54541659px;font-family:Roboto;-inkscape-font-specification:'Roboto Light';text-align:center;writing-mode:lr-tb;text-anchor:middle;fill:#ffffff;fill-opacity:1;stroke-width:0.26458332px"
         id="tspan1158">Workforce </tspan><tspan
         sodipodi:role="line"
         x="83.716545"
         y="196.35577"
         style="font-style:normal;font-variant:normal;font-weight:300;font-stretch:normal;font-size:4.93888903px;line-height:3.54541659px;font-family:Roboto;-inkscape-font-specification:'Roboto Light';text-align:center;writing-mode:lr-tb;text-anchor:middle;fill:#ffffff;fill-opacity:1;stroke-width:0.26458332px"
         id="tspan1584">Management</tspan></text>
    <path
       id="path1208"
       d="m 42.530909,205.8923 q 0,-0.52785 -0.373478,-0.90132 -0.373481,-0.37349 -0.901332,-0.37349 -0.52785,0 -0.90133,0.37349 -0.373478,0.37347 -0.373478,0.90132 0,0.52786 0.373478,0.90134 0.37348,0.37347 0.90133,0.37347 0.527851,0 0.901332,-0.37347 0.373478,-0.37348 0.373478,-0.90134 z m 1.912218,-4.46183 q 0,-0.52785 -0.373481,-0.90133 -0.37348,-0.37348 -0.901331,-0.37348 -0.527851,0 -0.901331,0.37348 -0.373478,0.37348 -0.373478,0.90133 0,0.52785 0.373478,0.90133 0.37348,0.37348 0.901331,0.37348 0.527851,0 0.901331,-0.37348 0.373481,-0.37348 0.373481,-0.90133 z m 4.262645,4.7905 1.005905,-3.80451 q 0.05976,-0.25894 -0.07469,-0.48304 -0.134453,-0.22409 -0.383439,-0.2938 -0.248986,-0.0697 -0.478052,0.0647 -0.22907,0.13445 -0.298785,0.3934 l -1.005906,3.80452 q -0.597566,0.0498 -1.06566,0.43323 -0.468096,0.38344 -0.627447,0.98101 -0.199188,0.76688 0.199188,1.45408 0.398381,0.6872 1.165257,0.88639 0.766878,0.19919 1.454082,-0.19919 0.687201,-0.39838 0.886392,-1.16525 0.15935,-0.59757 -0.05976,-1.16526 -0.21911,-0.56769 -0.717081,-0.90631 z m 6.573241,-0.32867 q 0,-0.52785 -0.373478,-0.90132 -0.373481,-0.37349 -0.901332,-0.37349 -0.527853,0 -0.901331,0.37349 -0.373479,0.37347 -0.373479,0.90132 0,0.52786 0.373479,0.90134 0.373478,0.37347 0.901331,0.37347 0.527851,0 0.901332,-0.37347 0.373478,-0.37348 0.373478,-0.90134 z m -6.37405,-6.37405 q 0,-0.52785 -0.373482,-0.90133 -0.37348,-0.37347 -0.90133,-0.37347 -0.527851,0 -0.901331,0.37347 -0.373479,0.37348 -0.373479,0.90133 0,0.52786 0.373479,0.90134 0.37348,0.37347 0.901331,0.37347 0.52785,0 0.90133,-0.37347 0.373482,-0.37348 0.373482,-0.90134 z m 4.461835,1.91222 q 0,-0.52785 -0.37348,-0.90133 -0.373478,-0.37348 -0.901329,-0.37348 -0.527853,0 -0.901332,0.37348 -0.37348,0.37348 -0.37348,0.90133 0,0.52785 0.37348,0.90133 0.373479,0.37348 0.901332,0.37348 0.527851,0 0.901329,-0.37348 0.37348,-0.37348 0.37348,-0.90133 z m 3.187026,4.46183 q 0,2.59942 -1.404284,4.81042 -0.189229,0.28883 -0.537811,0.28883 H 40.648573 q -0.348581,0 -0.53781,-0.28883 -1.404284,-2.20103 -1.404284,-4.81042 0,-1.81262 0.707122,-3.46589 0.707121,-1.65327 1.902256,-2.84839 1.195134,-1.19514 2.848404,-1.90226 1.653268,-0.70713 3.46589,-0.70713 1.812621,0 3.465891,0.70713 1.65327,0.70712 2.848404,1.90226 1.195136,1.19512 1.902257,2.84839 0.707121,1.65327 0.707121,3.46589 z"
       inkscape:connector-curvature="0"
       style="fill:#db1e7b;fill-opacity:1;stroke-width:0.00995946" />
    <text
       xml:space="preserve"
       style="font-style:normal;font-variant:normal;font-weight:300;font-stretch:normal;font-size:10.58333302px;line-height:6.61458349px;font-family:Roboto;-inkscape-font-specification:'Roboto Light';letter-spacing:0px;word-spacing:0px;fill:#000000;fill-opacity:1;stroke:none;stroke-width:0.26458332px;stroke-linecap:butt;stroke-linejoin:miter;stroke-opacity:1"
       x="32.379406"
       y="218.42442"
       id="text16-6-5"><tspan
         sodipodi:role="line"
         x="32.379406"
         y="218.42442"
         style="font-style:normal;font-variant:normal;font-weight:300;font-stretch:normal;font-size:4.93888903px;line-height:3.54541659px;font-family:Roboto;-inkscape-font-specification:'Roboto Light';writing-mode:lr-tb;fill:#ffffff;fill-opacity:1;stroke-width:0.26458332px"
         id="tspan1158-9">Telemetry/IoT</tspan></text>
    <g
       style="fill:#ffffff"
       id="g10"
       transform="matrix(0.06651514,0,0,-0.06651514,165.6041,244.87127)">
      <g
         id="g12"
         transform="scale(0.1)"
         style="fill:#ffffff">
        <path
           d="m 6409.46,919.234 2.25,-1.3 v 169.906 l -983.16,567.63 -542.14,313 -733.94,-423.84 c -141.19,-81.49 -240.08,-83.61 -387.6,1.69 l -61.44,35.5 -264.03,152.41 V 541.328 l 122.49,-70.703 59.88,-34.594 c 255.76,-147.734 427.13,-144.008 671.81,-2.683 L 5566.8,1168.41 6406.69,714.004 Z m -3288.17,998.626 -217.87,125.73 -46.77,27.02 -46.76,26.98 c -205.14,118.46 -264.24,195.7 -264.24,426.7 v 435.09 646.78 c 0,190.91 50.87,306.38 224.84,407.09 l 75.04,43.61 3.29,1.85 6.02,3.51 6.1,3.47 3.03,1.77 8.97,5.2 6.01,3.5 242.34,140.03 V 5421.9 c -140.07,-80.44 -279.83,-161.37 -419.56,-242.42 l -0.99,-0.56 -1.64,-0.96 -368.9,-214.49 -8.7,-5.02 C 2180.34,4876.35 2039.28,4794.21 1898,4712.38 1596.38,4537.63 1508.36,4337.6 1508.36,4006.71 l -0.09,-1121.1 v -754.16 c 0,-400.38 102.32,-534.34 457.96,-739.66 l 546.95,-315.82 88.41,-51 88.41,-51.009 v -0.043 0 L 3004.17,792.586 3121.29,725 Z m 318.11,2482.26 218.96,126.56 4.93,2.86 2.08,1.17 71.14,40.22 c 173.71,97.94 311.01,81.23 466.97,-11.61 314.21,-186.87 632.88,-366.25 949.86,-548.49 163.5,-93.96 221.04,-184.75 221.04,-382.41 v -646.7 -173.62 l 1037.33,-598.89 v 357.55 357.51 1121.11 c 0,342.57 -99.72,500.05 -383.06,662.89 -549.45,315.94 -1101.88,626.73 -1646.52,950.69 -270.53,160.98 -508.41,189.86 -809.55,20.09 l -73.95,-41.78 -3.11,-1.82 -1.48,-0.78 -54.64,-30.96 V 4400.12"
           style="fill:#ffffff;fill-opacity:1;fill-rule:evenodd;stroke:none"
           id="path14"
           inkscape:connector-curvature="0" />
        <path
           d="m 3121.31,3000.37 v -258.04 c -0.02,-136.97 34.98,-182.79 156.66,-253.04 l 187.11,-107.99 379.25,-218.95 c 87.47,-50.53 146.08,-49.27 229.79,-0.91 l 568.89,328.45 1768.72,-1021.18 v 359.63 l -1612.99,931.26 -0.02,253.95 v 383.54 c 0,117.2 -34.07,171.03 -131.03,226.79 -187.95,108.09 -376.95,214.43 -563.28,325.26 -92.53,55.03 -173.96,64.94 -276.92,6.84 -192.04,-108.31 -382.11,-220.13 -572.92,-330.68 -103.16,-59.78 -133.26,-128.25 -133.28,-241.44 l 0.02,-383.49"
           style="fill:#ffffff;fill-opacity:1;fill-rule:evenodd;stroke:none"
           id="path16"
           inkscape:connector-curvature="0" />
      </g>
    </g>
    <path
       id="path1467"
       d="m 309.11867,178.60794 q 0,-0.89663 -0.63442,-1.53105 -0.6344,-0.63441 -1.53105,-0.63441 -0.89664,0 -1.53105,0.63441 -0.63441,0.63442 -0.63441,1.53105 0,0.89664 0.63441,1.53106 0.63441,0.63441 1.53105,0.63441 0.89665,0 1.53105,-0.63441 0.63442,-0.63442 0.63442,-1.53106 z m 6.49641,4.33094 q 0,-0.43986 -0.32144,-0.7613 -0.32144,-0.32143 -0.76131,-0.32143 -0.43985,0 -0.76129,0.32143 -0.32144,0.32144 -0.32144,0.7613 0,0.44832 0.31721,0.76553 0.31722,0.3172 0.76552,0.3172 0.44833,0 0.76554,-0.3172 0.31721,-0.31721 0.31721,-0.76553 z m 0,-8.66187 q 0,-0.43986 -0.32144,-0.76129 -0.32144,-0.32145 -0.76131,-0.32145 -0.43985,0 -0.76129,0.32145 -0.32144,0.32143 -0.32144,0.76129 0,0.44832 0.31721,0.76553 0.31722,0.31721 0.76552,0.31721 0.44833,0 0.76554,-0.31721 0.31721,-0.31721 0.31721,-0.76553 z m -3.24821,3.56118 v 1.56489 q 0,0.0846 -0.0592,0.16494 -0.0592,0.0804 -0.13534,0.0889 l -1.31112,0.20301 q -0.0931,0.29607 -0.27069,0.64287 0.2876,0.40603 0.7613,0.97278 0.0592,0.0846 0.0592,0.16917 0,0.10151 -0.0592,0.16072 -0.19456,0.25377 -0.69786,0.75707 -0.50329,0.5033 -0.66402,0.5033 -0.0931,0 -0.17763,-0.0592 l -0.97277,-0.7613 q -0.31298,0.16073 -0.65134,0.26224 -0.093,0.91355 -0.19455,1.31112 -0.0592,0.20301 -0.25376,0.20301 h -1.57336 q -0.093,0 -0.16917,-0.0634 -0.0761,-0.0635 -0.0846,-0.14803 l -0.19455,-1.2942 q -0.2876,-0.0846 -0.63442,-0.26222 l -0.99815,0.75283 q -0.0592,0.0592 -0.16917,0.0592 -0.0931,0 -0.17763,-0.0677 -1.21808,-1.12502 -1.21808,-1.35341 0,-0.0761 0.0592,-0.16072 0.0846,-0.11842 0.34682,-0.44832 0.26222,-0.3299 0.39755,-0.516 -0.19454,-0.37218 -0.29605,-0.69362 l -1.28575,-0.20301 q -0.0846,-0.008 -0.1438,-0.0803 -0.0592,-0.0719 -0.0592,-0.16495 v -1.5649 q 0,-0.0846 0.0592,-0.16494 0.0592,-0.0804 0.13534,-0.0889 l 1.31112,-0.20301 q 0.0931,-0.29605 0.27069,-0.64287 -0.2876,-0.40603 -0.7613,-0.97276 -0.0592,-0.0931 -0.0592,-0.16919 0,-0.1015 0.0592,-0.16917 0.1861,-0.25377 0.69363,-0.75284 0.50753,-0.49907 0.66825,-0.49907 0.0931,0 0.17763,0.0592 l 0.97277,0.7613 q 0.2876,-0.15226 0.65134,-0.27068 0.0931,-0.91357 0.19455,-1.30267 0.0592,-0.20302 0.25376,-0.20302 h 1.57336 q 0.0931,0 0.16917,0.0634 0.0761,0.0635 0.0846,0.14803 l 0.19455,1.29421 q 0.2876,0.0846 0.63442,0.26222 l 0.99814,-0.75284 q 0.0677,-0.0592 0.16918,-0.0592 0.0931,0 0.17764,0.0677 1.21808,1.12503 1.21808,1.35341 0,0.0761 -0.0592,0.16072 -0.1015,0.13535 -0.35527,0.45678 -0.25376,0.32144 -0.38065,0.50754 0.19456,0.40602 0.2876,0.69363 l 1.28575,0.19455 q 0.0846,0.0169 0.1438,0.0888 0.0592,0.072 0.0592,0.16494 z m 5.41367,4.50857 v 1.18424 q 0,0.13534 -1.26037,0.26223 -0.1015,0.22838 -0.25376,0.43986 0.4314,0.95585 0.4314,1.16732 0,0.0338 -0.0338,0.0592 -1.03198,0.60058 -1.04889,0.60058 -0.0677,0 -0.38911,-0.39757 -0.32144,-0.39756 -0.43986,-0.5752 -0.16918,0.0169 -0.25378,0.0169 -0.0846,0 -0.25376,-0.0169 -0.11842,0.17764 -0.43986,0.5752 -0.32144,0.39757 -0.38911,0.39757 -0.0169,0 -1.0489,-0.60058 -0.0338,-0.0254 -0.0338,-0.0592 0,-0.21147 0.4314,-1.16732 -0.15226,-0.21148 -0.25377,-0.43986 -1.26037,-0.12689 -1.26037,-0.26223 v -1.18424 q 0,-0.13534 1.26037,-0.26222 0.10997,-0.24531 0.25377,-0.43986 -0.4314,-0.95586 -0.4314,-1.16733 0,-0.0338 0.0338,-0.0592 0.0338,-0.0169 0.29607,-0.16918 0.26222,-0.15226 0.49907,-0.28759 0.23685,-0.13535 0.25376,-0.13535 0.0677,0 0.38911,0.39334 0.32144,0.39334 0.43986,0.57097 0.16918,-0.0169 0.25376,-0.0169 0.0846,0 0.25378,0.0169 0.4314,-0.60058 0.77821,-0.94739 l 0.0508,-0.0169 q 0.0338,0 1.04889,0.59211 0.0338,0.0254 0.0338,0.0592 0,0.21147 -0.4314,1.16732 0.1438,0.19455 0.25376,0.43986 1.26037,0.12689 1.26037,0.26222 z m 0,-8.66187 v 1.18424 q 0,0.13534 -1.26037,0.26223 -0.1015,0.22839 -0.25376,0.43985 0.4314,0.95586 0.4314,1.16733 0,0.0338 -0.0338,0.0592 -1.03198,0.60058 -1.04889,0.60058 -0.0677,0 -0.38911,-0.39757 -0.32144,-0.39756 -0.43986,-0.5752 -0.16918,0.0169 -0.25378,0.0169 -0.0846,0 -0.25376,-0.0169 -0.11842,0.17764 -0.43986,0.5752 -0.32144,0.39757 -0.38911,0.39757 -0.0169,0 -1.0489,-0.60058 -0.0338,-0.0254 -0.0338,-0.0592 0,-0.21147 0.4314,-1.16733 -0.15226,-0.21146 -0.25377,-0.43985 -1.26037,-0.12689 -1.26037,-0.26223 v -1.18424 q 0,-0.13534 1.26037,-0.26223 0.10997,-0.2453 0.25377,-0.43986 -0.4314,-0.95585 -0.4314,-1.16732 0,-0.0338 0.0338,-0.0592 0.0338,-0.0169 0.29607,-0.16918 0.26222,-0.15225 0.49907,-0.2876 0.23685,-0.13534 0.25376,-0.13534 0.0677,0 0.38911,0.39333 0.32144,0.39334 0.43986,0.57098 0.16918,-0.0169 0.25376,-0.0169 0.0846,0 0.25378,0.0169 0.4314,-0.60058 0.77821,-0.9474 l 0.0508,-0.0169 q 0.0338,0 1.04889,0.59212 0.0338,0.0254 0.0338,0.0592 0,0.21146 -0.4314,1.16731 0.1438,0.19456 0.25376,0.43986 1.26037,0.12688 1.26037,0.26223 z"
       inkscape:connector-curvature="0"
       style="fill:#db1e7b;fill-opacity:1;stroke-width:0.00845886" />
    <text
       xml:space="preserve"
       style="font-style:normal;font-variant:normal;font-weight:300;font-stretch:normal;font-size:10.58333302px;line-height:6.61458349px;font-family:Roboto;-inkscape-font-specification:'Roboto Light';text-align:center;letter-spacing:0px;word-spacing:0px;text-anchor:middle;fill:#000000;fill-opacity:1;stroke:none;stroke-width:0.26458332px;stroke-linecap:butt;stroke-linejoin:miter;stroke-opacity:1"
       x="328.52621"
       y="232.80583"
       id="text16-41"><tspan
         sodipodi:role="line"
         x="328.52621"
         y="232.80583"
         style="font-style:normal;font-variant:normal;font-weight:300;font-stretch:normal;font-size:4.93888903px;line-height:3.54541659px;font-family:Roboto;-inkscape-font-specification:'Roboto Light';text-align:center;writing-mode:lr-tb;text-anchor:middle;fill:#ffffff;fill-opacity:1;stroke-width:0.26458332px"
         id="tspan823-4">Schedule</tspan><tspan
         sodipodi:role="line"
         x="328.52621"
         y="239.42041"
         style="font-style:normal;font-variant:normal;font-weight:300;font-stretch:normal;font-size:4.93888903px;line-height:3.54541659px;font-family:Roboto;-inkscape-font-specification:'Roboto Light';text-align:center;writing-mode:lr-tb;text-anchor:middle;fill:#ffffff;fill-opacity:1;stroke-width:0.26458332px"
         id="tspan1582">Maintenance</tspan></text>
    <path
       id="path1553"
       d="m 321.88357,224.332 h 2.76924 v -2.76923 h -2.76924 z m 3.38463,0 h 3.07693 v -2.76923 h -3.07693 z m -3.38463,-3.38462 h 2.76924 v -3.07692 h -2.76924 z m 3.38463,0 h 3.07693 v -3.07692 h -3.07693 z m -3.38463,-3.6923 h 2.76924 v -2.76923 h -2.76924 z m 7.07692,7.07692 h 3.07693 v -2.76923 h -3.07693 z m -3.69229,-7.07692 h 3.07693 v -2.76923 h -3.07693 z m 7.38461,7.07692 h 2.76924 v -2.76923 h -2.76924 z m -3.69232,-3.38462 h 3.07693 v -3.07692 h -3.07693 z m -3.3846,-8.30769 v -2.76923 q 0,-0.125 -0.0914,-0.21634 -0.0913,-0.0914 -0.21633,-0.0914 h -0.61539 q -0.125,0 -0.21635,0.0914 -0.0913,0.0913 -0.0913,0.21634 v 2.76923 q 0,0.125 0.0913,0.21635 0.0914,0.0913 0.21635,0.0913 h 0.61539 q 0.125,0 0.21633,-0.0913 0.0914,-0.0914 0.0914,-0.21635 z m 7.07692,8.30769 h 2.76924 v -3.07692 h -2.76924 z m -3.69232,-3.6923 h 3.07693 v -2.76923 h -3.07693 z m 3.69232,0 h 2.76924 v -2.76923 h -2.76924 z m 0.30769,-4.61539 v -2.76923 q 0,-0.125 -0.0913,-0.21634 -0.0913,-0.0914 -0.21635,-0.0914 h -0.61539 q -0.125,0 -0.21634,0.0914 -0.0914,0.0913 -0.0914,0.21634 v 2.76923 q 0,0.125 0.0914,0.21635 0.0913,0.0913 0.21634,0.0913 h 0.61539 q 0.125,0 0.21635,-0.0913 0.0913,-0.0914 0.0913,-0.21635 z m 3.69231,-0.61539 v 12.3077 q 0,0.5 -0.36538,0.86539 -0.36539,0.36537 -0.86538,0.36537 h -13.53848 q -0.49999,0 -0.86538,-0.36537 -0.36538,-0.36539 -0.36538,-0.86539 v -12.3077 q 0,-0.49999 0.36538,-0.86538 0.36539,-0.36538 0.86538,-0.36538 h 1.23078 v -0.92308 q 0,-0.63462 0.45193,-1.08654 0.45192,-0.45192 1.08653,-0.45192 h 0.61539 q 0.63462,0 1.08653,0.45192 0.45193,0.45192 0.45193,1.08654 v 0.92308 h 3.6923 v -0.92308 q 0,-0.63462 0.45193,-1.08654 0.45191,-0.45192 1.08653,-0.45192 h 0.61539 q 0.63461,0 1.08653,0.45192 0.45193,0.45192 0.45193,1.08654 v 0.92308 h 1.23078 q 0.49999,0 0.86538,0.36538 0.36538,0.36539 0.36538,0.86538 z"
       inkscape:connector-curvature="0"
       style="fill:#db1e7b;fill-opacity:1;stroke-width:0.00961539" />
    <text
       xml:space="preserve"
       style="font-style:normal;font-variant:normal;font-weight:300;font-stretch:normal;font-size:10.58333302px;line-height:6.61458349px;font-family:Roboto;-inkscape-font-specification:'Roboto Light';letter-spacing:0px;word-spacing:0px;fill:#000000;fill-opacity:1;stroke:none;stroke-width:0.26458332px;stroke-linecap:butt;stroke-linejoin:miter;stroke-opacity:1"
       x="292.89966"
       y="194.91258"
       id="text16-41-1"><tspan
         sodipodi:role="line"
         x="292.89966"
         y="194.91258"
         style="font-style:normal;font-variant:normal;font-weight:300;font-stretch:normal;font-size:4.93888903px;line-height:3.54541659px;font-family:Roboto;-inkscape-font-specification:'Roboto Light';writing-mode:lr-tb;fill:#ffffff;fill-opacity:1;stroke-width:0.26458332px"
         id="tspan823-4-5">Predict Failures</tspan></text>
    <text
       xml:space="preserve"
       style="font-style:normal;font-weight:normal;font-size:10.58333302px;line-height:6.61458302px;font-family:sans-serif;letter-spacing:0px;word-spacing:0px;fill:#000000;fill-opacity:1;stroke:none;stroke-width:0.26458332px;stroke-linecap:butt;stroke-linejoin:miter;stroke-opacity:1"
       x="78.844505"
       y="158.95282"
       id="text1588"><tspan
         sodipodi:role="line"
         id="tspan1586"
         x="78.844505"
         y="165.00929"
         style="stroke-width:0.26458332px"></tspan></text>
    <text
       xml:space="preserve"
       style="font-style:normal;font-variant:normal;font-weight:300;font-stretch:normal;font-size:10.58333302px;line-height:6.61458349px;font-family:Roboto;-inkscape-font-specification:'Roboto Light';text-align:start;letter-spacing:0px;word-spacing:0px;text-anchor:start;fill:#000000;fill-opacity:1;stroke:none;stroke-width:0.26458332px;stroke-linecap:butt;stroke-linejoin:miter;stroke-opacity:1"
       x="62.41983"
       y="236.75694"
       id="text16-7-5"><tspan
         sodipodi:role="line"
         x="63.022724"
         y="236.75694"
         style="font-style:normal;font-variant:normal;font-weight:300;font-stretch:normal;font-size:4.93888903px;line-height:0px;font-family:Roboto;-inkscape-font-specification:'Roboto Light';text-align:center;writing-mode:lr-tb;text-anchor:middle;fill:#ffffff;fill-opacity:1;stroke-width:0.26458332px"
         id="tspan5422">...and captures data from </tspan><tspan
         sodipodi:role="line"
         x="62.41983"
         y="243.37152"
         style="font-style:normal;font-variant:normal;font-weight:300;font-stretch:normal;font-size:4.93888903px;line-height:0px;font-family:Roboto;-inkscape-font-specification:'Roboto Light';text-align:center;writing-mode:lr-tb;text-anchor:middle;fill:#ffffff;fill-opacity:1;stroke-width:0.26458332px"
         id="tspan5619">our mobile app.</tspan></text>
    <text
       xml:space="preserve"
       style="font-style:normal;font-variant:normal;font-weight:300;font-stretch:normal;font-size:10.58333302px;line-height:6.61458349px;font-family:Roboto;-inkscape-font-specification:'Roboto Light';text-align:start;letter-spacing:0px;word-spacing:0px;text-anchor:start;fill:#000000;fill-opacity:1;stroke:none;stroke-width:0.26458332px;stroke-linecap:butt;stroke-linejoin:miter;stroke-opacity:1"
       x="191.64136"
       y="175.51183"
       id="text16-7-5-9"><tspan
         sodipodi:role="line"
         x="192.24425"
         y="175.51183"
         style="font-style:normal;font-variant:normal;font-weight:300;font-stretch:normal;font-size:4.93888903px;line-height:0px;font-family:Roboto;-inkscape-font-specification:'Roboto Light';text-align:center;writing-mode:lr-tb;text-anchor:middle;fill:#ffffff;fill-opacity:1;stroke-width:0.26458332px"
         id="tspan5483">Quartic collates all </tspan><tspan
         sodipodi:role="line"
         x="192.24425"
         y="182.1264"
         style="font-style:normal;font-variant:normal;font-weight:300;font-stretch:normal;font-size:4.93888903px;line-height:0px;font-family:Roboto;-inkscape-font-specification:'Roboto Light';text-align:center;writing-mode:lr-tb;text-anchor:middle;fill:#ffffff;fill-opacity:1;stroke-width:0.26458332px"
         id="tspan5626">of your data and applies </tspan><tspan
         sodipodi:role="line"
         x="191.64136"
         y="188.741"
         style="font-style:normal;font-variant:normal;font-weight:300;font-stretch:normal;font-size:4.93888903px;line-height:0px;font-family:Roboto;-inkscape-font-specification:'Roboto Light';text-align:center;writing-mode:lr-tb;text-anchor:middle;fill:#ffffff;fill-opacity:1;stroke-width:0.26458332px"
         id="tspan5632">machine learning algorithms...</tspan></text>
    <path
       id="path5388"
       d="m 64.390588,277.2049 q 0,-0.62797 -0.447194,-1.07516 -0.447195,-0.44719 -1.075165,-0.44719 -0.62797,0 -1.075165,0.44719 -0.447193,0.44719 -0.447193,1.07516 0,0.62798 0.447193,1.07516 0.447195,0.4472 1.075165,0.4472 0.62797,0 1.075165,-0.4472 0.447194,-0.44718 0.447194,-1.07516 z m 3.958125,-3.04471 v -13.39675 q 0,-0.24738 -0.180776,-0.42815 -0.180777,-0.18079 -0.428163,-0.18079 h -9.74309 q -0.247376,0 -0.428162,0.18079 -0.180777,0.18077 -0.180777,0.42815 v 13.39675 q 0,0.24738 0.180777,0.42817 0.180786,0.18077 0.428162,0.18077 h 9.74309 q 0.247386,0 0.428163,-0.18077 0.180776,-0.18079 0.180776,-0.42817 z m -3.653656,-16.13698 q 0,-0.30447 -0.304469,-0.30447 h -3.044717 q -0.30447,0 -0.30447,0.30447 0,0.30447 0.30447,0.30447 h 3.044717 q 0.304469,0 0.304469,-0.30447 z m 5.480484,-0.30447 v 19.48616 q 0,0.98953 -0.723116,1.71265 -0.723128,0.72312 -1.712651,0.72312 h -9.74309 q -0.989534,0 -1.712651,-0.72312 -0.723116,-0.72312 -0.723116,-1.71265 v -19.48616 q 0,-0.98954 0.723116,-1.71266 0.723117,-0.72312 1.712651,-0.72312 h 9.74309 q 0.989523,0 1.712651,0.72312 0.723116,0.72312 0.723116,1.71266 z"
       inkscape:connector-curvature="0"
       style="fill:#db1e7b;fill-opacity:1;stroke-width:0.01902946" />
    <text
       xml:space="preserve"
       style="font-style:normal;font-variant:normal;font-weight:300;font-stretch:normal;font-size:10.58333302px;line-height:6.61458349px;font-family:Roboto;-inkscape-font-specification:'Roboto Light';letter-spacing:0px;word-spacing:0px;fill:#000000;fill-opacity:1;stroke:none;stroke-width:0.26458332px;stroke-linecap:butt;stroke-linejoin:miter;stroke-opacity:1"
       x="62.517498"
       y="156.33524"
       id="text16-7-5-2"><tspan
         sodipodi:role="line"
         x="62.517498"
         y="156.33524"
         style="font-style:normal;font-variant:normal;font-weight:300;font-stretch:normal;font-size:4.93888903px;line-height:0px;font-family:Roboto;-inkscape-font-specification:'Roboto Light';text-align:center;writing-mode:lr-tb;text-anchor:middle;fill:#ffffff;fill-opacity:1;stroke-width:0.26458332px"
         id="tspan1612-7">Quartic monitors your existing data...</tspan></text>
    <rect
       style="fill:none;fill-opacity:1;stroke:#ffffff;stroke-width:0.373;stroke-linejoin:round;stroke-miterlimit:4;stroke-dasharray:none;stroke-opacity:1"
       id="rect1668-3"
       width="49.628098"
       height="49.628098"
       x="167.13005"
       y="199.7037"
       rx="5"
       ry="4.4451094" />
    <rect
       style="fill:none;fill-opacity:0;stroke:#ffffff;stroke-width:0.41522497;stroke-linejoin:round;stroke-miterlimit:4;stroke-dasharray:none;stroke-opacity:1"
       id="rect5469"
       width="35.634094"
       height="33.967812"
       x="45.051182"
       y="250.90877"
       rx="4.3169279"
       ry="5.0025115" />
    <rect
       style="fill:none;fill-opacity:0;stroke:#ffffff;stroke-width:0.51639873;stroke-linejoin:round;stroke-miterlimit:4;stroke-dasharray:none;stroke-opacity:1"
       id="rect5518"
       width="43.940598"
       height="30.612883"
       x="287.68976"
       y="167.88103"
       rx="5"
       ry="5" />
    <rect
       style="fill:none;fill-opacity:0;stroke:#ffffff;stroke-width:0.54016924;stroke-linejoin:round;stroke-miterlimit:4;stroke-dasharray:none;stroke-opacity:1"
       id="rect5522"
       width="39.353954"
       height="37.99398"
       x="308.97583"
       y="205.21613"
       rx="5"
       ry="5" />
    <path
       style="fill:none;fill-rule:evenodd;stroke:#ffffff;stroke-width:0.63700002;stroke-linecap:butt;stroke-linejoin:miter;stroke-miterlimit:4;stroke-dasharray:none;stroke-opacity:1"
       d="m 104.34042,184.46862 c 1.69705,-3.80245 4.53516,-7.08685 8.05131,-9.31739 3.51616,-2.23054 7.6968,-3.3986 11.8599,-3.31365 4.1631,0.085 8.29261,1.42261 11.71483,3.79475 3.42223,2.37213 6.12398,5.76958 7.66449,9.6381 2.22644,5.59103 1.99284,11.80217 2.47962,17.80047 0.24339,2.99915 0.68056,6.00656 1.69357,8.83992 1.013,2.83337 2.63333,5.50003 4.95251,7.4172 1.96746,1.62641 4.40854,2.67288 6.94309,2.97642 2.53456,0.30355 5.15371,-0.13688 7.44959,-1.25271"
       id="path5547"
       inkscape:connector-curvature="0"
       inkscape:path-effect="#path-effect5549"
       inkscape:original-d="m 104.34042,184.46862 c 12.59947,-2.7e-4 26.81758,0.80154 39.29053,0.80181 12.47295,2.6e-4 6.08407,22.70479 9.1257,34.05759 3.04164,11.35279 7.48147,-2.67303 14.39268,1.72371"
       sodipodi:nodetypes="cscc" />
    <path
       style="fill:none;fill-rule:evenodd;stroke:#ffffff;stroke-width:0.63700002;stroke-linecap:butt;stroke-linejoin:miter;stroke-miterlimit:4;stroke-dasharray:none;stroke-opacity:1"
       d="m 80.673377,268.79204 c 8.239381,5.80381 18.731626,8.31598 28.706083,6.87313 9.97446,-1.44286 19.3247,-6.82534 25.58165,-14.72611 3.79904,-4.79713 6.44834,-10.40383 10.05841,-15.34474 1.80504,-2.47045 3.86309,-4.78286 6.31092,-6.61846 2.44783,-1.83559 5.30554,-3.1832 8.33668,-3.5997 2.47575,-0.34018 5.03571,-0.0485 7.3715,0.83979"
       id="path5551"
       inkscape:connector-curvature="0"
       inkscape:path-effect="#path-effect5553"
       inkscape:original-d="m 80.673377,268.79204 c 18.765661,-4.00144 242.064923,141.67721 54.287733,-7.85298 -10.58972,-8.43278 21.93445,-28.83896 24.70601,-25.5629 2.77157,3.27606 -3.46356,0.83952 7.3715,0.83979"
       sodipodi:nodetypes="cscc" />
    <path
       style="fill:none;fill-rule:evenodd;stroke:#ffffff;stroke-width:0.63700002;stroke-linecap:butt;stroke-linejoin:miter;stroke-miterlimit:4;stroke-dasharray:none;stroke-opacity:1"
       d="m 216.62195,221.32932 c 12.09807,-0.94693 23.62359,-7.61959 30.46873,-17.63978 3.49982,-5.12317 5.78064,-10.9666 8.80348,-16.38491 1.51141,-2.70915 3.21912,-5.32576 5.30729,-7.61998 2.08816,-2.29422 4.57141,-4.26431 7.40443,-5.52839 3.09371,-1.3804 6.57214,-1.88602 9.93082,-1.44352 3.35868,0.44251 6.58746,1.83179 9.21807,3.96637"
       id="path5555"
       inkscape:connector-curvature="0"
       inkscape:path-effect="#path-effect5557"
       inkscape:original-d="m 216.62195,221.32932 c 9.71106,-2.94023 20.7582,-14.70008 30.46873,-17.63978 9.71053,-2.9397 16.43734,-21.78273 21.5152,-29.53328 5.07785,-7.75055 14.51649,3.94802 19.14889,2.52285"
       sodipodi:nodetypes="cssc" />
    <path
       style="fill:none;fill-rule:evenodd;stroke:#ffffff;stroke-width:0.63700002;stroke-linecap:butt;stroke-linejoin:miter;stroke-miterlimit:4;stroke-dasharray:none;stroke-opacity:1"
       d="m 216.66781,232.38187 c 3.17255,-0.8836 6.48702,-1.25549 9.7765,-1.09695 9.2593,0.44627 17.74385,4.97393 26.50025,8.01682 4.37821,1.52145 8.93161,2.69066 13.56595,2.77037 4.63434,0.0797 9.37998,-0.99374 13.18706,-3.63753 4.06071,-2.81992 6.75076,-7.1543 9.57713,-11.21052 1.41319,-2.02811 2.89406,-4.02276 4.6441,-5.76852 1.75004,-1.74577 3.78574,-3.24363 6.09124,-4.13524 2.82916,-1.09413 6.02038,-1.2268 8.9306,-0.37127"
       id="path5559"
       inkscape:connector-curvature="0"
       inkscape:path-effect="#path-effect5561"
       inkscape:original-d="m 216.66781,232.38187 c 3.92008,6.50343 16.98164,9.3377 9.7765,-1.09695 -8.06559,-11.6808 49.33344,0.64597 53.25326,7.14966 7.83964,13.00738 19.42184,-24.23269 20.31247,-21.11428 0.89064,3.11841 29.51062,10.76469 8.9306,-0.37127"
       sodipodi:nodetypes="csscc" />
    <text
       xml:space="preserve"
       style="font-style:normal;font-variant:normal;font-weight:300;font-stretch:normal;font-size:10.58333302px;line-height:6.61458349px;font-family:Roboto;-inkscape-font-specification:'Roboto Light';text-align:center;letter-spacing:0px;word-spacing:0px;text-anchor:middle;fill:#000000;fill-opacity:1;stroke:none;stroke-width:0.26458332px;stroke-linecap:butt;stroke-linejoin:miter;stroke-opacity:1"
       x="317.55234"
       y="281.27109"
       id="text16-41-9"><tspan
         sodipodi:role="line"
         x="317.55234"
         y="281.27109"
         style="font-style:normal;font-variant:normal;font-weight:300;font-stretch:normal;font-size:4.93888903px;line-height:3.54541659px;font-family:Roboto;-inkscape-font-specification:'Roboto Light';text-align:center;writing-mode:lr-tb;text-anchor:middle;fill:#ffffff;fill-opacity:1;stroke-width:0.26458332px"
         id="tspan1582-2">Update</tspan><tspan
         sodipodi:role="line"
         x="317.55234"
         y="287.88568"
         style="font-style:normal;font-variant:normal;font-weight:300;font-stretch:normal;font-size:4.93888903px;line-height:3.54541659px;font-family:Roboto;-inkscape-font-specification:'Roboto Light';text-align:center;writing-mode:lr-tb;text-anchor:middle;fill:#ffffff;fill-opacity:1;stroke-width:0.26458332px"
         id="tspan5663">Processes</tspan></text>
    <rect
       style="fill:none;fill-opacity:0;stroke:#ffffff;stroke-width:0.51943719;stroke-linejoin:round;stroke-miterlimit:4;stroke-dasharray:none;stroke-opacity:1"
       id="rect5522-8"
       width="34.876572"
       height="39.643845"
       x="300.20087"
       y="252.04399"
       rx="5"
       ry="5" />
    <g
       id="g5853"
       transform="matrix(0.22548597,0,0,0.22548597,306.36463,253.64311)"
       style="fill:#db1e7b;fill-opacity:1">
      <path
         id="path5839"
         d="m 80.761,17.26 h -0.019 c 10e-4,-0.049 0.015,-0.095 0.015,-0.145 0,-2.893 -2.346,-5.245 -5.241,-5.245 -0.04,0 -0.076,0.011 -0.116,0.012 H 60.842 v -3.402 0 -0.002 c 0,-0.881 -0.714,-1.593 -1.593,-1.595 V 6.875 H 40.8 v 0.006 c -0.015,0 -0.028,-0.004 -0.043,-0.004 -0.88,0 -1.594,0.713 -1.594,1.594 0,0.01 0.003,0.02 0.003,0.03 v 3.38 H 24.501 c -0.007,0 -0.013,-0.002 -0.02,-0.002 -2.893,0 -5.242,2.354 -5.242,5.243 0,0.047 0.013,0.09 0.014,0.137 h -0.014 v 70.572 h 0.003 c 0,0.009 -0.003,0.018 -0.003,0.027 0,2.895 2.35,5.238 5.243,5.238 0.078,0 0.151,-0.02 0.229,-0.023 v 0.021 h 50.5 c 0.098,0.005 0.191,0.029 0.29,0.029 2.894,0 5.239,-2.348 5.239,-5.238 0,-0.019 -0.005,-0.036 -0.005,-0.055 h 0.028 V 17.26 Z M 70.822,83.185 H 29.178 V 21.809 h 4.997 v 3.069 c -0.002,0.033 -0.01,0.063 -0.01,0.097 0,0.998 0.81,1.814 1.814,1.814 0.005,0 0.009,-0.001 0.014,-0.001 v 0.008 H 64.02 c 1.005,-0.002 1.813,-0.816 1.813,-1.813 0,-0.015 -0.004,-0.029 -0.004,-0.044 v -3.13 h 4.992 v 61.376 z"
         inkscape:connector-curvature="0"
         style="fill:#db1e7b;fill-opacity:1" />
      <path
         id="path5841"
         d="m 39.15,41.119 c 0,-0.658 -0.537,-1.195 -1.198,-1.195 -0.031,0 -0.058,0.015 -0.088,0.018 v -0.018 h -2.502 c -0.661,0 -1.199,0.539 -1.199,1.197 v 2.595 0 0.002 c 0,0.656 0.537,1.193 1.199,1.193 h 10e-4 2.502 v -0.018 c 0.03,0.002 0.056,0.018 0.086,0.018 0.663,0 1.2,-0.537 1.2,-1.193 v -0.002 0 -2.595 H 39.15 Z"
         inkscape:connector-curvature="0"
         style="fill:#db1e7b;fill-opacity:1" />
      <path
         id="path5843"
         d="m 65.831,41.119 c 0,-0.658 -0.537,-1.195 -1.198,-1.195 -10e-4,0 -10e-4,0 -0.002,0 H 45.337 c -0.661,0 -1.199,0.539 -1.199,1.197 v 2.595 0 0.002 c 0,0.656 0.537,1.193 1.199,1.193 h 10e-4 19.294 c 0.663,0 1.2,-0.537 1.2,-1.193 v -0.002 0 -2.595 h -10e-4 z"
         inkscape:connector-curvature="0"
         style="fill:#db1e7b;fill-opacity:1" />
      <path
         id="path5845"
         d="m 39.15,51.094 c 0,-0.658 -0.537,-1.195 -1.198,-1.195 -0.031,0 -0.058,0.015 -0.088,0.018 v -0.018 h -2.502 c -0.661,0 -1.199,0.539 -1.199,1.197 v 2.595 0 0.002 c 0,0.656 0.537,1.193 1.199,1.193 h 10e-4 2.502 v -0.018 c 0.03,0.002 0.056,0.018 0.086,0.018 0.663,0 1.2,-0.537 1.2,-1.193 v -0.002 0 -2.595 H 39.15 Z"
         inkscape:connector-curvature="0"
         style="fill:#db1e7b;fill-opacity:1" />
      <path
         id="path5847"
         d="m 65.831,51.094 c 0,-0.658 -0.537,-1.195 -1.198,-1.195 -10e-4,0 -10e-4,0 -0.002,0 H 45.337 c -0.661,0 -1.199,0.539 -1.199,1.197 v 2.595 0 0.002 c 0,0.656 0.537,1.193 1.199,1.193 h 10e-4 19.294 c 0.663,0 1.2,-0.537 1.2,-1.193 v -0.002 0 -2.595 h -10e-4 z"
         inkscape:connector-curvature="0"
         style="fill:#db1e7b;fill-opacity:1" />
      <path
         id="path5849"
         d="m 39.15,61.069 c 0,-0.658 -0.537,-1.195 -1.198,-1.195 -0.031,0 -0.058,0.015 -0.088,0.018 v -0.018 h -2.502 c -0.661,0 -1.199,0.539 -1.199,1.197 v 2.595 0 0.002 c 0,0.656 0.537,1.193 1.199,1.193 h 10e-4 2.502 v -0.018 c 0.03,0.002 0.056,0.018 0.086,0.018 0.663,0 1.2,-0.537 1.2,-1.193 v -0.002 0 -2.595 H 39.15 Z"
         inkscape:connector-curvature="0"
         style="fill:#db1e7b;fill-opacity:1" />
      <path
         id="path5851"
         d="m 65.831,61.069 c 0,-0.658 -0.537,-1.195 -1.198,-1.195 -10e-4,0 -10e-4,0 -0.002,0 H 45.337 c -0.661,0 -1.199,0.539 -1.199,1.197 v 2.595 0 0.002 c 0,0.656 0.537,1.193 1.199,1.193 h 10e-4 19.294 c 0.663,0 1.2,-0.537 1.2,-1.193 v -0.002 0 -2.595 h -10e-4 z"
         inkscape:connector-curvature="0"
         style="fill:#db1e7b;fill-opacity:1" />
    </g>
    <path
       style="fill:none;fill-rule:evenodd;stroke:#ffffff;stroke-width:0.63700002;stroke-linecap:butt;stroke-linejoin:miter;stroke-miterlimit:4;stroke-dasharray:none;stroke-opacity:1"
       d="m 216.69133,245.52323 c 3.00112,2.53837 5.93079,5.16122 8.78435,7.86441 4.6815,4.4348 9.22189,9.13556 14.76646,12.42823 5.52041,3.27833 11.83823,5.0273 18.19741,5.91229 6.35918,0.88498 12.80059,0.93865 19.2203,1.03673 7.52941,0.11503 15.05786,0.29322 22.58428,0.53453"
       id="path5559-0"
       inkscape:connector-curvature="0"
       inkscape:path-effect="#path-effect5561-9"
       inkscape:original-d="m 216.69133,245.52323 c 3.92008,6.50343 15.98949,18.29906 8.78435,7.86441 -8.06559,-11.6808 10.84664,5.92454 14.76646,12.42823 7.83964,13.00738 36.52708,3.83061 37.41771,6.94902 0.89064,3.11841 43.1643,11.67049 22.58428,0.53453"
       sodipodi:nodetypes="csscc" />
    <text
       xml:space="preserve"
       style="font-style:normal;font-variant:normal;font-weight:300;font-stretch:normal;font-size:10.58333302px;line-height:6.61458349px;font-family:Roboto;-inkscape-font-specification:'Roboto Light';text-align:start;letter-spacing:0px;word-spacing:0px;text-anchor:start;fill:#000000;fill-opacity:1;stroke:none;stroke-width:0.26458332px;stroke-linecap:butt;stroke-linejoin:miter;stroke-opacity:1"
       x="313.75333"
       y="156.33524"
       id="text16-7-5-9-2"><tspan
         sodipodi:role="line"
         x="313.75333"
         y="156.33524"
         style="font-style:normal;font-variant:normal;font-weight:300;font-stretch:normal;font-size:4.93888903px;line-height:0px;font-family:Roboto;-inkscape-font-specification:'Roboto Light';text-align:center;writing-mode:lr-tb;text-anchor:middle;fill:#ffffff;fill-opacity:1;stroke-width:0.26458332px"
         id="tspan5632-6">...and uses this knowledge to improve your</tspan><tspan
         sodipodi:role="line"
         x="313.75333"
         y="162.94981"
         style="font-style:normal;font-variant:normal;font-weight:300;font-stretch:normal;font-size:4.93888903px;line-height:0px;font-family:Roboto;-inkscape-font-specification:'Roboto Light';text-align:center;writing-mode:lr-tb;text-anchor:middle;fill:#ffffff;fill-opacity:1;stroke-width:0.26458332px"
         id="tspan5917">field operations.</tspan></text>
    <path
       style="fill:none;fill-rule:evenodd;stroke:#ffffff;stroke-width:0.63700002;stroke-linecap:butt;stroke-linejoin:miter;stroke-miterlimit:4;stroke-dasharray:0.63700002, 3.82200008;stroke-dashoffset:0;stroke-opacity:1"
       d="M 379.3185,101.40569 V 325.37766"
       id="path5571-3-4"
       inkscape:connector-curvature="0" />
    <path
       style="fill:none;fill-rule:evenodd;stroke:#ffffff;stroke-width:0.63700002;stroke-linecap:butt;stroke-linejoin:miter;stroke-miterlimit:4;stroke-dasharray:0.63700001, 3.82200004;stroke-dashoffset:0;stroke-opacity:1"
       d="M -1.6815,97.247949 V 321.21992"
       id="path5571-38"
       inkscape:connector-curvature="0" />
  </g>
</svg>
