<?xml version="1.0" encoding="UTF-8" standalone="no"?>
<!-- Created with Inkscape (http://www.inkscape.org/) -->

<svg
   xmlns:dc="http://purl.org/dc/elements/1.1/"
   xmlns:cc="http://creativecommons.org/ns#"
   xmlns:rdf="http://www.w3.org/1999/02/22-rdf-syntax-ns#"
   xmlns:svg="http://www.w3.org/2000/svg"
   xmlns="http://www.w3.org/2000/svg"
   xmlns:sodipodi="http://sodipodi.sourceforge.net/DTD/sodipodi-0.dtd"
   xmlns:inkscape="http://www.inkscape.org/namespaces/inkscape"
   width="277mm"
   height="210mm"
   viewBox="0 0 277 210"
   version="1.1"
   id="svg8"
   inkscape:version="0.92.1 r"
   sodipodi:docname="drawing.svg">
  <defs
     id="defs2" />
  <sodipodi:namedview
     id="base"
     pagecolor="#333333"
     bordercolor="#666666"
     borderopacity="1.0"
     inkscape:pageopacity="0"
     inkscape:pageshadow="2"
     inkscape:zoom="0.98994949"
     inkscape:cx="520.78624"
     inkscape:cy="446.3258"
     inkscape:document-units="mm"
     inkscape:current-layer="layer1"
     showgrid="false"
     width="296mm"
     inkscape:window-width="2560"
     inkscape:window-height="1080"
     inkscape:window-x="0"
     inkscape:window-y="0"
     inkscape:window-maximized="0" />
  <metadata
     id="metadata5">
    <rdf:RDF>
      <cc:Work
         rdf:about="">
        <dc:format>image/svg+xml</dc:format>
        <dc:type
           rdf:resource="http://purl.org/dc/dcmitype/StillImage" />
        <dc:title></dc:title>
      </cc:Work>
    </rdf:RDF>
  </metadata>
  <g
     inkscape:label="Layer 1"
     inkscape:groupmode="layer"
     id="layer1"
     transform="translate(0,-87)">
    <rect
       style="fill:none;fill-opacity:1;stroke:#ffffff;stroke-width:0.65674263;stroke-linejoin:round;stroke-miterlimit:4;stroke-dasharray:none;stroke-opacity:1"
       id="rect1668"
       width="61.261387"
       height="125.37136"
       x="7.4635754"
       y="111.41296"
       rx="3.2435665"
       ry="2.7062435" />
    <text
       xml:space="preserve"
       style="font-style:normal;font-weight:normal;font-size:10.58333302px;line-height:6.61458302px;font-family:sans-serif;letter-spacing:0px;word-spacing:0px;fill:#000000;fill-opacity:1;stroke:none;stroke-width:0.26458332px;stroke-linecap:butt;stroke-linejoin:miter;stroke-opacity:1"
       x="13.316105"
       y="164.50491"
       id="text16"><tspan
         sodipodi:role="line"
         x="13.316105"
         y="164.50491"
         style="font-size:6.3499999px;line-height:3.54541659px;writing-mode:lr-tb;fill:#ffffff;fill-opacity:1;stroke-width:0.26458332px"
         id="tspan823">Asset Registers</tspan></text>
    <text
       xml:space="preserve"
       style="font-style:normal;font-weight:normal;font-size:10.58333302px;line-height:6.61458349px;font-family:sans-serif;letter-spacing:0px;word-spacing:0px;fill:#000000;fill-opacity:1;stroke:none;stroke-width:0.26458332px;stroke-linecap:butt;stroke-linejoin:miter;stroke-opacity:1"
       x="11.178359"
       y="103.85272"
       id="text16-7"><tspan
         sodipodi:role="line"
         x="11.178359"
         y="103.85272"
         style="line-height:10.58333302px;writing-mode:lr-tb;fill:#ffffff;fill-opacity:1;stroke-width:0.26458332px"
         id="tspan823-7">1. Observe</tspan></text>
    <text
       xml:space="preserve"
       style="font-style:normal;font-weight:normal;font-size:10.58333302px;line-height:6.61458302px;font-family:sans-serif;letter-spacing:0px;word-spacing:0px;fill:#000000;fill-opacity:1;stroke:none;stroke-width:0.26458332px;stroke-linecap:butt;stroke-linejoin:miter;stroke-opacity:1"
       x="113.85682"
       y="99.755096"
       id="text873"><tspan
         sodipodi:role="line"
         id="tspan871"
         x="113.85682"
         y="105.81158"
         style="stroke-width:0.26458332px"></tspan></text>
    <text
       xml:space="preserve"
       style="font-style:normal;font-weight:normal;font-size:10.58333302px;line-height:6.61458349px;font-family:sans-serif;letter-spacing:0px;word-spacing:0px;fill:#000000;fill-opacity:1;stroke:none;stroke-width:0.26458332px;stroke-linecap:butt;stroke-linejoin:miter;stroke-opacity:1"
       x="109.82716"
       y="104.45506"
       id="text16-4"><tspan
         sodipodi:role="line"
         x="109.82716"
         y="104.45506"
         style="line-height:10.58333302px;writing-mode:lr-tb;fill:#ffffff;fill-opacity:1;stroke-width:0.26458332px"
         id="tspan823-1">2. Improve</tspan></text>
    <text
       xml:space="preserve"
       style="font-style:normal;font-weight:normal;font-size:10.58333302px;line-height:6.61458302px;font-family:sans-serif;letter-spacing:0px;word-spacing:0px;fill:#000000;fill-opacity:1;stroke:none;stroke-width:0.26458332px;stroke-linecap:butt;stroke-linejoin:miter;stroke-opacity:1"
       x="143.52373"
       y="139.84552"
       id="text889"><tspan
         sodipodi:role="line"
         id="tspan887"
         x="143.52373"
         y="145.90199"
         style="stroke-width:0.26458332px"></tspan></text>
    <text
       xml:space="preserve"
       style="font-style:normal;font-weight:normal;font-size:10.58333302px;line-height:6.61458349px;font-family:sans-serif;letter-spacing:0px;word-spacing:0px;fill:#000000;fill-opacity:1;stroke:none;stroke-width:0.26458332px;stroke-linecap:butt;stroke-linejoin:miter;stroke-opacity:1"
       x="214.63322"
       y="105.2109"
       id="text16-7-7"><tspan
         sodipodi:role="line"
         x="214.63322"
         y="105.2109"
         style="line-height:10.58333302px;writing-mode:lr-tb;fill:#ffffff;fill-opacity:1;stroke-width:0.26458332px"
         id="tspan823-7-0">3. Apply</tspan></text>
    <text
       xml:space="preserve"
       style="font-style:normal;font-weight:normal;font-size:10.58333302px;line-height:6.61458302px;font-family:sans-serif;letter-spacing:0px;word-spacing:0px;fill:#000000;fill-opacity:1;stroke:none;stroke-width:0.26458332px;stroke-linecap:butt;stroke-linejoin:miter;stroke-opacity:1"
       x="150.05655"
       y="145.43155"
       id="text1015"><tspan
         sodipodi:role="line"
         id="tspan1013"
         x="150.05655"
         y="151.48802"
         style="stroke-width:0.26458332px"></tspan></text>
    <path
       id="path1065"
       d="m 44.989348,134.43107 q 0.299756,0 0.518808,0.21906 0.219053,0.21905 0.219053,0.5188 v 19.18437 q 0,0.29975 -0.219053,0.51881 -0.219052,0.21905 -0.518808,0.21905 H 30.232143 q -0.299758,0 -0.51881,-0.21905 -0.219052,-0.21906 -0.219052,-0.51881 v -19.18437 q 0,-0.29975 0.219052,-0.5188 0.219052,-0.21906 0.51881,-0.21906 z m -9.592184,3.32037 v 0.73786 q 0,0.16141 0.103762,0.26518 0.103761,0.10375 0.265168,0.10375 h 0.73786 q 0.161407,0 0.265169,-0.10375 0.103761,-0.10377 0.103761,-0.26518 v -0.73786 q 0,-0.16141 -0.103761,-0.26517 -0.103762,-0.10375 -0.265169,-0.10375 h -0.73786 q -0.161407,0 -0.265168,0.10375 -0.103762,0.10376 -0.103762,0.26517 z m 0,2.95144 v 0.73787 q 0,0.1614 0.103762,0.26516 0.103761,0.10377 0.265168,0.10377 h 0.73786 q 0.161407,0 0.265169,-0.10377 0.103761,-0.10376 0.103761,-0.26516 v -0.73787 q 0,-0.1614 -0.103761,-0.26516 -0.103762,-0.10377 -0.265169,-0.10377 h -0.73786 q -0.161407,0 -0.265168,0.10377 -0.103762,0.10376 -0.103762,0.26516 z m 0,2.95145 v 0.73786 q 0,0.1614 0.103762,0.26517 0.103761,0.10376 0.265168,0.10376 h 0.73786 q 0.161407,0 0.265169,-0.10376 0.103761,-0.10377 0.103761,-0.26517 v -0.73786 q 0,-0.16141 -0.103761,-0.26517 -0.103762,-0.10376 -0.265169,-0.10376 h -0.73786 q -0.161407,0 -0.265168,0.10376 -0.103762,0.10376 -0.103762,0.26517 z m 0,2.95144 v 0.73786 q 0,0.16141 0.103762,0.26516 0.103761,0.10377 0.265168,0.10377 h 0.73786 q 0.161407,0 0.265169,-0.10377 0.103761,-0.10375 0.103761,-0.26516 v -0.73786 q 0,-0.16141 -0.103761,-0.26517 -0.103762,-0.10377 -0.265169,-0.10377 h -0.73786 q -0.161407,0 -0.265168,0.10377 -0.103762,0.10376 -0.103762,0.26517 z m -1.47572,3.6893 v -0.73786 q 0,-0.16141 -0.103762,-0.26517 -0.103762,-0.10376 -0.265169,-0.10376 h -0.73786 q -0.161407,0 -0.265169,0.10376 -0.103762,0.10376 -0.103762,0.26517 v 0.73786 q 0,0.1614 0.103762,0.26517 0.103762,0.10376 0.265169,0.10376 h 0.73786 q 0.161407,0 0.265169,-0.10376 0.103762,-0.10377 0.103762,-0.26517 z m 0,-2.95144 v -0.73786 q 0,-0.16141 -0.103762,-0.26517 -0.103762,-0.10377 -0.265169,-0.10377 h -0.73786 q -0.161407,0 -0.265169,0.10377 -0.103762,0.10376 -0.103762,0.26517 v 0.73786 q 0,0.16141 0.103762,0.26516 0.103762,0.10377 0.265169,0.10377 h 0.73786 q 0.161407,0 0.265169,-0.10377 0.103762,-0.10375 0.103762,-0.26516 z m 0,-2.95144 v -0.73786 q 0,-0.16141 -0.103762,-0.26517 -0.103762,-0.10376 -0.265169,-0.10376 h -0.73786 q -0.161407,0 -0.265169,0.10376 -0.103762,0.10376 -0.103762,0.26517 v 0.73786 q 0,0.1614 0.103762,0.26517 0.103762,0.10376 0.265169,0.10376 h 0.73786 q 0.161407,0 0.265169,-0.10376 0.103762,-0.10377 0.103762,-0.26517 z m 0,-2.95144 v -0.73787 q 0,-0.1614 -0.103762,-0.26516 -0.103762,-0.10377 -0.265169,-0.10377 h -0.73786 q -0.161407,0 -0.265169,0.10377 -0.103762,0.10376 -0.103762,0.26516 v 0.73787 q 0,0.1614 0.103762,0.26516 0.103762,0.10377 0.265169,0.10377 h 0.73786 q 0.161407,0 0.265169,-0.10377 0.103762,-0.10376 0.103762,-0.26516 z m 0,-2.95145 v -0.73786 q 0,-0.16141 -0.103762,-0.26517 -0.103762,-0.10375 -0.265169,-0.10375 h -0.73786 q -0.161407,0 -0.265169,0.10375 -0.103762,0.10376 -0.103762,0.26517 v 0.73786 q 0,0.16141 0.103762,0.26518 0.103762,0.10375 0.265169,0.10375 h 0.73786 q 0.161407,0 0.265169,-0.10375 0.103762,-0.10377 0.103762,-0.26518 z m 5.902882,14.75721 v -2.21358 q 0,-0.16141 -0.103762,-0.26517 -0.103762,-0.10376 -0.265168,-0.10376 h -3.689302 q -0.161407,0 -0.265168,0.10376 -0.103762,0.10376 -0.103762,0.26517 v 2.21358 q 0,0.16141 0.103762,0.26517 0.103761,0.10376 0.265168,0.10376 h 3.689302 q 0.161406,0 0.265168,-0.10376 0.103762,-0.10376 0.103762,-0.26517 z m 0,-5.90288 v -0.73786 q 0,-0.16141 -0.103762,-0.26517 -0.103762,-0.10377 -0.265168,-0.10377 h -0.737861 q -0.161407,0 -0.265168,0.10377 -0.103762,0.10376 -0.103762,0.26517 v 0.73786 q 0,0.16141 0.103762,0.26516 0.103761,0.10377 0.265168,0.10377 h 0.737861 q 0.161406,0 0.265168,-0.10377 0.103762,-0.10375 0.103762,-0.26516 z m 0,-2.95144 v -0.73786 q 0,-0.16141 -0.103762,-0.26517 -0.103762,-0.10376 -0.265168,-0.10376 h -0.737861 q -0.161407,0 -0.265168,0.10376 -0.103762,0.10376 -0.103762,0.26517 v 0.73786 q 0,0.1614 0.103762,0.26517 0.103761,0.10376 0.265168,0.10376 h 0.737861 q 0.161406,0 0.265168,-0.10376 0.103762,-0.10377 0.103762,-0.26517 z m 0,-2.95144 v -0.73787 q 0,-0.1614 -0.103762,-0.26516 -0.103762,-0.10377 -0.265168,-0.10377 h -0.737861 q -0.161407,0 -0.265168,0.10377 -0.103762,0.10376 -0.103762,0.26516 v 0.73787 q 0,0.1614 0.103762,0.26516 0.103761,0.10377 0.265168,0.10377 h 0.737861 q 0.161406,0 0.265168,-0.10377 0.103762,-0.10376 0.103762,-0.26516 z m 0,-2.95145 v -0.73786 q 0,-0.16141 -0.103762,-0.26517 -0.103762,-0.10375 -0.265168,-0.10375 h -0.737861 q -0.161407,0 -0.265168,0.10375 -0.103762,0.10376 -0.103762,0.26517 v 0.73786 q 0,0.16141 0.103762,0.26518 0.103761,0.10375 0.265168,0.10375 h 0.737861 q 0.161406,0 0.265168,-0.10375 0.103762,-0.10377 0.103762,-0.26518 z m 2.951442,11.80577 v -0.73786 q 0,-0.16141 -0.103762,-0.26517 -0.103762,-0.10376 -0.265169,-0.10376 h -0.73786 q -0.161407,0 -0.265169,0.10376 -0.103762,0.10376 -0.103762,0.26517 v 0.73786 q 0,0.1614 0.103762,0.26517 0.103762,0.10376 0.265169,0.10376 h 0.73786 q 0.161407,0 0.265169,-0.10376 0.103762,-0.10377 0.103762,-0.26517 z m 0,-2.95144 v -0.73786 q 0,-0.16141 -0.103762,-0.26517 -0.103762,-0.10377 -0.265169,-0.10377 h -0.73786 q -0.161407,0 -0.265169,0.10377 -0.103762,0.10376 -0.103762,0.26517 v 0.73786 q 0,0.16141 0.103762,0.26516 0.103762,0.10377 0.265169,0.10377 h 0.73786 q 0.161407,0 0.265169,-0.10377 0.103762,-0.10375 0.103762,-0.26516 z m 0,-2.95144 v -0.73786 q 0,-0.16141 -0.103762,-0.26517 -0.103762,-0.10376 -0.265169,-0.10376 h -0.73786 q -0.161407,0 -0.265169,0.10376 -0.103762,0.10376 -0.103762,0.26517 v 0.73786 q 0,0.1614 0.103762,0.26517 0.103762,0.10376 0.265169,0.10376 h 0.73786 q 0.161407,0 0.265169,-0.10376 0.103762,-0.10377 0.103762,-0.26517 z m 0,-2.95144 v -0.73787 q 0,-0.1614 -0.103762,-0.26516 -0.103762,-0.10377 -0.265169,-0.10377 h -0.73786 q -0.161407,0 -0.265169,0.10377 -0.103762,0.10376 -0.103762,0.26516 v 0.73787 q 0,0.1614 0.103762,0.26516 0.103762,0.10377 0.265169,0.10377 h 0.73786 q 0.161407,0 0.265169,-0.10377 0.103762,-0.10376 0.103762,-0.26516 z m 0,-2.95145 v -0.73786 q 0,-0.16141 -0.103762,-0.26517 -0.103762,-0.10375 -0.265169,-0.10375 h -0.73786 q -0.161407,0 -0.265169,0.10375 -0.103762,0.10376 -0.103762,0.26517 v 0.73786 q 0,0.16141 0.103762,0.26518 0.103762,0.10375 0.265169,0.10375 h 0.73786 q 0.161407,0 0.265169,-0.10375 0.103762,-0.10377 0.103762,-0.26518 z"
       inkscape:connector-curvature="0"
       style="fill:#db1e7b;fill-opacity:1;stroke-width:0.01152906" />
    <path
       id="path1124"
       d="m 34.009505,180.1029 q -1.589646,0.049 -2.600347,1.25601 h -1.314893 q -0.804636,0 -1.354146,-0.39741 -0.549507,-0.39741 -0.549507,-1.16279 0,-3.46387 1.216767,-3.46387 0.05888,0 0.426849,0.20607 0.367975,0.20607 0.956734,0.41704 0.588756,0.21097 1.167703,0.21097 0.657446,0 1.30508,-0.22569 -0.04906,0.36307 -0.04906,0.64764 0,1.36395 0.79482,2.51203 z m 10.509335,6.25065 q 0,1.17752 -0.71632,1.85949 -0.716324,0.68198 -1.903653,0.68198 h -8.576245 q -1.187329,0 -1.903652,-0.68198 -0.716323,-0.68197 -0.716323,-1.85949 0,-0.52007 0.03435,-1.01561 0.03435,-0.49554 0.137375,-1.06957 0.103034,-0.57404 0.260036,-1.06468 0.157002,-0.49063 0.421943,-0.95673 0.264943,-0.4661 0.608385,-0.79482 0.343441,-0.32873 0.83898,-0.52498 0.495539,-0.19625 1.09411,-0.19625 0.09813,0 0.421942,0.21097 0.323818,0.21097 0.716323,0.47101 0.392506,0.26003 1.049954,0.471 0.657445,0.21097 1.324705,0.21097 0.66726,0 1.324705,-0.21097 0.657448,-0.21097 1.049953,-0.471 0.392506,-0.26004 0.716323,-0.47101 0.323816,-0.21097 0.421943,-0.21097 0.598571,0 1.09411,0.19625 0.495536,0.19625 0.83898,0.52498 0.343442,0.32872 0.608382,0.79482 0.264943,0.4661 0.421945,0.95673 0.157003,0.49064 0.260034,1.06468 0.103034,0.57403 0.137378,1.06957 0.03434,0.49554 0.03434,1.01561 z M 34.470699,173.82281 q 0,1.04014 -0.735946,1.77608 -0.735949,0.73595 -1.776088,0.73595 -1.040139,0 -1.776088,-0.73595 -0.735946,-0.73594 -0.735946,-1.77608 0,-1.04014 0.735946,-1.77609 0.735949,-0.73595 1.776088,-0.73595 1.040139,0 1.776088,0.73595 0.735946,0.73595 0.735946,1.77609 z m 6.908099,3.76806 q 0,1.5602 -1.103924,2.66412 -1.103921,1.10392 -2.664129,1.10392 -1.560211,0 -2.664132,-1.10392 -1.103921,-1.10392 -1.103921,-2.66412 0,-1.56022 1.103921,-2.66414 1.103921,-1.10392 2.664132,-1.10392 1.560208,0 2.664129,1.10392 1.103924,1.10392 1.103924,2.66414 z m 5.652079,2.20784 q 0,0.76538 -0.549509,1.16279 -0.549507,0.39741 -1.354143,0.39741 h -1.314894 q -1.010701,-1.20695 -2.60035,-1.25601 0.794825,-1.14808 0.794825,-2.51203 0,-0.28457 -0.04907,-0.64764 0.647634,0.22569 1.305082,0.22569 0.578945,0 1.167704,-0.21097 0.588759,-0.21097 0.956734,-0.41704 0.367971,-0.20607 0.426846,-0.20607 1.21677,0 1.21677,3.46387 z m -1.256018,-5.9759 q 0,1.04014 -0.735947,1.77608 -0.735949,0.73595 -1.776088,0.73595 -1.040141,0 -1.776088,-0.73595 -0.735949,-0.73594 -0.735949,-1.77608 0,-1.04014 0.735949,-1.77609 0.735947,-0.73595 1.776088,-0.73595 1.040139,0 1.776088,0.73595 0.735947,0.73595 0.735947,1.77609 z"
       inkscape:connector-curvature="0"
       style="fill:#db1e7b;fill-opacity:1;stroke-width:0.00981264" />
    <text
       xml:space="preserve"
       style="font-style:normal;font-weight:normal;font-size:10.58333302px;line-height:6.61458349px;font-family:sans-serif;text-align:center;letter-spacing:0px;word-spacing:0px;text-anchor:middle;fill:#000000;fill-opacity:1;stroke:none;stroke-width:0.26458332px;stroke-linecap:butt;stroke-linejoin:miter;stroke-opacity:1"
       x="37.376652"
       y="196.78369"
       id="text16-6"><tspan
         sodipodi:role="line"
         x="38.387444"
         y="196.78369"
         style="font-size:6.3499999px;line-height:3.54541659px;text-align:center;writing-mode:lr-tb;text-anchor:middle;fill:#ffffff;fill-opacity:1;stroke-width:0.26458332px"
         id="tspan1158">Workforce </tspan><tspan
         sodipodi:role="line"
         x="37.376652"
         y="203.39827"
         style="font-size:6.3499999px;line-height:3.54541659px;text-align:center;writing-mode:lr-tb;text-anchor:middle;fill:#ffffff;fill-opacity:1;stroke-width:0.26458332px"
         id="tspan1584">Management</tspan></text>
    <path
       id="path1208"
       d="m 30.891604,218.17631 q 0,-0.69553 -0.492122,-1.18765 -0.492126,-0.49213 -1.187662,-0.49213 -0.695534,0 -1.18766,0.49213 -0.492122,0.49212 -0.492122,1.18765 0,0.69555 0.492122,1.18767 0.492126,0.49212 1.18766,0.49212 0.695536,0 1.187662,-0.49212 0.492122,-0.49212 0.492122,-1.18767 z m 2.51968,-5.87924 q 0,-0.69553 -0.492126,-1.18766 -0.492125,-0.49213 -1.187661,-0.49213 -0.695535,0 -1.18766,0.49213 -0.492123,0.49213 -0.492123,1.18766 0,0.69553 0.492123,1.18766 0.492125,0.49212 1.18766,0.49212 0.695536,0 1.187661,-0.49212 0.492126,-0.49213 0.492126,-1.18766 z m 5.616779,6.31232 1.325455,-5.01311 q 0.07874,-0.3412 -0.09842,-0.63648 -0.177165,-0.29528 -0.505248,-0.38714 -0.328082,-0.0919 -0.629917,0.0853 -0.301839,0.17716 -0.393701,0.51837 l -1.325456,5.01311 q -0.787398,0.0656 -1.404193,0.57086 -0.616798,0.50525 -0.826771,1.29265 -0.262465,1.0105 0.262465,1.91601 0.524936,0.90551 1.535429,1.16797 1.010495,0.26247 1.916006,-0.26246 0.905508,-0.52494 1.167976,-1.53543 0.209972,-0.7874 -0.07874,-1.53543 -0.288715,-0.74803 -0.944879,-1.19422 z m 8.66139,-0.43308 q 0,-0.69553 -0.492122,-1.18765 -0.492126,-0.49213 -1.187662,-0.49213 -0.695538,0 -1.187661,0.49213 -0.492124,0.49212 -0.492124,1.18765 0,0.69555 0.492124,1.18767 0.492123,0.49212 1.187661,0.49212 0.695536,0 1.187662,-0.49212 0.492122,-0.49212 0.492122,-1.18767 z m -8.398922,-8.39892 q 0,-0.69554 -0.492127,-1.18766 -0.492125,-0.49212 -1.18766,-0.49212 -0.695536,0 -1.187661,0.49212 -0.492123,0.49212 -0.492123,1.18766 0,0.69554 0.492123,1.18767 0.492125,0.49211 1.187661,0.49211 0.695535,0 1.18766,-0.49211 0.492127,-0.49213 0.492127,-1.18767 z m 5.879246,2.51968 q 0,-0.69553 -0.492126,-1.18766 -0.492122,-0.49213 -1.187658,-0.49213 -0.695538,0 -1.187661,0.49213 -0.492125,0.49213 -0.492125,1.18766 0,0.69553 0.492125,1.18766 0.492123,0.49212 1.187661,0.49212 0.695536,0 1.187658,-0.49212 0.492126,-0.49213 0.492126,-1.18766 z m 4.199462,5.87924 q 0,3.42519 -1.850389,6.33857 -0.249342,0.38058 -0.70866,0.38058 H 28.411298 q -0.459316,0 -0.708658,-0.38058 -1.850389,-2.90025 -1.850389,-6.33857 0,-2.38844 0.931756,-4.56691 0.931755,-2.17847 2.506554,-3.75326 1.574798,-1.5748 3.753269,-2.50656 2.178469,-0.93176 4.566914,-0.93176 2.388444,0 4.566916,0.93176 2.178471,0.93176 3.753269,2.50656 1.574799,1.57479 2.506555,3.75326 0.931755,2.17847 0.931755,4.56691 z"
       inkscape:connector-curvature="0"
       style="fill:#db1e7b;fill-opacity:1;stroke-width:0.01312332" />
    <text
       xml:space="preserve"
       style="font-style:normal;font-weight:normal;font-size:10.58333302px;line-height:6.61458349px;font-family:sans-serif;letter-spacing:0px;word-spacing:0px;fill:#000000;fill-opacity:1;stroke:none;stroke-width:0.26458332px;stroke-linecap:butt;stroke-linejoin:miter;stroke-opacity:1"
       x="16.050819"
       y="231.65405"
       id="text16-6-5"><tspan
         sodipodi:role="line"
         x="16.050819"
         y="231.65405"
         style="font-size:6.3499999px;line-height:3.54541659px;writing-mode:lr-tb;fill:#ffffff;fill-opacity:1;stroke-width:0.26458332px"
         id="tspan1158-9">Telemetry/IoT</tspan></text>
    <g
       style="fill:#ffffff"
       id="g10"
       transform="matrix(0.01811995,0,0,-0.01811995,156.49235,149.68569)">
      <g
         id="g12"
         transform="scale(0.1)"
         style="fill:#ffffff">
        <path
           d="m 6409.46,919.234 2.25,-1.3 v 169.906 l -983.16,567.63 -542.14,313 -733.94,-423.84 c -141.19,-81.49 -240.08,-83.61 -387.6,1.69 l -61.44,35.5 -264.03,152.41 V 541.328 l 122.49,-70.703 59.88,-34.594 c 255.76,-147.734 427.13,-144.008 671.81,-2.683 L 5566.8,1168.41 6406.69,714.004 Z m -3288.17,998.626 -217.87,125.73 -46.77,27.02 -46.76,26.98 c -205.14,118.46 -264.24,195.7 -264.24,426.7 v 435.09 646.78 c 0,190.91 50.87,306.38 224.84,407.09 l 75.04,43.61 3.29,1.85 6.02,3.51 6.1,3.47 3.03,1.77 8.97,5.2 6.01,3.5 242.34,140.03 V 5421.9 c -140.07,-80.44 -279.83,-161.37 -419.56,-242.42 l -0.99,-0.56 -1.64,-0.96 -368.9,-214.49 -8.7,-5.02 C 2180.34,4876.35 2039.28,4794.21 1898,4712.38 1596.38,4537.63 1508.36,4337.6 1508.36,4006.71 l -0.09,-1121.1 v -754.16 c 0,-400.38 102.32,-534.34 457.96,-739.66 l 546.95,-315.82 88.41,-51 88.41,-51.009 v -0.043 0 L 3004.17,792.586 3121.29,725 Z m 318.11,2482.26 218.96,126.56 4.93,2.86 2.08,1.17 71.14,40.22 c 173.71,97.94 311.01,81.23 466.97,-11.61 314.21,-186.87 632.88,-366.25 949.86,-548.49 163.5,-93.96 221.04,-184.75 221.04,-382.41 v -646.7 -173.62 l 1037.33,-598.89 v 357.55 357.51 1121.11 c 0,342.57 -99.72,500.05 -383.06,662.89 -549.45,315.94 -1101.88,626.73 -1646.52,950.69 -270.53,160.98 -508.41,189.86 -809.55,20.09 l -73.95,-41.78 -3.11,-1.82 -1.48,-0.78 -54.64,-30.96 V 4400.12"
           style="fill:#ffffff;fill-opacity:1;fill-rule:evenodd;stroke:none"
           id="path14"
           inkscape:connector-curvature="0" />
        <path
           d="m 3121.31,3000.37 v -258.04 c -0.02,-136.97 34.98,-182.79 156.66,-253.04 l 187.11,-107.99 379.25,-218.95 c 87.47,-50.53 146.08,-49.27 229.79,-0.91 l 568.89,328.45 1768.72,-1021.18 v 359.63 l -1612.99,931.26 -0.02,253.95 v 383.54 c 0,117.2 -34.07,171.03 -131.03,226.79 -187.95,108.09 -376.95,214.43 -563.28,325.26 -92.53,55.03 -173.96,64.94 -276.92,6.84 -192.04,-108.31 -382.11,-220.13 -572.92,-330.68 -103.16,-59.78 -133.26,-128.25 -133.28,-241.44 l 0.02,-383.49"
           style="fill:#ffffff;fill-opacity:1;fill-rule:evenodd;stroke:none"
           id="path16"
           inkscape:connector-curvature="0" />
      </g>
    </g>
    <path
       id="path1467"
       d="m 232.90399,129.77924 q 0,-1.00704 -0.71254,-1.71957 -0.71252,-0.71253 -1.71957,-0.71253 -1.00704,0 -1.71957,0.71253 -0.71253,0.71253 -0.71253,1.71957 0,1.00704 0.71253,1.71958 0.71253,0.71252 1.71957,0.71252 1.00705,0 1.71957,-0.71252 0.71254,-0.71254 0.71254,-1.71958 z m 7.29631,4.86421 q 0,-0.49402 -0.36102,-0.85504 -0.36101,-0.36101 -0.85504,-0.36101 -0.49401,0 -0.85503,0.36101 -0.36102,0.36102 -0.36102,0.85504 0,0.50352 0.35627,0.85979 0.35627,0.35626 0.85978,0.35626 0.50353,0 0.8598,-0.35626 0.35626,-0.35627 0.35626,-0.85979 z m 0,-9.72842 q 0,-0.49402 -0.36102,-0.85503 -0.36101,-0.36102 -0.85504,-0.36102 -0.49401,0 -0.85503,0.36102 -0.36102,0.36101 -0.36102,0.85503 0,0.50352 0.35627,0.85979 0.35627,0.35627 0.85978,0.35627 0.50353,0 0.8598,-0.35627 0.35626,-0.35627 0.35626,-0.85979 z m -3.64816,3.99967 v 1.75758 q 0,0.095 -0.0665,0.18525 -0.0665,0.0903 -0.15201,0.0998 l -1.47256,0.22801 q -0.1045,0.33252 -0.30401,0.72203 0.32301,0.45602 0.85503,1.09255 0.0665,0.095 0.0665,0.19001 0,0.114 -0.0665,0.18051 -0.21851,0.28501 -0.78378,0.85028 -0.56527,0.56528 -0.74578,0.56528 -0.10451,0 -0.19951,-0.0665 l -1.09255,-0.85504 q -0.35151,0.18052 -0.73153,0.29452 -0.1045,1.02604 -0.21851,1.47256 -0.0665,0.22801 -0.28501,0.22801 h -1.76708 q -0.1045,0 -0.19,-0.0712 -0.0855,-0.0713 -0.095,-0.16626 l -0.21851,-1.45356 q -0.32301,-0.095 -0.71253,-0.29451 l -1.12105,0.84553 q -0.0665,0.0665 -0.19,0.0665 -0.10451,0 -0.19951,-0.076 -1.36806,-1.26355 -1.36806,-1.52006 0,-0.0855 0.0665,-0.18051 0.095,-0.133 0.38952,-0.50352 0.29451,-0.37052 0.44651,-0.57953 -0.2185,-0.41801 -0.33251,-0.77903 l -1.44406,-0.22801 q -0.095,-0.009 -0.16151,-0.0902 -0.0665,-0.0807 -0.0665,-0.18526 v -1.75758 q 0,-0.095 0.0665,-0.18525 0.0665,-0.0903 0.15201,-0.0998 l 1.47256,-0.22801 q 0.10451,-0.33251 0.30402,-0.72203 -0.32302,-0.45602 -0.85504,-1.09254 -0.0665,-0.10451 -0.0665,-0.19002 0,-0.114 0.0665,-0.19 0.20901,-0.28502 0.77903,-0.84554 0.57002,-0.56052 0.75054,-0.56052 0.1045,0 0.1995,0.0665 l 1.09255,0.85504 q 0.32301,-0.17101 0.73153,-0.30401 0.10451,-1.02605 0.21851,-1.46307 0.0665,-0.22801 0.28501,-0.22801 h 1.76708 q 0.10451,0 0.19001,0.0712 0.0855,0.0713 0.095,0.16626 l 0.21851,1.45357 q 0.32301,0.095 0.71253,0.2945 l 1.12105,-0.84553 q 0.076,-0.0665 0.19001,-0.0665 0.1045,0 0.19951,0.076 1.36806,1.26355 1.36806,1.52006 0,0.0855 -0.0665,0.18051 -0.114,0.15201 -0.39901,0.51302 -0.28501,0.36102 -0.42752,0.57003 0.21851,0.45602 0.32301,0.77904 l 1.44406,0.2185 q 0.095,0.019 0.16151,0.0998 0.0665,0.0808 0.0665,0.18525 z m 6.08026,5.06372 v 1.33006 q 0,0.152 -1.41556,0.29451 -0.114,0.25651 -0.28501,0.49402 0.48452,1.07355 0.48452,1.31106 0,0.038 -0.038,0.0665 -1.15905,0.67453 -1.17805,0.67453 -0.076,0 -0.43702,-0.44652 -0.36102,-0.44652 -0.49402,-0.64603 -0.19001,0.019 -0.28502,0.019 -0.095,0 -0.28501,-0.019 -0.133,0.19951 -0.49402,0.64603 -0.36102,0.44652 -0.43702,0.44652 -0.019,0 -1.17805,-0.67453 -0.038,-0.0285 -0.038,-0.0665 0,-0.23751 0.48452,-1.31106 -0.17101,-0.23751 -0.28502,-0.49402 -1.41556,-0.14251 -1.41556,-0.29451 v -1.33006 q 0,-0.152 1.41556,-0.29451 0.12351,-0.27551 0.28502,-0.49402 -0.48452,-1.07355 -0.48452,-1.31106 0,-0.038 0.038,-0.0665 0.038,-0.019 0.33252,-0.19001 0.29451,-0.17101 0.56052,-0.32301 0.26601,-0.15201 0.28501,-0.15201 0.076,0 0.43702,0.44177 0.36102,0.44177 0.49402,0.64128 0.19001,-0.019 0.28501,-0.019 0.095,0 0.28502,0.019 0.48452,-0.67453 0.87404,-1.06405 l 0.057,-0.019 q 0.038,0 1.17805,0.66502 0.038,0.0285 0.038,0.0665 0,0.2375 -0.48452,1.31105 0.16151,0.21851 0.28501,0.49402 1.41556,0.14251 1.41556,0.29451 z m 0,-9.72842 v 1.33006 q 0,0.15201 -1.41556,0.29452 -0.114,0.25651 -0.28501,0.49401 0.48452,1.07355 0.48452,1.31106 0,0.038 -0.038,0.0665 -1.15905,0.67453 -1.17805,0.67453 -0.076,0 -0.43702,-0.44652 -0.36102,-0.44651 -0.49402,-0.64602 -0.19001,0.019 -0.28502,0.019 -0.095,0 -0.28501,-0.019 -0.133,0.19951 -0.49402,0.64602 -0.36102,0.44652 -0.43702,0.44652 -0.019,0 -1.17805,-0.67453 -0.038,-0.0285 -0.038,-0.0665 0,-0.23751 0.48452,-1.31106 -0.17101,-0.2375 -0.28502,-0.49401 -1.41556,-0.14251 -1.41556,-0.29452 V 124.25 q 0,-0.152 1.41556,-0.29451 0.12351,-0.27551 0.28502,-0.49402 -0.48452,-1.07355 -0.48452,-1.31106 0,-0.038 0.038,-0.0665 0.038,-0.019 0.33252,-0.19001 0.29451,-0.171 0.56052,-0.32301 0.26601,-0.15201 0.28501,-0.15201 0.076,0 0.43702,0.44177 0.36102,0.44177 0.49402,0.64128 0.19001,-0.019 0.28501,-0.019 0.095,0 0.28502,0.019 0.48452,-0.67453 0.87404,-1.06405 l 0.057,-0.019 q 0.038,0 1.17805,0.66503 0.038,0.0285 0.038,0.0665 0,0.2375 -0.48452,1.31105 0.16151,0.21851 0.28501,0.49402 1.41556,0.1425 1.41556,0.29451 z"
       inkscape:connector-curvature="0"
       style="fill:#db1e7b;fill-opacity:1;stroke-width:0.00950041" />
    <text
       xml:space="preserve"
       style="font-style:normal;font-weight:normal;font-size:10.58333302px;line-height:6.61458349px;font-family:sans-serif;text-align:center;letter-spacing:0px;word-spacing:0px;text-anchor:middle;fill:#000000;fill-opacity:1;stroke:none;stroke-width:0.26458332px;stroke-linecap:butt;stroke-linejoin:miter;stroke-opacity:1"
       x="233.36938"
       y="191.99763"
       id="text16-41"><tspan
         sodipodi:role="line"
         x="233.36938"
         y="191.99763"
         style="font-size:6.3499999px;line-height:3.54541659px;text-align:center;writing-mode:lr-tb;text-anchor:middle;fill:#ffffff;fill-opacity:1;stroke-width:0.26458332px"
         id="tspan823-4">Schedule</tspan><tspan
         sodipodi:role="line"
         x="233.36938"
         y="198.61221"
         style="font-size:6.3499999px;line-height:3.54541659px;text-align:center;writing-mode:lr-tb;text-anchor:middle;fill:#ffffff;fill-opacity:1;stroke-width:0.26458332px"
         id="tspan1582">Maintenance</tspan></text>
    <path
       id="path1553"
       d="m 225.69609,181.74543 h 3.19743 v -3.19742 h -3.19743 z m 3.90797,0 h 3.5527 v -3.19742 h -3.5527 z m -3.90797,-3.90796 h 3.19743 v -3.55269 h -3.19743 z m 3.90797,0 h 3.5527 v -3.55269 h -3.5527 z m -3.90797,-4.26323 h 3.19743 v -3.19742 h -3.19743 z m 8.17119,8.17119 h 3.5527 v -3.19742 h -3.5527 z m -4.26322,-8.17119 h 3.5527 v -3.19742 h -3.5527 z m 8.52646,8.17119 h 3.19743 v -3.19742 h -3.19743 z m -4.26324,-3.90796 h 3.5527 v -3.55269 h -3.5527 z m -3.90795,-9.59227 v -3.19742 q 0,-0.14433 -0.10548,-0.2498 -0.10546,-0.10548 -0.24979,-0.10548 h -0.71054 q -0.14433,0 -0.2498,0.10548 -0.10547,0.10547 -0.10547,0.2498 v 3.19742 q 0,0.14433 0.10547,0.2498 0.10547,0.10547 0.2498,0.10547 h 0.71054 q 0.14433,0 0.24979,-0.10547 0.10548,-0.10547 0.10548,-0.2498 z m 8.17119,9.59227 h 3.19743 v -3.55269 h -3.19743 z m -4.26324,-4.26323 h 3.5527 v -3.19742 h -3.5527 z m 4.26324,0 h 3.19743 v -3.19742 h -3.19743 z m 0.35527,-5.32904 v -3.19742 q 0,-0.14433 -0.10547,-0.2498 -0.10547,-0.10548 -0.2498,-0.10548 h -0.71054 q -0.14433,0 -0.2498,0.10548 -0.10547,0.10547 -0.10547,0.2498 v 3.19742 q 0,0.14433 0.10547,0.2498 0.10547,0.10547 0.2498,0.10547 h 0.71054 q 0.14433,0 0.2498,-0.10547 0.10547,-0.10547 0.10547,-0.2498 z m 4.26323,-0.71054 v 14.21077 q 0,0.57731 -0.42188,0.9992 -0.42188,0.42187 -0.99919,0.42187 h -15.63186 q -0.57731,0 -0.99919,-0.42187 -0.42188,-0.42189 -0.42188,-0.9992 v -14.21077 q 0,-0.57731 0.42188,-0.99919 0.42188,-0.42188 0.99919,-0.42188 h 1.42108 v -1.06581 q 0,-0.73275 0.52181,-1.25455 0.5218,-0.5218 1.25454,-0.5218 h 0.71054 q 0.73275,0 1.25454,0.5218 0.52181,0.5218 0.52181,1.25455 v 1.06581 h 4.26322 v -1.06581 q 0,-0.73275 0.52181,-1.25455 0.52179,-0.5218 1.25454,-0.5218 h 0.71054 q 0.73274,0 1.25454,0.5218 0.52181,0.5218 0.52181,1.25455 v 1.06581 h 1.42108 q 0.57731,0 0.99919,0.42188 0.42188,0.42188 0.42188,0.99919 z"
       inkscape:connector-curvature="0"
       style="fill:#db1e7b;fill-opacity:1;stroke-width:0.01110217" />
    <text
       xml:space="preserve"
       style="font-style:normal;font-weight:normal;font-size:10.58333302px;line-height:6.61458349px;font-family:sans-serif;letter-spacing:0px;word-spacing:0px;fill:#000000;fill-opacity:1;stroke:none;stroke-width:0.26458332px;stroke-linecap:butt;stroke-linejoin:miter;stroke-opacity:1"
       x="209.29024"
       y="147.00215"
       id="text16-41-1"><tspan
         sodipodi:role="line"
         x="209.29024"
         y="147.00215"
         style="font-size:6.3499999px;line-height:3.54541659px;writing-mode:lr-tb;fill:#ffffff;fill-opacity:1;stroke-width:0.26458332px"
         id="tspan823-4-5">Predict Failures</tspan></text>
    <text
       xml:space="preserve"
       style="font-style:normal;font-weight:normal;font-size:10.58333302px;line-height:6.61458302px;font-family:sans-serif;letter-spacing:0px;word-spacing:0px;fill:#000000;fill-opacity:1;stroke:none;stroke-width:0.26458332px;stroke-linecap:butt;stroke-linejoin:miter;stroke-opacity:1"
       x="78.844505"
       y="119.26577"
       id="text1588"><tspan
         sodipodi:role="line"
         id="tspan1586"
         x="78.844505"
         y="125.32225"
         style="stroke-width:0.26458332px"></tspan></text>
    <text
       xml:space="preserve"
       style="font-style:normal;font-weight:normal;font-size:10.58333302px;line-height:6.61458349px;font-family:sans-serif;letter-spacing:0px;word-spacing:0px;fill:#000000;fill-opacity:1;stroke:none;stroke-width:0.26458332px;stroke-linecap:butt;stroke-linejoin:miter;stroke-opacity:1"
       x="38.574711"
       y="249.11981"
       id="text16-7-5"><tspan
         sodipodi:role="line"
         x="38.574711"
         y="249.11981"
         style="font-size:4.93888903px;line-height:0px;text-align:center;writing-mode:lr-tb;text-anchor:middle;fill:#ffffff;fill-opacity:1;stroke-width:0.26458332px"
         id="tspan5471">And captures data</tspan><tspan
         sodipodi:role="line"
         x="38.574711"
         y="255.73439"
         style="font-size:4.93888903px;line-height:0px;text-align:center;writing-mode:lr-tb;text-anchor:middle;fill:#ffffff;fill-opacity:1;stroke-width:0.26458332px"
         id="tspan5422">from our mobile app</tspan></text>
    <text
       xml:space="preserve"
       style="font-style:normal;font-weight:normal;font-size:10.58333302px;line-height:6.61458349px;font-family:sans-serif;letter-spacing:0px;word-spacing:0px;fill:#000000;fill-opacity:1;stroke:none;stroke-width:0.26458332px;stroke-linecap:butt;stroke-linejoin:miter;stroke-opacity:1"
       x="141.78232"
       y="158.51645"
       id="text16-7-5-9"><tspan
         sodipodi:role="line"
         x="141.78232"
         y="158.51645"
         style="font-size:4.93888903px;line-height:0px;text-align:center;writing-mode:lr-tb;text-anchor:middle;fill:#ffffff;fill-opacity:1;stroke-width:0.26458332px"
         id="tspan5477">Knowledge base</tspan><tspan
         sodipodi:role="line"
         x="141.78232"
         y="165.13103"
         style="font-size:4.93888903px;line-height:0px;text-align:center;writing-mode:lr-tb;text-anchor:middle;fill:#ffffff;fill-opacity:1;stroke-width:0.26458332px"
         id="tspan5481">catalogues information</tspan><tspan
         sodipodi:role="line"
         x="141.78232"
         y="171.74562"
         style="font-size:4.93888903px;line-height:0px;text-align:center;writing-mode:lr-tb;text-anchor:middle;fill:#ffffff;fill-opacity:1;stroke-width:0.26458332px"
         id="tspan5483">as it's collected</tspan></text>
    <path
       id="path5388"
       d="m 39.811301,285.99132 q 0,-0.77727 -0.553511,-1.33078 -0.553511,-0.5535 -1.330776,-0.5535 -0.777265,0 -1.330776,0.5535 -0.55351,0.55351 -0.55351,1.33078 0,0.77727 0.55351,1.33077 0.553511,0.55351 1.330776,0.55351 0.777265,0 1.330776,-0.55351 0.553511,-0.5535 0.553511,-1.33077 z m 4.899136,-3.76857 v -16.58171 q 0,-0.30619 -0.223754,-0.52994 -0.223755,-0.22377 -0.529955,-0.22377 H 31.8973 q -0.306187,0 -0.529954,0.22377 -0.223755,0.22375 -0.223755,0.52994 v 16.58171 q 0,0.30619 0.223755,0.52996 0.223767,0.22375 0.529954,0.22375 h 12.059428 q 0.3062,0 0.529955,-0.22375 0.223754,-0.22377 0.223754,-0.52996 z m -4.522282,-19.97341 q 0,-0.37686 -0.376854,-0.37686 h -3.768573 q -0.376855,0 -0.376855,0.37686 0,0.37685 0.376855,0.37685 h 3.768573 q 0.376854,0 0.376854,-0.37685 z m 6.783423,-0.37686 v 24.11884 q 0,1.22478 -0.895031,2.11981 -0.895045,0.89504 -2.119819,0.89504 H 31.8973 q -1.224787,0 -2.119819,-0.89504 -0.895031,-0.89503 -0.895031,-2.11981 v -24.11884 q 0,-1.22479 0.895031,-2.11982 0.895032,-0.89504 2.119819,-0.89504 h 12.059428 q 1.224774,0 2.119819,0.89504 0.895031,0.89503 0.895031,2.11982 z"
       inkscape:connector-curvature="0"
       style="fill:#db1e7b;fill-opacity:1;stroke-width:0.02355355" />
    <text
       xml:space="preserve"
       style="font-style:normal;font-weight:normal;font-size:10.58333302px;line-height:6.61458349px;font-family:sans-serif;letter-spacing:0px;word-spacing:0px;fill:#000000;fill-opacity:1;stroke:none;stroke-width:0.26458332px;stroke-linecap:butt;stroke-linejoin:miter;stroke-opacity:1"
       x="37.836933"
       y="119.76405"
       id="text16-7-5-2"><tspan
         sodipodi:role="line"
         x="38.623104"
         y="119.76405"
         style="font-size:4.93888903px;line-height:0px;text-align:center;writing-mode:lr-tb;text-anchor:middle;fill:#ffffff;fill-opacity:1;stroke-width:0.26458332px"
         id="tspan1608-2">Quartic monitors </tspan><tspan
         sodipodi:role="line"
         x="37.836933"
         y="126.37863"
         style="font-size:4.93888903px;line-height:0px;text-align:center;writing-mode:lr-tb;text-anchor:middle;fill:#ffffff;fill-opacity:1;stroke-width:0.26458332px"
         id="tspan1612-7">your existing data</tspan></text>
    <rect
       style="fill:none;fill-opacity:1;stroke:#ffffff;stroke-width:0.65674269;stroke-linejoin:round;stroke-miterlimit:4;stroke-dasharray:none;stroke-opacity:1"
       id="rect1668-3"
       width="61.261391"
       height="125.37136"
       x="109.68581"
       y="136.79704"
       rx="3.2435668"
       ry="2.7062435" />
    <rect
       style="fill:none;fill-opacity:0;stroke:#ffffff;stroke-width:0.66499996;stroke-linejoin:round;stroke-miterlimit:4;stroke-dasharray:none;stroke-opacity:1"
       id="rect5469"
       width="60.690155"
       height="51.155392"
       x="7.4635749"
       y="242.6051"
       rx="3.2435534"
       ry="2.7062378" />
    <text
       xml:space="preserve"
       style="font-style:normal;font-weight:normal;font-size:10.58333302px;line-height:6.61458349px;font-family:sans-serif;letter-spacing:0px;word-spacing:0px;fill:#000000;fill-opacity:1;stroke:none;stroke-width:0.26458332px;stroke-linecap:butt;stroke-linejoin:miter;stroke-opacity:1"
       x="140.65973"
       y="205.66727"
       id="text16-7-5-9-6"><tspan
         sodipodi:role="line"
         x="140.65973"
         y="205.66727"
         style="font-size:4.93888903px;line-height:0px;text-align:center;writing-mode:lr-tb;text-anchor:middle;fill:#ffffff;fill-opacity:1;stroke-width:0.26458332px"
         id="tspan5483-3">Machine learning</tspan><tspan
         sodipodi:role="line"
         x="140.65973"
         y="212.28185"
         style="font-size:4.93888903px;line-height:0px;text-align:center;writing-mode:lr-tb;text-anchor:middle;fill:#ffffff;fill-opacity:1;stroke-width:0.26458332px"
         id="tspan5514">algorithms identify</tspan><tspan
         sodipodi:role="line"
         x="140.65973"
         y="218.89644"
         style="font-size:4.93888903px;line-height:0px;text-align:center;writing-mode:lr-tb;text-anchor:middle;fill:#ffffff;fill-opacity:1;stroke-width:0.26458332px"
         id="tspan5516">patterns and insights</tspan></text>
    <rect
       style="fill:none;fill-opacity:0;stroke:#ffffff;stroke-width:0.66499996;stroke-linejoin:round;stroke-miterlimit:4;stroke-dasharray:none;stroke-opacity:1"
       id="rect5518"
       width="56.393867"
       height="39.555889"
       x="204.4612"
       y="114.98409"
       rx="3.2435534"
       ry="2.7062378" />
    <rect
       style="fill:none;fill-opacity:0;stroke:#ffffff;stroke-width:0.66499996;stroke-linejoin:round;stroke-miterlimit:4;stroke-dasharray:none;stroke-opacity:1"
       id="rect5522"
       width="55.057522"
       height="41.159508"
       x="204.99573"
       y="161.22708"
       rx="3.2435534"
       ry="2.7062378" />
    <path
       style="fill:none;fill-opacity:0;fill-rule:evenodd;stroke:#ffffff;stroke-width:0.65700001;stroke-linecap:butt;stroke-linejoin:miter;stroke-miterlimit:4;stroke-dasharray:none;stroke-opacity:1"
       d="m 68.688267,152.13992 h 20.045216 l 0,114.65863 H 67.88646"
       id="path5524"
       inkscape:connector-curvature="0"
       sodipodi:nodetypes="cccc" />
    <path
       style="fill:none;fill-rule:evenodd;stroke:#ffffff;stroke-width:0.657;stroke-linecap:butt;stroke-linejoin:miter;stroke-opacity:1;stroke-miterlimit:4;stroke-dasharray:none"
       d="M 88.733483,199.17936 H 109.31324"
       id="path5526"
       inkscape:connector-curvature="0" />
  </g>
</svg>
