<?xml version="1.0" encoding="UTF-8" standalone="no"?>
<!-- Created with Inkscape (http://www.inkscape.org/) -->

<svg
   xmlns:dc="http://purl.org/dc/elements/1.1/"
   xmlns:cc="http://creativecommons.org/ns#"
   xmlns:rdf="http://www.w3.org/1999/02/22-rdf-syntax-ns#"
   xmlns:svg="http://www.w3.org/2000/svg"
   xmlns="http://www.w3.org/2000/svg"
   xmlns:sodipodi="http://sodipodi.sourceforge.net/DTD/sodipodi-0.dtd"
   xmlns:inkscape="http://www.inkscape.org/namespaces/inkscape"
   width="337.97025mm"
   height="158.32127mm"
   viewBox="0 0 337.97024 158.32127"
   version="1.1"
   id="svg8"
   inkscape:version="0.92.1 r"
   sodipodi:docname="drawing.svg"
   inkscape:export-filename="/home/alex/quartic/website/src/assets/img/drawing.svg.png"
   inkscape:export-xdpi="96"
   inkscape:export-ydpi="96">
  <defs
     id="defs2">
    <marker
       inkscape:stockid="Arrow1Lend"
       orient="auto"
       refY="0"
       refX="0"
       id="Arrow1Lend"
       style="overflow:visible"
       inkscape:isstock="true">
      <path
         id="path4643"
         d="M 0,0 5,-5 -12.5,0 5,5 Z"
         style="fill:#ffffff;fill-opacity:1;fill-rule:evenodd;stroke:#ffffff;stroke-width:1.00000003pt;stroke-opacity:1"
         transform="matrix(-0.8,0,0,-0.8,-10,0)"
         inkscape:connector-curvature="0" />
    </marker>
    <inkscape:path-effect
       effect="spiro"
       id="path-effect5561"
       is_visible="true" />
    <inkscape:path-effect
       effect="spiro"
       id="path-effect5557"
       is_visible="true" />
    <inkscape:path-effect
       effect="spiro"
       id="path-effect5553"
       is_visible="true" />
    <inkscape:path-effect
       effect="spiro"
       id="path-effect5549"
       is_visible="true" />
    <inkscape:path-effect
       effect="spiro"
       id="path-effect5561-9"
       is_visible="true" />
  </defs>
  <sodipodi:namedview
     id="base"
     pagecolor="#333333"
     bordercolor="#666666"
     borderopacity="1.0"
     inkscape:pageopacity="0"
     inkscape:pageshadow="2"
     inkscape:zoom="0.98994949"
     inkscape:cx="669.31403"
     inkscape:cy="276.65287"
     inkscape:document-units="mm"
     inkscape:current-layer="layer1"
     showgrid="false"
     width="296mm"
     inkscape:window-width="2552"
     inkscape:window-height="1002"
     inkscape:window-x="0"
     inkscape:window-y="36"
     inkscape:window-maximized="0"
     inkscape:lockguides="false"
     showguides="false"
     fit-margin-top="0"
     fit-margin-left="0"
     fit-margin-right="0"
     fit-margin-bottom="0"
     inkscape:pagecheckerboard="true" />
  <metadata
     id="metadata5">
    <rdf:RDF>
      <cc:Work
         rdf:about="">
        <dc:format>image/svg+xml</dc:format>
        <dc:type
           rdf:resource="http://purl.org/dc/dcmitype/StillImage" />
        <dc:title></dc:title>
      </cc:Work>
    </rdf:RDF>
  </metadata>
  <g
     inkscape:label="Layer 1"
     inkscape:groupmode="layer"
     id="layer1"
     transform="translate(-22.348028,-133.62628)">
    <path
       style="fill:none;fill-rule:evenodd;stroke:#ffffff;stroke-width:0.63700002;stroke-linecap:butt;stroke-linejoin:miter;stroke-miterlimit:4;stroke-dasharray:0.637, 3.822;stroke-dashoffset:0;stroke-opacity:1"
       d="m 125.65184,145.3297 v 223.972"
       id="path5571"
       inkscape:connector-curvature="0" />
    <path
       style="fill:none;fill-rule:evenodd;stroke:#ffffff;stroke-width:0.63700002;stroke-linecap:butt;stroke-linejoin:miter;stroke-miterlimit:4;stroke-dasharray:0.63700001, 3.82200004;stroke-dashoffset:0;stroke-opacity:1"
       d="M 250.98518,145.32958 V 369.30155"
       id="path5571-3"
       inkscape:connector-curvature="0" />
    <rect
       style="fill:none;fill-opacity:1;stroke:#ffffff;stroke-width:0.52205431;stroke-linejoin:round;stroke-miterlimit:4;stroke-dasharray:none;stroke-opacity:1"
       id="rect1668"
       width="78.70694"
       height="61.661354"
       x="25.6779"
       y="163.36765"
       rx="4.5043235"
       ry="4.9100833" />
    <text
       xml:space="preserve"
       style="font-style:normal;font-variant:normal;font-weight:normal;font-stretch:normal;font-size:10.58333302px;line-height:6.61458302px;font-family:Roboto;-inkscape-font-specification:Roboto;letter-spacing:0px;word-spacing:0px;fill:#000000;fill-opacity:1;stroke:none;stroke-width:0.26458332px;stroke-linecap:butt;stroke-linejoin:miter;stroke-opacity:1"
       x="31.340019"
       y="189.54585"
       id="text16"><tspan
         sodipodi:role="line"
         x="31.340019"
         y="189.54585"
         style="font-style:normal;font-variant:normal;font-weight:normal;font-stretch:normal;font-size:4.93888903px;line-height:3.54541659px;font-family:Roboto;-inkscape-font-specification:Roboto;writing-mode:lr-tb;fill:#ffffff;fill-opacity:1;stroke-width:0.26458332px"
         id="tspan823">Asset Registers</tspan></text>
    <text
       xml:space="preserve"
       style="font-style:normal;font-variant:normal;font-weight:300;font-stretch:normal;font-size:10.58333302px;line-height:6.61458349px;font-family:Roboto;-inkscape-font-specification:'Roboto Light';letter-spacing:0px;word-spacing:0px;fill:#ffffff;fill-opacity:1;stroke:none;stroke-width:0.26458332px;stroke-linecap:butt;stroke-linejoin:miter;stroke-opacity:1"
       x="43.849388"
       y="142.64124"
       id="text16-7"><tspan
         sodipodi:role="line"
         x="43.849388"
         y="142.64124"
         style="font-style:normal;font-variant:normal;font-weight:300;font-stretch:normal;line-height:10.58333302px;font-family:Roboto;-inkscape-font-specification:'Roboto Light';writing-mode:lr-tb;fill:#ffffff;fill-opacity:1;stroke-width:0.26458332px"
         id="tspan823-7">Observe</tspan></text>
    <text
       xml:space="preserve"
       style="font-style:normal;font-weight:normal;font-size:10.58333302px;line-height:6.61458302px;font-family:sans-serif;letter-spacing:0px;word-spacing:0px;fill:#000000;fill-opacity:1;stroke:none;stroke-width:0.26458332px;stroke-linecap:butt;stroke-linejoin:miter;stroke-opacity:1"
       x="113.85682"
       y="139.44243"
       id="text873"><tspan
         sodipodi:role="line"
         id="tspan871"
         x="113.85682"
         y="145.4989"
         style="stroke-width:0.26458332px" /></text>
    <text
       xml:space="preserve"
       style="font-style:normal;font-variant:normal;font-weight:300;font-stretch:normal;font-size:10.58333302px;line-height:6.61458349px;font-family:Roboto;-inkscape-font-specification:'Roboto Light';letter-spacing:0px;word-spacing:0px;fill:#000000;fill-opacity:1;stroke:none;stroke-width:0.26458332px;stroke-linecap:butt;stroke-linejoin:miter;stroke-opacity:1"
       x="175.1927"
       y="142.43452"
       id="text16-4"><tspan
         sodipodi:role="line"
         x="175.1927"
         y="142.43452"
         style="font-style:normal;font-variant:normal;font-weight:300;font-stretch:normal;line-height:10.58333302px;font-family:Roboto;-inkscape-font-specification:'Roboto Light';writing-mode:lr-tb;fill:#ffffff;fill-opacity:1;stroke-width:0.26458332px"
         id="tspan823-1">Learn</tspan></text>
    <text
       xml:space="preserve"
       style="font-style:normal;font-weight:normal;font-size:10.58333302px;line-height:6.61458302px;font-family:sans-serif;letter-spacing:0px;word-spacing:0px;fill:#000000;fill-opacity:1;stroke:none;stroke-width:0.26458332px;stroke-linecap:butt;stroke-linejoin:miter;stroke-opacity:1"
       x="143.52373"
       y="179.53249"
       id="text889"><tspan
         sodipodi:role="line"
         id="tspan887"
         x="143.52373"
         y="185.58896"
         style="stroke-width:0.26458332px" /></text>
    <text
       xml:space="preserve"
       style="font-style:normal;font-variant:normal;font-weight:300;font-stretch:normal;font-size:10.58333302px;line-height:6.61458349px;font-family:Roboto;-inkscape-font-specification:'Roboto Light';letter-spacing:0px;word-spacing:0px;fill:#000000;fill-opacity:1;stroke:none;stroke-width:0.26458332px;stroke-linecap:butt;stroke-linejoin:miter;stroke-opacity:1"
       x="301.03076"
       y="141.56378"
       id="text16-7-7"><tspan
         sodipodi:role="line"
         x="301.03076"
         y="141.56378"
         style="font-style:normal;font-variant:normal;font-weight:300;font-stretch:normal;line-height:10.58333302px;font-family:Roboto;-inkscape-font-specification:'Roboto Light';writing-mode:lr-tb;fill:#ffffff;fill-opacity:1;stroke-width:0.26458332px"
         id="tspan823-7-0">Apply</tspan></text>
    <text
       xml:space="preserve"
       style="font-style:normal;font-weight:normal;font-size:10.58333302px;line-height:6.61458302px;font-family:sans-serif;letter-spacing:0px;word-spacing:0px;fill:#000000;fill-opacity:1;stroke:none;stroke-width:0.26458332px;stroke-linecap:butt;stroke-linejoin:miter;stroke-opacity:1"
       x="150.05655"
       y="185.11852"
       id="text1015"><tspan
         sodipodi:role="line"
         id="tspan1013"
         x="150.05655"
         y="191.17499"
         style="stroke-width:0.26458332px" /></text>
    <path
       id="path1065"
       d="m 53.445095,168.29795 q 0.215854,0 0.373594,0.15775 0.15774,0.15773 0.15774,0.37359 v 13.81468 q 0,0.21585 -0.15774,0.37359 -0.15774,0.15774 -0.373594,0.15774 H 42.818418 q -0.215856,0 -0.373595,-0.15774 -0.15774,-0.15774 -0.15774,-0.37359 v -13.81468 q 0,-0.21586 0.15774,-0.37359 0.157739,-0.15775 0.373595,-0.15775 z m -6.907341,2.391 v 0.53134 q 0,0.11623 0.07472,0.19095 0.07472,0.0747 0.190948,0.0747 h 0.531334 q 0.116229,0 0.190948,-0.0747 0.07472,-0.0747 0.07472,-0.19095 v -0.53134 q 0,-0.11623 -0.07472,-0.19095 -0.07472,-0.0747 -0.190948,-0.0747 h -0.531334 q -0.116229,0 -0.190948,0.0747 -0.07472,0.0747 -0.07472,0.19095 z m 0,2.12534 v 0.53134 q 0,0.11622 0.07472,0.19094 0.07472,0.0747 0.190948,0.0747 h 0.531334 q 0.116229,0 0.190948,-0.0747 0.07472,-0.0747 0.07472,-0.19094 v -0.53134 q 0,-0.11623 -0.07472,-0.19094 -0.07472,-0.0747 -0.190948,-0.0747 h -0.531334 q -0.116229,0 -0.190948,0.0747 -0.07472,0.0747 -0.07472,0.19094 z m 0,2.12534 v 0.53133 q 0,0.11623 0.07472,0.19095 0.07472,0.0747 0.190948,0.0747 h 0.531334 q 0.116229,0 0.190948,-0.0747 0.07472,-0.0747 0.07472,-0.19095 v -0.53133 q 0,-0.11623 -0.07472,-0.19095 -0.07472,-0.0747 -0.190948,-0.0747 h -0.531334 q -0.116229,0 -0.190948,0.0747 -0.07472,0.0747 -0.07472,0.19095 z m 0,2.12533 v 0.53134 q 0,0.11623 0.07472,0.19094 0.07472,0.0747 0.190948,0.0747 h 0.531334 q 0.116229,0 0.190948,-0.0747 0.07472,-0.0747 0.07472,-0.19094 v -0.53134 q 0,-0.11623 -0.07472,-0.19095 -0.07472,-0.0747 -0.190948,-0.0747 h -0.531334 q -0.116229,0 -0.190948,0.0747 -0.07472,0.0747 -0.07472,0.19095 z m -1.062667,2.65667 v -0.53133 q 0,-0.11623 -0.07472,-0.19095 -0.07472,-0.0747 -0.190948,-0.0747 h -0.531334 q -0.116229,0 -0.190949,0.0747 -0.07472,0.0747 -0.07472,0.19095 v 0.53133 q 0,0.11623 0.07472,0.19095 0.07472,0.0747 0.190949,0.0747 h 0.531334 q 0.116229,0 0.190948,-0.0747 0.07472,-0.0747 0.07472,-0.19095 z m 0,-2.12533 v -0.53134 q 0,-0.11623 -0.07472,-0.19095 -0.07472,-0.0747 -0.190948,-0.0747 h -0.531334 q -0.116229,0 -0.190949,0.0747 -0.07472,0.0747 -0.07472,0.19095 v 0.53134 q 0,0.11623 0.07472,0.19094 0.07472,0.0747 0.190949,0.0747 h 0.531334 q 0.116229,0 0.190948,-0.0747 0.07472,-0.0747 0.07472,-0.19094 z m 0,-2.12534 v -0.53133 q 0,-0.11623 -0.07472,-0.19095 -0.07472,-0.0747 -0.190948,-0.0747 h -0.531334 q -0.116229,0 -0.190949,0.0747 -0.07472,0.0747 -0.07472,0.19095 v 0.53133 q 0,0.11623 0.07472,0.19095 0.07472,0.0747 0.190949,0.0747 h 0.531334 q 0.116229,0 0.190948,-0.0747 0.07472,-0.0747 0.07472,-0.19095 z m 0,-2.12533 v -0.53134 q 0,-0.11623 -0.07472,-0.19094 -0.07472,-0.0747 -0.190948,-0.0747 h -0.531334 q -0.116229,0 -0.190949,0.0747 -0.07472,0.0747 -0.07472,0.19094 v 0.53134 q 0,0.11622 0.07472,0.19094 0.07472,0.0747 0.190949,0.0747 h 0.531334 q 0.116229,0 0.190948,-0.0747 0.07472,-0.0747 0.07472,-0.19094 z m 0,-2.12534 v -0.53134 q 0,-0.11623 -0.07472,-0.19095 -0.07472,-0.0747 -0.190948,-0.0747 h -0.531334 q -0.116229,0 -0.190949,0.0747 -0.07472,0.0747 -0.07472,0.19095 v 0.53134 q 0,0.11623 0.07472,0.19095 0.07472,0.0747 0.190949,0.0747 h 0.531334 q 0.116229,0 0.190948,-0.0747 0.07472,-0.0747 0.07472,-0.19095 z m 4.250671,10.62668 v -1.594 q 0,-0.11624 -0.07472,-0.19095 -0.07472,-0.0747 -0.190948,-0.0747 h -2.65667 q -0.116229,0 -0.190948,0.0747 -0.07472,0.0747 -0.07472,0.19095 v 1.594 q 0,0.11623 0.07472,0.19095 0.07472,0.0747 0.190948,0.0747 h 2.65667 q 0.116228,0 0.190948,-0.0747 0.07472,-0.0747 0.07472,-0.19095 z m 0,-4.25067 v -0.53134 q 0,-0.11623 -0.07472,-0.19095 -0.07472,-0.0747 -0.190948,-0.0747 h -0.531335 q -0.116229,0 -0.190947,0.0747 -0.07472,0.0747 -0.07472,0.19095 v 0.53134 q 0,0.11623 0.07472,0.19094 0.07472,0.0747 0.190947,0.0747 h 0.531335 q 0.116228,0 0.190948,-0.0747 0.07472,-0.0747 0.07472,-0.19094 z m 0,-2.12534 v -0.53133 q 0,-0.11623 -0.07472,-0.19095 -0.07472,-0.0747 -0.190948,-0.0747 h -0.531335 q -0.116229,0 -0.190947,0.0747 -0.07472,0.0747 -0.07472,0.19095 v 0.53133 q 0,0.11623 0.07472,0.19095 0.07472,0.0747 0.190947,0.0747 h 0.531335 q 0.116228,0 0.190948,-0.0747 0.07472,-0.0747 0.07472,-0.19095 z m 0,-2.12533 v -0.53134 q 0,-0.11623 -0.07472,-0.19094 -0.07472,-0.0747 -0.190948,-0.0747 h -0.531335 q -0.116229,0 -0.190947,0.0747 -0.07472,0.0747 -0.07472,0.19094 v 0.53134 q 0,0.11622 0.07472,0.19094 0.07472,0.0747 0.190947,0.0747 h 0.531335 q 0.116228,0 0.190948,-0.0747 0.07472,-0.0747 0.07472,-0.19094 z m 0,-2.12534 v -0.53134 q 0,-0.11623 -0.07472,-0.19095 -0.07472,-0.0747 -0.190948,-0.0747 h -0.531335 q -0.116229,0 -0.190947,0.0747 -0.07472,0.0747 -0.07472,0.19095 v 0.53134 q 0,0.11623 0.07472,0.19095 0.07472,0.0747 0.190947,0.0747 h 0.531335 q 0.116228,0 0.190948,-0.0747 0.07472,-0.0747 0.07472,-0.19095 z m 2.125336,8.50134 v -0.53133 q 0,-0.11623 -0.07472,-0.19095 -0.07472,-0.0747 -0.190949,-0.0747 h -0.531333 q -0.11623,0 -0.190949,0.0747 -0.07472,0.0747 -0.07472,0.19095 v 0.53133 q 0,0.11623 0.07472,0.19095 0.07472,0.0747 0.190949,0.0747 h 0.531333 q 0.116229,0 0.190949,-0.0747 0.07472,-0.0747 0.07472,-0.19095 z m 0,-2.12533 v -0.53134 q 0,-0.11623 -0.07472,-0.19095 -0.07472,-0.0747 -0.190949,-0.0747 h -0.531333 q -0.11623,0 -0.190949,0.0747 -0.07472,0.0747 -0.07472,0.19095 v 0.53134 q 0,0.11623 0.07472,0.19094 0.07472,0.0747 0.190949,0.0747 h 0.531333 q 0.116229,0 0.190949,-0.0747 0.07472,-0.0747 0.07472,-0.19094 z m 0,-2.12534 v -0.53133 q 0,-0.11623 -0.07472,-0.19095 -0.07472,-0.0747 -0.190949,-0.0747 h -0.531333 q -0.11623,0 -0.190949,0.0747 -0.07472,0.0747 -0.07472,0.19095 v 0.53133 q 0,0.11623 0.07472,0.19095 0.07472,0.0747 0.190949,0.0747 h 0.531333 q 0.116229,0 0.190949,-0.0747 0.07472,-0.0747 0.07472,-0.19095 z m 0,-2.12533 v -0.53134 q 0,-0.11623 -0.07472,-0.19094 -0.07472,-0.0747 -0.190949,-0.0747 h -0.531333 q -0.11623,0 -0.190949,0.0747 -0.07472,0.0747 -0.07472,0.19094 v 0.53134 q 0,0.11622 0.07472,0.19094 0.07472,0.0747 0.190949,0.0747 h 0.531333 q 0.116229,0 0.190949,-0.0747 0.07472,-0.0747 0.07472,-0.19094 z m 0,-2.12534 v -0.53134 q 0,-0.11623 -0.07472,-0.19095 -0.07472,-0.0747 -0.190949,-0.0747 h -0.531333 q -0.11623,0 -0.190949,0.0747 -0.07472,0.0747 -0.07472,0.19095 v 0.53134 q 0,0.11623 0.07472,0.19095 0.07472,0.0747 0.190949,0.0747 h 0.531333 q 0.116229,0 0.190949,-0.0747 0.07472,-0.0747 0.07472,-0.19095 z"
       inkscape:connector-curvature="0"
       style="fill:#ffffff;fill-opacity:1;stroke-width:0.00830209" />
    <path
       id="path1124"
       d="m 80.71119,174.81145 q -1.384628,0.0427 -2.264978,1.09402 h -1.14531 q -0.700861,0 -1.1795,-0.34615 -0.478637,-0.34616 -0.478637,-1.01283 0,-3.01713 1.059839,-3.01713 0.05129,0 0.371798,0.17949 0.320517,0.1795 0.833343,0.36326 0.512824,0.18376 1.017104,0.18376 0.572654,0 1.136762,-0.19658 -0.04273,0.31624 -0.04273,0.56411 0,1.18804 0.692311,2.18805 z m 9.153936,5.4445 q 0,1.02565 -0.623935,1.61967 -0.623939,0.59402 -1.658137,0.59402 h -7.470159 q -1.034198,0 -1.658136,-0.59402 -0.623938,-0.59402 -0.623938,-1.61967 0,-0.453 0.02992,-0.88463 0.02992,-0.43163 0.119658,-0.93162 0.08975,-0.50001 0.226499,-0.92737 0.136753,-0.42735 0.367524,-0.83334 0.230774,-0.40599 0.529922,-0.69231 0.299147,-0.28633 0.730775,-0.45727 0.431629,-0.17094 0.953002,-0.17094 0.08547,0 0.367524,0.18376 0.282055,0.18376 0.623938,0.41026 0.341884,0.22649 0.91454,0.41026 0.572654,0.18376 1.153857,0.18376 0.581203,0 1.153857,-0.18376 0.572656,-0.18377 0.914539,-0.41026 0.341884,-0.2265 0.623938,-0.41026 0.282053,-0.18376 0.367525,-0.18376 0.521373,0 0.953002,0.17094 0.431626,0.17094 0.730775,0.45727 0.299148,0.28632 0.529919,0.69231 0.230773,0.40599 0.367526,0.83334 0.136754,0.42736 0.226497,0.92737 0.08975,0.49999 0.119661,0.93162 0.02991,0.43163 0.02991,0.88463 z m -8.752223,-10.91464 q 0,0.90599 -0.64103,1.54702 -0.641033,0.64103 -1.547024,0.64103 -0.905992,0 -1.547025,-0.64103 -0.64103,-0.64103 -0.64103,-1.54702 0,-0.90599 0.64103,-1.54703 0.641033,-0.64103 1.547025,-0.64103 0.905991,0 1.547024,0.64103 0.64103,0.64104 0.64103,1.54703 z m 6.017155,3.28209 q 0,1.35898 -0.96155,2.32053 -0.961547,0.96154 -2.320533,0.96154 -1.358989,0 -2.320537,-0.96154 -0.961547,-0.96155 -0.961547,-2.32053 0,-1.359 0.961547,-2.32054 0.961548,-0.96155 2.320537,-0.96155 1.358986,0 2.320533,0.96155 0.96155,0.96154 0.96155,2.32054 z m 4.923125,1.92309 q 0,0.66667 -0.478638,1.01283 -0.478636,0.34615 -1.179498,0.34615 h -1.145311 q -0.88035,-1.05129 -2.26498,-1.09402 0.692316,-1.00001 0.692316,-2.18805 0,-0.24787 -0.04274,-0.56411 0.564108,0.19658 1.136765,0.19658 0.504277,0 1.017104,-0.18376 0.512826,-0.18376 0.833343,-0.36326 0.320513,-0.17949 0.371795,-0.17949 1.059842,0 1.059842,3.01713 z m -1.094028,-5.20518 q 0,0.90599 -0.641031,1.54702 -0.641033,0.64103 -1.547024,0.64103 -0.905993,0 -1.547025,-0.64103 -0.641032,-0.64103 -0.641032,-1.54702 0,-0.90599 0.641032,-1.54703 0.641032,-0.64103 1.547025,-0.64103 0.905991,0 1.547024,0.64103 0.641031,0.64104 0.641031,1.54703 z"
       inkscape:connector-curvature="0"
       style="fill:#ffffff;fill-opacity:1;stroke-width:0.00854709" />
    <text
       xml:space="preserve"
       style="font-style:normal;font-variant:normal;font-weight:normal;font-stretch:normal;font-size:10.58333302px;line-height:6.61458349px;font-family:Roboto;-inkscape-font-specification:Roboto;text-align:center;letter-spacing:0px;word-spacing:0px;text-anchor:middle;fill:#000000;fill-opacity:1;stroke:none;stroke-width:0.26458332px;stroke-linecap:butt;stroke-linejoin:miter;stroke-opacity:1"
       x="83.716545"
       y="189.7412"
       id="text16-6"><tspan
         sodipodi:role="line"
         x="84.329086"
         y="189.7412"
         style="font-style:normal;font-variant:normal;font-weight:normal;font-stretch:normal;font-size:4.93888903px;line-height:3.54541659px;font-family:Roboto;-inkscape-font-specification:Roboto;text-align:center;writing-mode:lr-tb;text-anchor:middle;fill:#ffffff;fill-opacity:1;stroke-width:0.26458332px"
         id="tspan1158">Workforce </tspan><tspan
         sodipodi:role="line"
         x="83.716545"
         y="196.35577"
         style="font-style:normal;font-variant:normal;font-weight:normal;font-stretch:normal;font-size:4.93888903px;line-height:3.54541659px;font-family:Roboto;-inkscape-font-specification:Roboto;text-align:center;writing-mode:lr-tb;text-anchor:middle;fill:#ffffff;fill-opacity:1;stroke-width:0.26458332px"
         id="tspan1584">Management</tspan></text>
    <path
       id="path1208"
       d="m 42.530909,205.8923 q 0,-0.52785 -0.373478,-0.90132 -0.373481,-0.37349 -0.901332,-0.37349 -0.52785,0 -0.90133,0.37349 -0.373478,0.37347 -0.373478,0.90132 0,0.52786 0.373478,0.90134 0.37348,0.37347 0.90133,0.37347 0.527851,0 0.901332,-0.37347 0.373478,-0.37348 0.373478,-0.90134 z m 1.912218,-4.46183 q 0,-0.52785 -0.373481,-0.90133 -0.37348,-0.37348 -0.901331,-0.37348 -0.527851,0 -0.901331,0.37348 -0.373478,0.37348 -0.373478,0.90133 0,0.52785 0.373478,0.90133 0.37348,0.37348 0.901331,0.37348 0.527851,0 0.901331,-0.37348 0.373481,-0.37348 0.373481,-0.90133 z m 4.262645,4.7905 1.005905,-3.80451 q 0.05976,-0.25894 -0.07469,-0.48304 -0.134453,-0.22409 -0.383439,-0.2938 -0.248986,-0.0697 -0.478052,0.0647 -0.22907,0.13445 -0.298785,0.3934 l -1.005906,3.80452 q -0.597566,0.0498 -1.06566,0.43323 -0.468096,0.38344 -0.627447,0.98101 -0.199188,0.76688 0.199188,1.45408 0.398381,0.6872 1.165257,0.88639 0.766878,0.19919 1.454082,-0.19919 0.687201,-0.39838 0.886392,-1.16525 0.15935,-0.59757 -0.05976,-1.16526 -0.21911,-0.56769 -0.717081,-0.90631 z m 6.573241,-0.32867 q 0,-0.52785 -0.373478,-0.90132 -0.373481,-0.37349 -0.901332,-0.37349 -0.527853,0 -0.901331,0.37349 -0.373479,0.37347 -0.373479,0.90132 0,0.52786 0.373479,0.90134 0.373478,0.37347 0.901331,0.37347 0.527851,0 0.901332,-0.37347 0.373478,-0.37348 0.373478,-0.90134 z m -6.37405,-6.37405 q 0,-0.52785 -0.373482,-0.90133 -0.37348,-0.37347 -0.90133,-0.37347 -0.527851,0 -0.901331,0.37347 -0.373479,0.37348 -0.373479,0.90133 0,0.52786 0.373479,0.90134 0.37348,0.37347 0.901331,0.37347 0.52785,0 0.90133,-0.37347 0.373482,-0.37348 0.373482,-0.90134 z m 4.461835,1.91222 q 0,-0.52785 -0.37348,-0.90133 -0.373478,-0.37348 -0.901329,-0.37348 -0.527853,0 -0.901332,0.37348 -0.37348,0.37348 -0.37348,0.90133 0,0.52785 0.37348,0.90133 0.373479,0.37348 0.901332,0.37348 0.527851,0 0.901329,-0.37348 0.37348,-0.37348 0.37348,-0.90133 z m 3.187026,4.46183 q 0,2.59942 -1.404284,4.81042 -0.189229,0.28883 -0.537811,0.28883 H 40.648573 q -0.348581,0 -0.53781,-0.28883 -1.404284,-2.20103 -1.404284,-4.81042 0,-1.81262 0.707122,-3.46589 0.707121,-1.65327 1.902256,-2.84839 1.195134,-1.19514 2.848404,-1.90226 1.653268,-0.70713 3.46589,-0.70713 1.812621,0 3.465891,0.70713 1.65327,0.70712 2.848404,1.90226 1.195136,1.19512 1.902257,2.84839 0.707121,1.65327 0.707121,3.46589 z"
       inkscape:connector-curvature="0"
       style="fill:#ffffff;fill-opacity:1;stroke-width:0.00995946" />
    <text
       xml:space="preserve"
       style="font-style:normal;font-variant:normal;font-weight:normal;font-stretch:normal;font-size:10.58333302px;line-height:6.61458349px;font-family:Roboto;-inkscape-font-specification:Roboto;letter-spacing:0px;word-spacing:0px;fill:#000000;fill-opacity:1;stroke:none;stroke-width:0.26458332px;stroke-linecap:butt;stroke-linejoin:miter;stroke-opacity:1"
       x="32.379406"
       y="218.42442"
       id="text16-6-5"><tspan
         sodipodi:role="line"
         x="32.379406"
         y="218.42442"
         style="font-style:normal;font-variant:normal;font-weight:normal;font-stretch:normal;font-size:4.93888903px;line-height:3.54541659px;font-family:Roboto;-inkscape-font-specification:Roboto;writing-mode:lr-tb;fill:#ffffff;fill-opacity:1;stroke-width:0.26458332px"
         id="tspan1158-9">Telemetry/IoT</tspan></text>
    <g
       style="fill:#ffffff"
       id="g10"
       transform="matrix(0.06651514,0,0,-0.06651514,165.6041,244.87127)">
      <g
         id="g12"
         transform="scale(0.1)"
         style="fill:#ffffff">
        <path
           d="m 6409.46,919.234 2.25,-1.3 v 169.906 l -983.16,567.63 -542.14,313 -733.94,-423.84 c -141.19,-81.49 -240.08,-83.61 -387.6,1.69 l -61.44,35.5 -264.03,152.41 V 541.328 l 122.49,-70.703 59.88,-34.594 c 255.76,-147.734 427.13,-144.008 671.81,-2.683 L 5566.8,1168.41 6406.69,714.004 Z m -3288.17,998.626 -217.87,125.73 -46.77,27.02 -46.76,26.98 c -205.14,118.46 -264.24,195.7 -264.24,426.7 v 435.09 646.78 c 0,190.91 50.87,306.38 224.84,407.09 l 75.04,43.61 3.29,1.85 6.02,3.51 6.1,3.47 3.03,1.77 8.97,5.2 6.01,3.5 242.34,140.03 V 5421.9 c -140.07,-80.44 -279.83,-161.37 -419.56,-242.42 l -0.99,-0.56 -1.64,-0.96 -368.9,-214.49 -8.7,-5.02 C 2180.34,4876.35 2039.28,4794.21 1898,4712.38 1596.38,4537.63 1508.36,4337.6 1508.36,4006.71 l -0.09,-1121.1 v -754.16 c 0,-400.38 102.32,-534.34 457.96,-739.66 l 546.95,-315.82 88.41,-51 88.41,-51.009 v -0.043 0 L 3004.17,792.586 3121.29,725 Z m 318.11,2482.26 218.96,126.56 4.93,2.86 2.08,1.17 71.14,40.22 c 173.71,97.94 311.01,81.23 466.97,-11.61 314.21,-186.87 632.88,-366.25 949.86,-548.49 163.5,-93.96 221.04,-184.75 221.04,-382.41 v -646.7 -173.62 l 1037.33,-598.89 v 357.55 357.51 1121.11 c 0,342.57 -99.72,500.05 -383.06,662.89 -549.45,315.94 -1101.88,626.73 -1646.52,950.69 -270.53,160.98 -508.41,189.86 -809.55,20.09 l -73.95,-41.78 -3.11,-1.82 -1.48,-0.78 -54.64,-30.96 V 4400.12"
           style="fill:#ffffff;fill-opacity:1;fill-rule:evenodd;stroke:none"
           id="path14"
           inkscape:connector-curvature="0" />
        <path
           d="m 3121.31,3000.37 v -258.04 c -0.02,-136.97 34.98,-182.79 156.66,-253.04 l 187.11,-107.99 379.25,-218.95 c 87.47,-50.53 146.08,-49.27 229.79,-0.91 l 568.89,328.45 1768.72,-1021.18 v 359.63 l -1612.99,931.26 -0.02,253.95 v 383.54 c 0,117.2 -34.07,171.03 -131.03,226.79 -187.95,108.09 -376.95,214.43 -563.28,325.26 -92.53,55.03 -173.96,64.94 -276.92,6.84 -192.04,-108.31 -382.11,-220.13 -572.92,-330.68 -103.16,-59.78 -133.26,-128.25 -133.28,-241.44 l 0.02,-383.49"
           style="fill:#ffffff;fill-opacity:1;fill-rule:evenodd;stroke:none"
           id="path16"
           inkscape:connector-curvature="0" />
      </g>
    </g>
    <path
       id="path1467"
       d="m 309.11867,179.66628 q 0,-0.89663 -0.63442,-1.53105 -0.6344,-0.63441 -1.53105,-0.63441 -0.89664,0 -1.53105,0.63441 -0.63441,0.63442 -0.63441,1.53105 0,0.89664 0.63441,1.53106 0.63441,0.63441 1.53105,0.63441 0.89665,0 1.53105,-0.63441 0.63442,-0.63442 0.63442,-1.53106 z m 6.49641,4.33094 q 0,-0.43986 -0.32144,-0.7613 -0.32144,-0.32143 -0.76131,-0.32143 -0.43985,0 -0.76129,0.32143 -0.32144,0.32144 -0.32144,0.7613 0,0.44832 0.31721,0.76553 0.31722,0.3172 0.76552,0.3172 0.44833,0 0.76554,-0.3172 0.31721,-0.31721 0.31721,-0.76553 z m 0,-8.66187 q 0,-0.43986 -0.32144,-0.76129 -0.32144,-0.32145 -0.76131,-0.32145 -0.43985,0 -0.76129,0.32145 -0.32144,0.32143 -0.32144,0.76129 0,0.44832 0.31721,0.76553 0.31722,0.31721 0.76552,0.31721 0.44833,0 0.76554,-0.31721 0.31721,-0.31721 0.31721,-0.76553 z m -3.24821,3.56118 v 1.56489 q 0,0.0846 -0.0592,0.16494 -0.0592,0.0804 -0.13534,0.0889 l -1.31112,0.20301 q -0.0931,0.29607 -0.27069,0.64287 0.2876,0.40603 0.7613,0.97278 0.0592,0.0846 0.0592,0.16917 0,0.10151 -0.0592,0.16072 -0.19456,0.25377 -0.69786,0.75707 -0.50329,0.5033 -0.66402,0.5033 -0.0931,0 -0.17763,-0.0592 l -0.97277,-0.7613 q -0.31298,0.16073 -0.65134,0.26224 -0.093,0.91355 -0.19455,1.31112 -0.0592,0.20301 -0.25376,0.20301 h -1.57336 q -0.093,0 -0.16917,-0.0634 -0.0761,-0.0635 -0.0846,-0.14803 l -0.19455,-1.2942 q -0.2876,-0.0846 -0.63442,-0.26222 l -0.99815,0.75283 q -0.0592,0.0592 -0.16917,0.0592 -0.0931,0 -0.17763,-0.0677 -1.21808,-1.12502 -1.21808,-1.35341 0,-0.0761 0.0592,-0.16072 0.0846,-0.11842 0.34682,-0.44832 0.26222,-0.3299 0.39755,-0.516 -0.19454,-0.37218 -0.29605,-0.69362 l -1.28575,-0.20301 q -0.0846,-0.008 -0.1438,-0.0803 -0.0592,-0.0719 -0.0592,-0.16495 v -1.5649 q 0,-0.0846 0.0592,-0.16494 0.0592,-0.0804 0.13534,-0.0889 l 1.31112,-0.20301 q 0.0931,-0.29605 0.27069,-0.64287 -0.2876,-0.40603 -0.7613,-0.97276 -0.0592,-0.0931 -0.0592,-0.16919 0,-0.1015 0.0592,-0.16917 0.1861,-0.25377 0.69363,-0.75284 0.50753,-0.49907 0.66825,-0.49907 0.0931,0 0.17763,0.0592 l 0.97277,0.7613 q 0.2876,-0.15226 0.65134,-0.27068 0.0931,-0.91357 0.19455,-1.30267 0.0592,-0.20302 0.25376,-0.20302 h 1.57336 q 0.0931,0 0.16917,0.0634 0.0761,0.0635 0.0846,0.14803 l 0.19455,1.29421 q 0.2876,0.0846 0.63442,0.26222 l 0.99814,-0.75284 q 0.0677,-0.0592 0.16918,-0.0592 0.0931,0 0.17764,0.0677 1.21808,1.12503 1.21808,1.35341 0,0.0761 -0.0592,0.16072 -0.1015,0.13535 -0.35527,0.45678 -0.25376,0.32144 -0.38065,0.50754 0.19456,0.40602 0.2876,0.69363 l 1.28575,0.19455 q 0.0846,0.0169 0.1438,0.0888 0.0592,0.072 0.0592,0.16494 z m 5.41367,4.50857 v 1.18424 q 0,0.13534 -1.26037,0.26223 -0.1015,0.22838 -0.25376,0.43986 0.4314,0.95585 0.4314,1.16732 0,0.0338 -0.0338,0.0592 -1.03198,0.60058 -1.04889,0.60058 -0.0677,0 -0.38911,-0.39757 -0.32144,-0.39756 -0.43986,-0.5752 -0.16918,0.0169 -0.25378,0.0169 -0.0846,0 -0.25376,-0.0169 -0.11842,0.17764 -0.43986,0.5752 -0.32144,0.39757 -0.38911,0.39757 -0.0169,0 -1.0489,-0.60058 -0.0338,-0.0254 -0.0338,-0.0592 0,-0.21147 0.4314,-1.16732 -0.15226,-0.21148 -0.25377,-0.43986 -1.26037,-0.12689 -1.26037,-0.26223 v -1.18424 q 0,-0.13534 1.26037,-0.26222 0.10997,-0.24531 0.25377,-0.43986 -0.4314,-0.95586 -0.4314,-1.16733 0,-0.0338 0.0338,-0.0592 0.0338,-0.0169 0.29607,-0.16918 0.26222,-0.15226 0.49907,-0.28759 0.23685,-0.13535 0.25376,-0.13535 0.0677,0 0.38911,0.39334 0.32144,0.39334 0.43986,0.57097 0.16918,-0.0169 0.25376,-0.0169 0.0846,0 0.25378,0.0169 0.4314,-0.60058 0.77821,-0.94739 l 0.0508,-0.0169 q 0.0338,0 1.04889,0.59211 0.0338,0.0254 0.0338,0.0592 0,0.21147 -0.4314,1.16732 0.1438,0.19455 0.25376,0.43986 1.26037,0.12689 1.26037,0.26222 z m 0,-8.66187 v 1.18424 q 0,0.13534 -1.26037,0.26223 -0.1015,0.22839 -0.25376,0.43985 0.4314,0.95586 0.4314,1.16733 0,0.0338 -0.0338,0.0592 -1.03198,0.60058 -1.04889,0.60058 -0.0677,0 -0.38911,-0.39757 -0.32144,-0.39756 -0.43986,-0.5752 -0.16918,0.0169 -0.25378,0.0169 -0.0846,0 -0.25376,-0.0169 -0.11842,0.17764 -0.43986,0.5752 -0.32144,0.39757 -0.38911,0.39757 -0.0169,0 -1.0489,-0.60058 -0.0338,-0.0254 -0.0338,-0.0592 0,-0.21147 0.4314,-1.16733 -0.15226,-0.21146 -0.25377,-0.43985 -1.26037,-0.12689 -1.26037,-0.26223 v -1.18424 q 0,-0.13534 1.26037,-0.26223 0.10997,-0.2453 0.25377,-0.43986 -0.4314,-0.95585 -0.4314,-1.16732 0,-0.0338 0.0338,-0.0592 0.0338,-0.0169 0.29607,-0.16918 0.26222,-0.15225 0.49907,-0.2876 0.23685,-0.13534 0.25376,-0.13534 0.0677,0 0.38911,0.39333 0.32144,0.39334 0.43986,0.57098 0.16918,-0.0169 0.25376,-0.0169 0.0846,0 0.25378,0.0169 0.4314,-0.60058 0.77821,-0.9474 l 0.0508,-0.0169 q 0.0338,0 1.04889,0.59212 0.0338,0.0254 0.0338,0.0592 0,0.21146 -0.4314,1.16731 0.1438,0.19456 0.25376,0.43986 1.26037,0.12688 1.26037,0.26223 z"
       inkscape:connector-curvature="0"
       style="fill:#ffffff;fill-opacity:1;stroke-width:0.00845886" />
    <text
       xml:space="preserve"
       style="font-style:normal;font-variant:normal;font-weight:normal;font-stretch:normal;font-size:10.58333302px;line-height:6.61458349px;font-family:Roboto;-inkscape-font-specification:Roboto;text-align:center;letter-spacing:0px;word-spacing:0px;text-anchor:middle;fill:#000000;fill-opacity:1;stroke:none;stroke-width:0.26458332px;stroke-linecap:butt;stroke-linejoin:miter;stroke-opacity:1"
       x="328.52621"
       y="234.39331"
       id="text16-41"><tspan
         sodipodi:role="line"
         x="328.52621"
         y="234.39331"
         style="font-style:normal;font-variant:normal;font-weight:normal;font-stretch:normal;font-size:4.93888903px;line-height:3.54541659px;font-family:Roboto;-inkscape-font-specification:Roboto;text-align:center;writing-mode:lr-tb;text-anchor:middle;fill:#ffffff;fill-opacity:1;stroke-width:0.26458332px"
         id="tspan823-4">Schedule</tspan><tspan
         sodipodi:role="line"
         x="328.52621"
         y="241.00789"
         style="font-style:normal;font-variant:normal;font-weight:normal;font-stretch:normal;font-size:4.93888903px;line-height:3.54541659px;font-family:Roboto;-inkscape-font-specification:Roboto;text-align:center;writing-mode:lr-tb;text-anchor:middle;fill:#ffffff;fill-opacity:1;stroke-width:0.26458332px"
         id="tspan1582">Maintenance</tspan></text>
    <path
       id="path1553"
       d="m 321.88357,225.91951 h 2.76924 v -2.76923 h -2.76924 z m 3.38463,0 h 3.07693 v -2.76923 h -3.07693 z m -3.38463,-3.38462 h 2.76924 v -3.07692 h -2.76924 z m 3.38463,0 h 3.07693 v -3.07692 h -3.07693 z m -3.38463,-3.6923 h 2.76924 v -2.76923 h -2.76924 z m 7.07692,7.07692 h 3.07693 v -2.76923 h -3.07693 z m -3.69229,-7.07692 h 3.07693 v -2.76923 h -3.07693 z m 7.38461,7.07692 h 2.76924 v -2.76923 h -2.76924 z m -3.69232,-3.38462 h 3.07693 v -3.07692 h -3.07693 z m -3.3846,-8.30769 v -2.76923 q 0,-0.125 -0.0914,-0.21634 -0.0913,-0.0914 -0.21633,-0.0914 h -0.61539 q -0.125,0 -0.21635,0.0914 -0.0913,0.0913 -0.0913,0.21634 v 2.76923 q 0,0.125 0.0913,0.21635 0.0914,0.0913 0.21635,0.0913 h 0.61539 q 0.125,0 0.21633,-0.0913 0.0914,-0.0914 0.0914,-0.21635 z m 7.07692,8.30769 h 2.76924 v -3.07692 h -2.76924 z m -3.69232,-3.6923 h 3.07693 v -2.76923 h -3.07693 z m 3.69232,0 h 2.76924 v -2.76923 h -2.76924 z m 0.30769,-4.61539 v -2.76923 q 0,-0.125 -0.0913,-0.21634 -0.0913,-0.0914 -0.21635,-0.0914 h -0.61539 q -0.125,0 -0.21634,0.0914 -0.0914,0.0913 -0.0914,0.21634 v 2.76923 q 0,0.125 0.0914,0.21635 0.0913,0.0913 0.21634,0.0913 h 0.61539 q 0.125,0 0.21635,-0.0913 0.0913,-0.0914 0.0913,-0.21635 z m 3.69231,-0.61539 v 12.3077 q 0,0.5 -0.36538,0.86539 -0.36539,0.36537 -0.86538,0.36537 h -13.53848 q -0.49999,0 -0.86538,-0.36537 -0.36538,-0.36539 -0.36538,-0.86539 v -12.3077 q 0,-0.49999 0.36538,-0.86538 0.36539,-0.36538 0.86538,-0.36538 h 1.23078 v -0.92308 q 0,-0.63462 0.45193,-1.08654 0.45192,-0.45192 1.08653,-0.45192 h 0.61539 q 0.63462,0 1.08653,0.45192 0.45193,0.45192 0.45193,1.08654 v 0.92308 h 3.6923 v -0.92308 q 0,-0.63462 0.45193,-1.08654 0.45191,-0.45192 1.08653,-0.45192 h 0.61539 q 0.63461,0 1.08653,0.45192 0.45193,0.45192 0.45193,1.08654 v 0.92308 h 1.23078 q 0.49999,0 0.86538,0.36538 0.36538,0.36539 0.36538,0.86538 z"
       inkscape:connector-curvature="0"
       style="fill:#ffffff;fill-opacity:1;stroke-width:0.00961539" />
    <text
       xml:space="preserve"
       style="font-style:normal;font-variant:normal;font-weight:normal;font-stretch:normal;font-size:10.58333302px;line-height:6.61458349px;font-family:Roboto;-inkscape-font-specification:Roboto;letter-spacing:0px;word-spacing:0px;fill:#000000;fill-opacity:1;stroke:none;stroke-width:0.26458332px;stroke-linecap:butt;stroke-linejoin:miter;stroke-opacity:1"
       x="292.89966"
       y="195.9709"
       id="text16-41-1"><tspan
         sodipodi:role="line"
         x="292.89966"
         y="195.9709"
         style="font-style:normal;font-variant:normal;font-weight:normal;font-stretch:normal;font-size:4.93888903px;line-height:3.54541659px;font-family:Roboto;-inkscape-font-specification:Roboto;writing-mode:lr-tb;fill:#ffffff;fill-opacity:1;stroke-width:0.26458332px"
         id="tspan823-4-5">Predict Failures</tspan></text>
    <text
       xml:space="preserve"
       style="font-style:normal;font-weight:normal;font-size:10.58333302px;line-height:6.61458302px;font-family:sans-serif;letter-spacing:0px;word-spacing:0px;fill:#000000;fill-opacity:1;stroke:none;stroke-width:0.26458332px;stroke-linecap:butt;stroke-linejoin:miter;stroke-opacity:1"
       x="78.844505"
       y="158.95282"
       id="text1588"><tspan
         sodipodi:role="line"
         id="tspan1586"
         x="78.844505"
         y="165.00929"
         style="stroke-width:0.26458332px" /></text>
    <text
       xml:space="preserve"
       style="font-style:normal;font-variant:normal;font-weight:normal;font-stretch:normal;font-size:10.58333302px;line-height:6.61458349px;font-family:Roboto;-inkscape-font-specification:Roboto;text-align:start;letter-spacing:0px;word-spacing:0px;text-anchor:start;fill:#000000;fill-opacity:1;stroke:none;stroke-width:0.26458332px;stroke-linecap:butt;stroke-linejoin:miter;stroke-opacity:1"
       x="62.41983"
       y="236.75694"
       id="text16-7-5"><tspan
         sodipodi:role="line"
         x="63.032368"
         y="236.75694"
         style="font-style:normal;font-variant:normal;font-weight:normal;font-stretch:normal;font-size:4.93888903px;line-height:0px;font-family:Roboto;-inkscape-font-specification:Roboto;text-align:center;writing-mode:lr-tb;text-anchor:middle;fill:#ffffff;fill-opacity:1;stroke-width:0.26458332px"
         id="tspan5422">...and captures data from </tspan><tspan
         sodipodi:role="line"
         x="62.41983"
         y="243.37152"
         style="font-style:normal;font-variant:normal;font-weight:normal;font-stretch:normal;font-size:4.93888903px;line-height:0px;font-family:Roboto;-inkscape-font-specification:Roboto;text-align:center;writing-mode:lr-tb;text-anchor:middle;fill:#ffffff;fill-opacity:1;stroke-width:0.26458332px"
         id="tspan5619">our mobile app.</tspan></text>
    <text
       xml:space="preserve"
       style="font-style:normal;font-variant:normal;font-weight:normal;font-stretch:normal;font-size:10.58333302px;line-height:6.61458349px;font-family:Roboto;-inkscape-font-specification:Roboto;text-align:start;letter-spacing:0px;word-spacing:0px;text-anchor:start;fill:#000000;fill-opacity:1;stroke:none;stroke-width:0.26458332px;stroke-linecap:butt;stroke-linejoin:miter;stroke-opacity:1"
       x="191.64136"
       y="175.51183"
       id="text16-7-5-9"><tspan
         sodipodi:role="line"
         x="192.25389"
         y="175.51183"
         style="font-style:normal;font-variant:normal;font-weight:normal;font-stretch:normal;font-size:4.93888903px;line-height:0px;font-family:Roboto;-inkscape-font-specification:Roboto;text-align:center;writing-mode:lr-tb;text-anchor:middle;fill:#ffffff;fill-opacity:1;stroke-width:0.26458332px"
         id="tspan5483">Quartic collates all </tspan><tspan
         sodipodi:role="line"
         x="192.25389"
         y="182.1264"
         style="font-style:normal;font-variant:normal;font-weight:normal;font-stretch:normal;font-size:4.93888903px;line-height:0px;font-family:Roboto;-inkscape-font-specification:Roboto;text-align:center;writing-mode:lr-tb;text-anchor:middle;fill:#ffffff;fill-opacity:1;stroke-width:0.26458332px"
         id="tspan5626">of your data and applies </tspan><tspan
         sodipodi:role="line"
         x="191.64136"
         y="188.741"
         style="font-style:normal;font-variant:normal;font-weight:normal;font-stretch:normal;font-size:4.93888903px;line-height:0px;font-family:Roboto;-inkscape-font-specification:Roboto;text-align:center;writing-mode:lr-tb;text-anchor:middle;fill:#ffffff;fill-opacity:1;stroke-width:0.26458332px"
         id="tspan5632">machine learning algorithms...</tspan></text>
    <path
       id="path5388"
       d="m 64.390588,277.2049 q 0,-0.62797 -0.447194,-1.07516 -0.447195,-0.44719 -1.075165,-0.44719 -0.62797,0 -1.075165,0.44719 -0.447193,0.44719 -0.447193,1.07516 0,0.62798 0.447193,1.07516 0.447195,0.4472 1.075165,0.4472 0.62797,0 1.075165,-0.4472 0.447194,-0.44718 0.447194,-1.07516 z m 3.958125,-3.04471 v -13.39675 q 0,-0.24738 -0.180776,-0.42815 -0.180777,-0.18079 -0.428163,-0.18079 h -9.74309 q -0.247376,0 -0.428162,0.18079 -0.180777,0.18077 -0.180777,0.42815 v 13.39675 q 0,0.24738 0.180777,0.42817 0.180786,0.18077 0.428162,0.18077 h 9.74309 q 0.247386,0 0.428163,-0.18077 0.180776,-0.18079 0.180776,-0.42817 z m -3.653656,-16.13698 q 0,-0.30447 -0.304469,-0.30447 h -3.044717 q -0.30447,0 -0.30447,0.30447 0,0.30447 0.30447,0.30447 h 3.044717 q 0.304469,0 0.304469,-0.30447 z m 5.480484,-0.30447 v 19.48616 q 0,0.98953 -0.723116,1.71265 -0.723128,0.72312 -1.712651,0.72312 h -9.74309 q -0.989534,0 -1.712651,-0.72312 -0.723116,-0.72312 -0.723116,-1.71265 v -19.48616 q 0,-0.98954 0.723116,-1.71266 0.723117,-0.72312 1.712651,-0.72312 h 9.74309 q 0.989523,0 1.712651,0.72312 0.723116,0.72312 0.723116,1.71266 z"
       inkscape:connector-curvature="0"
       style="fill:#ffffff;fill-opacity:1;stroke-width:0.01902946" />
    <text
       xml:space="preserve"
       style="font-style:normal;font-variant:normal;font-weight:normal;font-stretch:normal;font-size:10.58333302px;line-height:6.61458349px;font-family:Roboto;-inkscape-font-specification:Roboto;letter-spacing:0px;word-spacing:0px;fill:#000000;fill-opacity:1;stroke:none;stroke-width:0.26458332px;stroke-linecap:butt;stroke-linejoin:miter;stroke-opacity:1"
       x="62.517498"
       y="156.33524"
       id="text16-7-5-2"><tspan
         sodipodi:role="line"
         x="62.517498"
         y="156.33524"
         style="font-style:normal;font-variant:normal;font-weight:normal;font-stretch:normal;font-size:4.93888903px;line-height:0px;font-family:Roboto;-inkscape-font-specification:Roboto;text-align:center;writing-mode:lr-tb;text-anchor:middle;fill:#ffffff;fill-opacity:1;stroke-width:0.26458332px"
         id="tspan1612-7">Quartic monitors your existing data...</tspan></text>
    <rect
       style="fill:none;fill-opacity:1;stroke:#ffffff;stroke-width:0.373;stroke-linejoin:round;stroke-miterlimit:4;stroke-dasharray:none;stroke-opacity:1"
       id="rect1668-3"
       width="49.628098"
       height="49.628098"
       x="167.13005"
       y="199.7037"
       rx="5"
       ry="4.4451094" />
    <rect
       style="fill:none;fill-opacity:0;stroke:#ffffff;stroke-width:0.41522497;stroke-linejoin:round;stroke-miterlimit:4;stroke-dasharray:none;stroke-opacity:1"
       id="rect5469"
       width="35.634094"
       height="33.967812"
       x="45.051182"
       y="250.90877"
       rx="4.3169279"
       ry="5.0025115" />
    <rect
       style="fill:none;fill-opacity:0;stroke:#ffffff;stroke-width:0.51639873;stroke-linejoin:round;stroke-miterlimit:4;stroke-dasharray:none;stroke-opacity:1"
       id="rect5518"
       width="43.940598"
       height="30.612883"
       x="287.68976"
       y="168.93935"
       rx="5"
       ry="5" />
    <rect
       style="fill:none;fill-opacity:0;stroke:#ffffff;stroke-width:0.54016924;stroke-linejoin:round;stroke-miterlimit:4;stroke-dasharray:none;stroke-opacity:1"
       id="rect5522"
       width="39.353954"
       height="37.99398"
       x="308.97583"
       y="206.8036"
       rx="5"
       ry="5" />
    <path
       style="fill:none;fill-rule:evenodd;stroke:#ffffff;stroke-width:0.63700002;stroke-linecap:butt;stroke-linejoin:miter;stroke-miterlimit:4;stroke-dasharray:none;stroke-opacity:1"
       d="m 105.92792,182.35195 c 1.7937,0.57288 3.74383,0.64719 5.57592,0.21246 2.59763,-0.61638 4.87542,-2.21701 6.73244,-4.13511 1.85702,-1.91809 3.34206,-4.15761 4.85113,-6.35995 1.50908,-2.20234 3.06971,-4.40011 5.04404,-6.19723 1.97433,-1.79711 4.41606,-3.18489 7.07063,-3.46925 2.58465,-0.27687 5.23253,0.52779 7.35563,2.02762 2.12311,1.49982 3.7354,3.66144 4.77222,6.04515 2.07366,4.76741 1.86473,10.20994 1.07798,15.34894 -0.78676,5.13899 -2.11537,10.22848 -2.16257,15.42714 -0.0236,2.59933 0.28036,5.21917 1.11464,7.68109 0.83428,2.46192 2.2158,4.76469 4.14935,6.50205 1.93801,1.74137 4.41088,2.87912 6.99417,3.21797 2.5833,0.33886 5.26594,-0.12264 7.5875,-1.30527"
       id="path5547"
       inkscape:connector-curvature="0"
       inkscape:path-effect="#path-effect5549"
       inkscape:original-d="m 105.92792,182.35195 c -3.90562,6.51995 -3.3991,0.78486 5.57592,0.21246 8.97503,-0.57241 17.46177,-20.16168 23.69824,-20.16154 12.47295,2.7e-4 13.26562,41.67919 16.30725,53.03199 3.04164,11.35279 7.67046,-2.48404 14.58167,1.9127"
       sodipodi:nodetypes="csscc" />
    <path
       style="fill:none;fill-rule:evenodd;stroke:#ffffff;stroke-width:0.63700002;stroke-linecap:butt;stroke-linejoin:miter;stroke-miterlimit:4;stroke-dasharray:none;stroke-opacity:1"
       d="m 82.260877,267.87 c 2.660331,0.10456 5.314108,0.37556 7.940662,0.81089 10.545331,1.74779 20.600151,6.12873 31.253791,6.99976 5.32682,0.43552 10.81095,-0.0466 15.73771,-2.11819 4.92676,-2.07165 9.25592,-5.8452 11.34184,-10.76594 2.2648,-5.34271 1.74052,-11.39245 2.39935,-17.15785 0.32941,-2.8827 0.98002,-5.77289 2.37688,-8.31597 1.39686,-2.54307 3.60669,-4.72351 6.35601,-5.65071 2.21375,-0.74658 4.70534,-0.63346 6.84233,0.31063"
       id="path5551"
       inkscape:connector-curvature="0"
       inkscape:path-effect="#path-effect5553"
       inkscape:original-d="m 82.260877,267.87 c -7.562199,-17.75619 11.839242,44.99077 7.940662,0.81089 -3.405315,-38.59006 152.221931,68.88072 58.333341,-5.88437 -10.58973,-8.43278 8.36068,-34.40059 11.13224,-31.12453 2.77157,3.27606 -3.99273,0.31036 6.84233,0.31063"
       sodipodi:nodetypes="csscc" />
    <path
       style="fill:none;fill-rule:evenodd;stroke:#ffffff;stroke-width:0.63700002;stroke-linecap:butt;stroke-linejoin:miter;stroke-miterlimit:4;stroke-dasharray:none;stroke-opacity:1"
       d="m 217.68028,214.49544 c 2.57502,0.26819 5.17065,0.3383 7.75639,0.20951 4.22646,-0.21052 8.47194,-0.9684 12.31972,-2.72964 3.84777,-1.76123 7.28694,-4.5823 9.33429,-8.28577 1.84971,-3.34596 2.48794,-7.22035 2.81991,-11.02911 0.33197,-3.80875 0.39058,-7.66058 1.20675,-11.39564 0.81617,-3.73506 2.48814,-7.43099 5.45804,-9.83858 1.48496,-1.20379 3.27559,-2.05307 5.16872,-2.31818 1.89312,-0.26511 3.88535,0.0733 5.52543,1.0553 1.67491,1.00286 2.90244,2.60076 3.97234,4.23366 1.06991,1.6329 2.03579,3.3538 3.3691,4.77976 1.40779,1.50562 3.20631,2.64275 5.17016,3.26888 1.96385,0.62613 4.08866,0.73987 6.10813,0.32696"
       id="path5555"
       inkscape:connector-curvature="0"
       inkscape:path-effect="#path-effect5557"
       inkscape:original-d="m 217.68028,214.49544 c 4.85553,-1.47012 2.83149,2.17599 7.75639,0.20951 4.9249,-1.96648 16.79875,-9.54556 21.65401,-11.01541 9.71053,-2.9397 15.101,-25.77565 20.17885,-33.52621 2.53893,-3.87527 4.03258,5.64824 7.34144,9.01342 3.30886,3.36518 8.96209,4.30842 11.27829,3.59584"
       sodipodi:nodetypes="cssssc" />
    <path
       style="fill:none;fill-rule:evenodd;stroke:#ffffff;stroke-width:0.63700002;stroke-linecap:butt;stroke-linejoin:miter;stroke-miterlimit:4;stroke-dasharray:none;stroke-opacity:1"
       d="m 218.28217,226.23467 c 2.73969,-0.0281 5.48237,0.24641 8.16214,0.81692 9.23044,1.96512 17.32816,7.31246 26.033,10.95779 4.35242,1.82267 8.93097,3.23544 13.64064,3.52648 4.70966,0.29104 9.57838,-0.60014 13.57962,-3.10128 3.96718,-2.47985 6.83096,-6.3367 9.76646,-9.97964 2.93549,-3.64294 6.20271,-7.27905 10.54601,-9.01797 2.48134,-0.99345 5.23068,-1.30792 7.87227,-0.90044"
       id="path5559"
       inkscape:connector-curvature="0"
       inkscape:path-effect="#path-effect5561"
       inkscape:original-d="m 218.28217,226.23467 c 3.92008,6.50343 15.36728,11.25157 8.16214,0.81692 -8.06559,-11.6808 49.33344,4.8793 53.25326,11.38299 7.83964,13.00738 19.42184,-22.11602 20.31247,-18.99761 0.89064,3.11841 28.45229,10.23552 7.87227,-0.90044"
       sodipodi:nodetypes="csscc" />
    <text
       xml:space="preserve"
       style="font-style:normal;font-variant:normal;font-weight:normal;font-stretch:normal;font-size:10.58333302px;line-height:6.61458349px;font-family:Roboto;-inkscape-font-specification:Roboto;text-align:center;letter-spacing:0px;word-spacing:0px;text-anchor:middle;fill:#000000;fill-opacity:1;stroke:none;stroke-width:0.26458332px;stroke-linecap:butt;stroke-linejoin:miter;stroke-opacity:1"
       x="317.55234"
       y="281.27109"
       id="text16-41-9"><tspan
         sodipodi:role="line"
         x="317.55234"
         y="281.27109"
         style="font-style:normal;font-variant:normal;font-weight:normal;font-stretch:normal;font-size:4.93888903px;line-height:3.54541659px;font-family:Roboto;-inkscape-font-specification:Roboto;text-align:center;writing-mode:lr-tb;text-anchor:middle;fill:#ffffff;fill-opacity:1;stroke-width:0.26458332px"
         id="tspan1582-2">Update</tspan><tspan
         sodipodi:role="line"
         x="317.55234"
         y="287.88568"
         style="font-style:normal;font-variant:normal;font-weight:normal;font-stretch:normal;font-size:4.93888903px;line-height:3.54541659px;font-family:Roboto;-inkscape-font-specification:Roboto;text-align:center;writing-mode:lr-tb;text-anchor:middle;fill:#ffffff;fill-opacity:1;stroke-width:0.26458332px"
         id="tspan5663">Processes</tspan></text>
    <rect
       style="fill:none;fill-opacity:0;stroke:#ffffff;stroke-width:0.51943719;stroke-linejoin:round;stroke-miterlimit:4;stroke-dasharray:none;stroke-opacity:1"
       id="rect5522-8"
       width="34.876572"
       height="39.643845"
       x="300.20087"
       y="252.04399"
       rx="5"
       ry="5" />
    <g
       id="g5853"
       transform="matrix(0.22548597,0,0,0.22548597,306.36463,253.64311)"
       style="fill:#ffffff;fill-opacity:1">
      <path
         id="path5839"
         d="m 80.761,17.26 h -0.019 c 10e-4,-0.049 0.015,-0.095 0.015,-0.145 0,-2.893 -2.346,-5.245 -5.241,-5.245 -0.04,0 -0.076,0.011 -0.116,0.012 H 60.842 v -3.402 0 -0.002 c 0,-0.881 -0.714,-1.593 -1.593,-1.595 V 6.875 H 40.8 v 0.006 c -0.015,0 -0.028,-0.004 -0.043,-0.004 -0.88,0 -1.594,0.713 -1.594,1.594 0,0.01 0.003,0.02 0.003,0.03 v 3.38 H 24.501 c -0.007,0 -0.013,-0.002 -0.02,-0.002 -2.893,0 -5.242,2.354 -5.242,5.243 0,0.047 0.013,0.09 0.014,0.137 h -0.014 v 70.572 h 0.003 c 0,0.009 -0.003,0.018 -0.003,0.027 0,2.895 2.35,5.238 5.243,5.238 0.078,0 0.151,-0.02 0.229,-0.023 v 0.021 h 50.5 c 0.098,0.005 0.191,0.029 0.29,0.029 2.894,0 5.239,-2.348 5.239,-5.238 0,-0.019 -0.005,-0.036 -0.005,-0.055 h 0.028 V 17.26 Z M 70.822,83.185 H 29.178 V 21.809 h 4.997 v 3.069 c -0.002,0.033 -0.01,0.063 -0.01,0.097 0,0.998 0.81,1.814 1.814,1.814 0.005,0 0.009,-0.001 0.014,-0.001 v 0.008 H 64.02 c 1.005,-0.002 1.813,-0.816 1.813,-1.813 0,-0.015 -0.004,-0.029 -0.004,-0.044 v -3.13 h 4.992 v 61.376 z"
         inkscape:connector-curvature="0"
         style="fill:#ffffff;fill-opacity:1" />
      <path
         id="path5841"
         d="m 39.15,41.119 c 0,-0.658 -0.537,-1.195 -1.198,-1.195 -0.031,0 -0.058,0.015 -0.088,0.018 v -0.018 h -2.502 c -0.661,0 -1.199,0.539 -1.199,1.197 v 2.595 0 0.002 c 0,0.656 0.537,1.193 1.199,1.193 h 10e-4 2.502 v -0.018 c 0.03,0.002 0.056,0.018 0.086,0.018 0.663,0 1.2,-0.537 1.2,-1.193 v -0.002 0 -2.595 H 39.15 Z"
         inkscape:connector-curvature="0"
         style="fill:#ffffff;fill-opacity:1" />
      <path
         id="path5843"
         d="m 65.831,41.119 c 0,-0.658 -0.537,-1.195 -1.198,-1.195 -10e-4,0 -10e-4,0 -0.002,0 H 45.337 c -0.661,0 -1.199,0.539 -1.199,1.197 v 2.595 0 0.002 c 0,0.656 0.537,1.193 1.199,1.193 h 10e-4 19.294 c 0.663,0 1.2,-0.537 1.2,-1.193 v -0.002 0 -2.595 h -10e-4 z"
         inkscape:connector-curvature="0"
         style="fill:#ffffff;fill-opacity:1" />
      <path
         id="path5845"
         d="m 39.15,51.094 c 0,-0.658 -0.537,-1.195 -1.198,-1.195 -0.031,0 -0.058,0.015 -0.088,0.018 v -0.018 h -2.502 c -0.661,0 -1.199,0.539 -1.199,1.197 v 2.595 0 0.002 c 0,0.656 0.537,1.193 1.199,1.193 h 10e-4 2.502 v -0.018 c 0.03,0.002 0.056,0.018 0.086,0.018 0.663,0 1.2,-0.537 1.2,-1.193 v -0.002 0 -2.595 H 39.15 Z"
         inkscape:connector-curvature="0"
         style="fill:#ffffff;fill-opacity:1" />
      <path
         id="path5847"
         d="m 65.831,51.094 c 0,-0.658 -0.537,-1.195 -1.198,-1.195 -10e-4,0 -10e-4,0 -0.002,0 H 45.337 c -0.661,0 -1.199,0.539 -1.199,1.197 v 2.595 0 0.002 c 0,0.656 0.537,1.193 1.199,1.193 h 10e-4 19.294 c 0.663,0 1.2,-0.537 1.2,-1.193 v -0.002 0 -2.595 h -10e-4 z"
         inkscape:connector-curvature="0"
         style="fill:#ffffff;fill-opacity:1" />
      <path
         id="path5849"
         d="m 39.15,61.069 c 0,-0.658 -0.537,-1.195 -1.198,-1.195 -0.031,0 -0.058,0.015 -0.088,0.018 v -0.018 h -2.502 c -0.661,0 -1.199,0.539 -1.199,1.197 v 2.595 0 0.002 c 0,0.656 0.537,1.193 1.199,1.193 h 10e-4 2.502 v -0.018 c 0.03,0.002 0.056,0.018 0.086,0.018 0.663,0 1.2,-0.537 1.2,-1.193 v -0.002 0 -2.595 H 39.15 Z"
         inkscape:connector-curvature="0"
         style="fill:#ffffff;fill-opacity:1" />
      <path
         id="path5851"
         d="m 65.831,61.069 c 0,-0.658 -0.537,-1.195 -1.198,-1.195 -10e-4,0 -10e-4,0 -0.002,0 H 45.337 c -0.661,0 -1.199,0.539 -1.199,1.197 v 2.595 0 0.002 c 0,0.656 0.537,1.193 1.199,1.193 h 10e-4 19.294 c 0.663,0 1.2,-0.537 1.2,-1.193 v -0.002 0 -2.595 h -10e-4 z"
         inkscape:connector-curvature="0"
         style="fill:#ffffff;fill-opacity:1" />
    </g>
    <path
       style="fill:none;fill-rule:evenodd;stroke:#ffffff;stroke-width:0.63700002;stroke-linecap:butt;stroke-linejoin:miter;stroke-miterlimit:4;stroke-dasharray:none;stroke-opacity:1"
       d="m 219.08064,238.684 c 4.54081,1.41795 8.58473,4.37812 11.30873,8.27804 2.78251,3.98369 4.13882,8.75665 5.66937,13.36854 1.53055,4.6119 3.37791,9.3083 6.8561,12.70157 3.00165,2.92836 7.03865,4.65995 11.17809,5.33088 4.13945,0.67094 8.38934,0.33411 12.50657,-0.46187 8.23446,-1.59196 16.08963,-4.99906 24.42383,-5.93808 2.7083,-0.30514 5.44638,-0.34534 8.16247,-0.11984"
       id="path5559-0"
       inkscape:connector-curvature="0"
       inkscape:path-effect="#path-effect5561-9"
       inkscape:original-d="m 219.08064,238.684 c 7.88883,3.10164 18.51387,18.71269 11.30873,8.27804 -8.06559,-11.6808 8.60565,19.56642 12.52547,26.07011 7.83964,13.00738 47.21786,-4.18748 48.10849,-1.06907 0.89064,3.11841 28.74249,11.01612 8.16247,-0.11984"
       sodipodi:nodetypes="csscc" />
    <text
       xml:space="preserve"
       style="font-style:normal;font-variant:normal;font-weight:normal;font-stretch:normal;font-size:10.58333302px;line-height:6.61458349px;font-family:Roboto;-inkscape-font-specification:Roboto;text-align:start;letter-spacing:0px;word-spacing:0px;text-anchor:start;fill:#000000;fill-opacity:1;stroke:none;stroke-width:0.26458332px;stroke-linecap:butt;stroke-linejoin:miter;stroke-opacity:1"
       x="313.75333"
       y="156.33524"
       id="text16-7-5-9-2"><tspan
         sodipodi:role="line"
         x="313.75333"
         y="156.33524"
         style="font-style:normal;font-variant:normal;font-weight:normal;font-stretch:normal;font-size:4.93888903px;line-height:0px;font-family:Roboto;-inkscape-font-specification:Roboto;text-align:center;writing-mode:lr-tb;text-anchor:middle;fill:#ffffff;fill-opacity:1;stroke-width:0.26458332px"
         id="tspan5632-6">...and uses this knowledge to improve your</tspan><tspan
         sodipodi:role="line"
         x="313.75333"
         y="162.94981"
         style="font-style:normal;font-variant:normal;font-weight:normal;font-stretch:normal;font-size:4.93888903px;line-height:0px;font-family:Roboto;-inkscape-font-specification:Roboto;text-align:center;writing-mode:lr-tb;text-anchor:middle;fill:#ffffff;fill-opacity:1;stroke-width:0.26458332px"
         id="tspan5917">field operations.</tspan></text>
    <path
       style="fill:none;fill-rule:evenodd;stroke:#ffffff;stroke-width:0.63700002;stroke-linecap:butt;stroke-linejoin:miter;stroke-miterlimit:4;stroke-dasharray:0.63700002, 3.82200008;stroke-dashoffset:0;stroke-opacity:1"
       d="M 379.3185,101.40569 V 325.37766"
       id="path5571-3-4"
       inkscape:connector-curvature="0" />
    <path
       style="fill:none;fill-rule:evenodd;stroke:#ffffff;stroke-width:0.63700002;stroke-linecap:butt;stroke-linejoin:miter;stroke-miterlimit:4;stroke-dasharray:0.63700001, 3.82200004;stroke-dashoffset:0;stroke-opacity:1"
       d="M -1.6815,97.247949 V 321.21992"
       id="path5571-38"
       inkscape:connector-curvature="0" />
    <text
       xml:space="preserve"
       style="font-style:normal;font-weight:normal;font-size:10.58333302px;line-height:6.61458302px;font-family:sans-serif;letter-spacing:0px;word-spacing:0px;fill:#ffffff;fill-opacity:1;stroke:none;stroke-width:0.26458332px;stroke-linecap:butt;stroke-linejoin:miter;stroke-opacity:1"
       x="119.17918"
       y="144.07784"
       id="text4620"><tspan
         sodipodi:role="line"
         id="tspan4618"
         x="119.17918"
         y="144.07784"
         style="font-style:normal;font-variant:normal;font-weight:normal;font-stretch:normal;font-size:16.93333244px;font-family:'Roboto Condensed';-inkscape-font-specification:'Roboto Condensed, ';fill:#ffffff;fill-opacity:1;stroke-width:0.26458332px">&gt;&gt;</tspan></text>
    <text
       xml:space="preserve"
       style="font-style:normal;font-weight:normal;font-size:10.58333302px;line-height:6.61458349px;font-family:sans-serif;letter-spacing:0px;word-spacing:0px;fill:#ffffff;fill-opacity:1;stroke:none;stroke-width:0.26458332px;stroke-linecap:butt;stroke-linejoin:miter;stroke-opacity:1"
       x="244.82773"
       y="144.07784"
       id="text4620-2"><tspan
         sodipodi:role="line"
         id="tspan4618-6"
         x="244.82773"
         y="144.07784"
         style="font-style:normal;font-variant:normal;font-weight:normal;font-stretch:normal;font-size:16.93333244px;font-family:'Roboto Condensed';-inkscape-font-specification:'Roboto Condensed, ';fill:#ffffff;fill-opacity:1;stroke-width:0.26458332px">&gt;&gt;</tspan></text>
    <path
       style="fill:#ffffff;fill-opacity:1;stroke:#ffffff;stroke-width:0.18976028;stroke-linejoin:round;stroke-miterlimit:4;stroke-dasharray:none;stroke-dashoffset:0;stroke-opacity:1"
       d="m 80.673377,265.75333 v 4.27868 h 1.26926 c 0.825169,0 1.48939,-0.66422 1.48939,-1.4894 v -1.29989 c 0,-0.82517 -0.664221,-1.48939 -1.48939,-1.48939 z"
       id="rect4926"
       inkscape:connector-curvature="0" />
    <path
       style="fill:#ffffff;fill-opacity:1;stroke:#ffffff;stroke-width:0.18976028;stroke-linejoin:round;stroke-miterlimit:4;stroke-dasharray:none;stroke-dashoffset:0;stroke-opacity:1"
       d="m 167.10546,229.33199 v 4.27868 h -1.26926 c -0.82517,0 -1.48939,-0.66422 -1.48939,-1.4894 v -1.29989 c 0,-0.82517 0.66422,-1.48939 1.48939,-1.48939 z"
       id="rect4926-6"
       inkscape:connector-curvature="0" />
    <path
       style="fill:#ffffff;fill-opacity:1;stroke:#ffffff;stroke-width:0.18976028;stroke-linejoin:round;stroke-miterlimit:4;stroke-dasharray:none;stroke-dashoffset:0;stroke-opacity:1"
       d="m 104.34042,180.18994 v 4.27868 h 1.26926 c 0.82517,0 1.48939,-0.66422 1.48939,-1.4894 v -1.29989 c 0,-0.82517 -0.66422,-1.48939 -1.48939,-1.48939 z"
       id="rect4926-0"
       inkscape:connector-curvature="0" />
    <path
       style="fill:#ffffff;fill-opacity:1;stroke:#ffffff;stroke-width:0.18976028;stroke-linejoin:round;stroke-miterlimit:4;stroke-dasharray:none;stroke-dashoffset:0;stroke-opacity:1"
       d="m 166.90702,215.42247 v 4.27868 h -1.26926 c -0.82517,0 -1.48939,-0.66422 -1.48939,-1.4894 v -1.29989 c 0,-0.82517 0.66422,-1.48939 1.48939,-1.48939 z"
       id="rect4926-0-9"
       inkscape:connector-curvature="0" />
    <path
       style="fill:#ffffff;fill-opacity:1;stroke:#ffffff;stroke-width:0.18976028;stroke-linejoin:round;stroke-miterlimit:4;stroke-dasharray:none;stroke-dashoffset:0;stroke-opacity:1"
       d="m 216.78837,212.33343 v 4.27868 h 1.26926 c 0.82517,0 1.48939,-0.66422 1.48939,-1.4894 v -1.29989 c 0,-0.82517 -0.66422,-1.48939 -1.48939,-1.48939 z"
       id="rect4926-0-7"
       inkscape:connector-curvature="0" />
    <path
       style="fill:#ffffff;fill-opacity:1;stroke:#ffffff;stroke-width:0.18976028;stroke-linejoin:round;stroke-miterlimit:4;stroke-dasharray:none;stroke-dashoffset:0;stroke-opacity:1"
       d="m 216.66781,224.399 v 4.27868 h 1.26926 c 0.82517,0 1.48939,-0.66422 1.48939,-1.4894 v -1.29989 c 0,-0.82517 -0.66422,-1.48939 -1.48939,-1.48939 z"
       id="rect4926-0-5"
       inkscape:connector-curvature="0" />
    <path
       style="fill:#ffffff;fill-opacity:1;stroke:#ffffff;stroke-width:0.18976028;stroke-linejoin:round;stroke-miterlimit:4;stroke-dasharray:none;stroke-dashoffset:0;stroke-opacity:1"
       d="m 216.69133,236.48202 v 4.27868 h 1.26926 c 0.82517,0 1.48939,-0.66422 1.48939,-1.4894 v -1.29989 c 0,-0.82517 -0.66422,-1.48939 -1.48939,-1.48939 z"
       id="rect4926-0-97"
       inkscape:connector-curvature="0" />
    <path
       style="fill:#ffffff;fill-opacity:1;stroke:#ffffff;stroke-width:0.18976028;stroke-linejoin:round;stroke-miterlimit:4;stroke-dasharray:none;stroke-dashoffset:0;stroke-opacity:1"
       d="m 287.75477,180.86715 v 4.27868 h -1.26926 c -0.82517,0 -1.48939,-0.66422 -1.48939,-1.4894 v -1.29989 c 0,-0.82517 0.66422,-1.48939 1.48939,-1.48939 z"
       id="rect4926-0-9-8"
       inkscape:connector-curvature="0" />
    <path
       style="fill:#ffffff;fill-opacity:1;stroke:#ffffff;stroke-width:0.18976028;stroke-linejoin:round;stroke-miterlimit:4;stroke-dasharray:none;stroke-dashoffset:0;stroke-opacity:1"
       d="m 308.94064,216.37454 v 4.27868 h -1.26926 c -0.82517,0 -1.48939,-0.66422 -1.48939,-1.4894 v -1.29989 c 0,-0.82517 0.66422,-1.48939 1.48939,-1.48939 z"
       id="rect4926-0-9-5"
       inkscape:connector-curvature="0" />
    <path
       style="fill:#ffffff;fill-opacity:1;stroke:#ffffff;stroke-width:0.18976028;stroke-linejoin:round;stroke-miterlimit:4;stroke-dasharray:none;stroke-dashoffset:0;stroke-opacity:1"
       d="m 300.24413,269.72657 v 4.27868 h -1.26926 c -0.82517,0 -1.48939,-0.66422 -1.48939,-1.4894 v -1.29989 c 0,-0.82517 0.66422,-1.48939 1.48939,-1.48939 z"
       id="rect4926-0-9-3"
       inkscape:connector-curvature="0" />
  </g>
</svg>
